Grandstander-SemiBold.ufo
<glyph name="exclam" format="2">
  <advance width="708.0"/>
  <unicode hex="0021"/>
  <outline>
    <contour>
      <point x="425.125" y="421.0" type="curve"/>
      <point x="432.0" y="678.0"/>
      <point x="473.5" y="1310.625"/>
      <point x="492.125" y="1458.875" type="curve"/>
      <point x="171.5" y="1472.625" type="line"/>
      <point x="163.25" y="1199.25"/>
      <point x="171.125" y="749.75"/>
      <point x="188.0" y="433.125" type="curve"/>
      <point x="243.75" y="426.125"/>
      <point x="373.75" y="421.0"/>
    </contour>
    <contour>
      <point x="317.75" y="-26.375" type="curve" smooth="yes"/>
      <point x="425.75" y="-26.375"/>
      <point x="508.25" y="46.0"/>
      <point x="508.25" y="158.875" type="curve" smooth="yes"/>
      <point x="508.25" y="257.25"/>
      <point x="421.625" y="329.125"/>
      <point x="314.5" y="329.125" type="curve" smooth="yes"/>
      <point x="209.125" y="329.125"/>
      <point x="119.0" y="265.0"/>
      <point x="119.0" y="158.0" type="curve" smooth="yes"/>
      <point x="119.0" y="50.625"/>
      <point x="201.875" y="-26.375"/>
    </contour>
  </outline>
</glyph>
<glyph name="quotedbl" format="2">
  <advance width="764.0"/>
  <unicode hex="0022"/>
  <outline>
    <contour>
      <point x="290.125" y="1026.125" type="curve"/>
      <point x="309.125" y="1118.75"/>
      <point x="320.875" y="1285.5"/>
      <point x="320.875" y="1394.375" type="curve" smooth="yes"/>
      <point x="320.875" y="1420.125"/>
      <point x="319.625" y="1440.625"/>
      <point x="317.125" y="1454.5" type="curve"/>
      <point x="292.0" y="1458.0"/>
      <point x="264.375" y="1459.25"/>
      <point x="236.125" y="1459.25" type="curve" smooth="yes"/>
      <point x="182.875" y="1459.25"/>
      <point x="140.0" y="1453.25"/>
      <point x="92.125" y="1443.5" type="curve"/>
      <point x="92.125" y="1366.125"/>
      <point x="111.5" y="1158.0"/>
      <point x="139.125" y="1040.625" type="curve"/>
      <point x="182.25" y="1032.125"/>
      <point x="239.0" y="1026.125"/>
    </contour>
    <contour>
      <point x="419.875" y="1032.375" type="curve"/>
      <point x="447.125" y="1032.0"/>
      <point x="502.625" y="1034.75"/>
      <point x="580.75" y="1044.125" type="curve"/>
      <point x="603.375" y="1138.75"/>
      <point x="633.75" y="1320.375"/>
      <point x="633.75" y="1403.5" type="curve" smooth="yes"/>
      <point x="633.75" y="1423.0"/>
      <point x="633.125" y="1439.0"/>
      <point x="632.125" y="1446.125" type="curve"/>
      <point x="569.75" y="1453.625"/>
      <point x="484.875" y="1455.25"/>
      <point x="407.375" y="1454.5" type="curve"/>
      <point x="405.25" y="1429.0"/>
      <point x="404.5" y="1369.0"/>
      <point x="404.5" y="1319.125" type="curve" smooth="yes"/>
      <point x="404.5" y="1244.875"/>
      <point x="413.25" y="1090.125"/>
    </contour>
  </outline>
</glyph>
<glyph name="numbersign" format="2">
  <advance width="1511.0"/>
  <unicode hex="0023"/>
  <outline>
    <contour>
      <point x="50.75" y="831.25" type="curve"/>
      <point x="254.5" y="835.0"/>
      <point x="547.375" y="845.875"/>
      <point x="839.625" y="858.125" type="curve" smooth="yes"/>
      <point x="1060.375" y="867.625"/>
      <point x="1287.25" y="878.25"/>
      <point x="1476.0" y="884.5" type="curve"/>
      <point x="1484.25" y="924.125"/>
      <point x="1493.75" y="1083.125"/>
      <point x="1493.75" y="1124.25" type="curve"/>
      <point x="1279.0" y="1121.125"/>
      <point x="1018.125" y="1107.375"/>
      <point x="752.0" y="1091.75" type="curve" smooth="yes"/>
      <point x="518.25" y="1078.0"/>
      <point x="243.5" y="1061.75"/>
      <point x="61.5" y="1056.125" type="curve"/>
      <point x="58.75" y="1034.875"/>
      <point x="50.75" y="888.375"/>
    </contour>
    <contour>
      <point x="1404.5" y="394.125" type="curve"/>
      <point x="1413.0" y="429.625"/>
      <point x="1434.5" y="587.875"/>
      <point x="1434.5" y="633.875" type="curve"/>
      <point x="1262.375" y="643.25"/>
      <point x="1082.625" y="647.75"/>
      <point x="903.375" y="648.875" type="curve" smooth="yes"/>
      <point x="756.0" y="650.0"/>
      <point x="609.125" y="649.5"/>
      <point x="464.75" y="646.375" type="curve" smooth="yes"/>
      <point x="315.75" y="642.625"/>
      <point x="171.125" y="637.875"/>
      <point x="35.25" y="631.625" type="curve"/>
      <point x="30.25" y="602.0"/>
      <point x="18.5" y="459.125"/>
      <point x="18.5" y="422.25" type="curve"/>
      <point x="107.25" y="428.0"/>
      <point x="208.25" y="430.25"/>
      <point x="317.125" y="430.25" type="curve" smooth="yes"/>
      <point x="463.75" y="430.25"/>
      <point x="626.375" y="428.375"/>
      <point x="789.375" y="421.625" type="curve" smooth="yes"/>
      <point x="1001.375" y="413.0"/>
      <point x="1215.25" y="402.25"/>
    </contour>
    <contour>
      <point x="360.625" y="11.25" type="curve"/>
      <point x="411.0" y="11.25"/>
      <point x="580.625" y="23.25"/>
      <point x="619.125" y="30.75" type="curve"/>
      <point x="619.125" y="497.375"/>
      <point x="644.75" y="1143.5"/>
      <point x="665.875" y="1475.75" type="curve"/>
      <point x="582.5" y="1475.75"/>
      <point x="460.5" y="1473.5"/>
      <point x="428.375" y="1466.875" type="curve"/>
      <point x="390.875" y="1095.625"/>
      <point x="360.625" y="541.25"/>
    </contour>
    <contour>
      <point x="906.0" y="63.375" type="curve"/>
      <point x="947.875" y="63.375"/>
      <point x="1123.75" y="89.875"/>
      <point x="1162.125" y="97.625" type="curve"/>
      <point x="1131.875" y="399.625"/>
      <point x="1115.5" y="759.375"/>
      <point x="1115.5" y="1077.25" type="curve" smooth="yes"/>
      <point x="1115.5" y="1225.0"/>
      <point x="1118.125" y="1363.625"/>
      <point x="1124.375" y="1482.75" type="curve"/>
      <point x="1083.375" y="1482.75"/>
      <point x="931.875" y="1472.625"/>
      <point x="902.875" y="1467.625" type="curve"/>
      <point x="887.375" y="1259.125"/>
      <point x="880.25" y="1037.5"/>
      <point x="880.25" y="811.625" type="curve" smooth="yes"/>
      <point x="880.25" y="563.625"/>
      <point x="888.625" y="308.0"/>
    </contour>
  </outline>
</glyph>
<glyph name="dollar" format="2">
  <advance width="1027.0"/>
  <unicode hex="0024"/>
  <anchor x="533.0" y="73.5" name="bottom"/>
  <anchor x="540.5" y="1252.125" name="top"/>
  <outline>
    <contour>
      <point x="628.25" y="-82.0" type="line"/>
      <point x="629.375" y="-18.625"/>
      <point x="631.25" y="104.875"/>
      <point x="632.25" y="148.875" type="curve"/>
      <point x="395.5" y="162.625" type="line"/>
      <point x="388.875" y="128.625"/>
      <point x="370.25" y="-53.625"/>
      <point x="369.5" y="-83.875" type="curve"/>
    </contour>
    <contour>
      <point x="410.625" y="1207.0" type="curve"/>
      <point x="626.875" y="1208.25" type="line"/>
      <point x="628.0" y="1258.25"/>
      <point x="628.375" y="1372.5"/>
      <point x="627.125" y="1417.5" type="curve"/>
      <point x="420.0" y="1408.625" type="line"/>
      <point x="417.5" y="1374.0"/>
      <point x="412.625" y="1246.0"/>
    </contour>
    <component base="s" xOffset="31.25" yOffset="139.75"/>
  </outline>
</glyph>
<glyph name="percent" format="2">
  <advance width="1385.0"/>
  <unicode hex="0025"/>
  <outline>
    <contour>
      <point x="187.0" y="-31.875" type="curve"/>
      <point x="430.125" y="220.75"/>
      <point x="994.125" y="919.625"/>
      <point x="1245.125" y="1301.5" type="curve"/>
      <point x="1214.5" y="1343.375"/>
      <point x="1149.375" y="1409.875"/>
      <point x="1088.875" y="1436.875" type="curve"/>
      <point x="860.25" y="1071.625"/>
      <point x="324.125" y="392.5"/>
      <point x="35.25" y="78.375" type="curve"/>
      <point x="68.25" y="48.875"/>
      <point x="152.875" y="-9.375"/>
    </contour>
    <contour>
      <point x="1010.25" y="261.125" type="curve" smooth="yes"/>
      <point x="934.875" y="261.125"/>
      <point x="897.25" y="311.25"/>
      <point x="897.25" y="383.5" type="curve" smooth="yes"/>
      <point x="897.25" y="448.0"/>
      <point x="953.125" y="489.875"/>
      <point x="1013.25" y="489.875" type="curve" smooth="yes"/>
      <point x="1077.75" y="489.875"/>
      <point x="1125.0" y="452.625"/>
      <point x="1125.0" y="379.25" type="curve" smooth="yes"/>
      <point x="1125.0" y="302.375"/>
      <point x="1070.375" y="261.125"/>
    </contour>
    <contour>
      <point x="995.5" y="104.5" type="curve" smooth="yes"/>
      <point x="1169.0" y="104.5"/>
      <point x="1283.625" y="201.5"/>
      <point x="1283.625" y="375.875" type="curve" smooth="yes"/>
      <point x="1283.625" y="533.75"/>
      <point x="1181.875" y="641.25"/>
      <point x="1014.75" y="641.25" type="curve" smooth="yes"/>
      <point x="848.25" y="641.25"/>
      <point x="734.25" y="513.75"/>
      <point x="734.25" y="351.875" type="curve" smooth="yes"/>
      <point x="734.25" y="183.625"/>
      <point x="852.125" y="104.5"/>
    </contour>
    <contour>
      <point x="348.25" y="761.625" type="curve" smooth="yes"/>
      <point x="497.5" y="761.625"/>
      <point x="638.875" y="868.875"/>
      <point x="638.875" y="1041.0" type="curve" smooth="yes"/>
      <point x="638.875" y="1212.75"/>
      <point x="531.5" y="1316.75"/>
      <point x="364.125" y="1316.75" type="curve" smooth="yes"/>
      <point x="194.75" y="1316.75"/>
      <point x="65.25" y="1203.5"/>
      <point x="65.25" y="1028.125" type="curve" smooth="yes"/>
      <point x="65.25" y="872.375"/>
      <point x="185.0" y="761.625"/>
    </contour>
    <contour>
      <point x="357.0" y="936.875" type="curve" smooth="yes"/>
      <point x="292.25" y="936.875"/>
      <point x="242.75" y="971.25"/>
      <point x="242.75" y="1045.625" type="curve" smooth="yes"/>
      <point x="242.75" y="1119.125"/>
      <point x="288.75" y="1162.375"/>
      <point x="364.375" y="1162.375" type="curve" smooth="yes"/>
      <point x="430.25" y="1162.375"/>
      <point x="469.375" y="1116.25"/>
      <point x="469.375" y="1049.0" type="curve" smooth="yes"/>
      <point x="469.375" y="970.75"/>
      <point x="425.375" y="936.875"/>
    </contour>
  </outline>
</glyph>
<glyph name="ampersand" format="2">
  <advance width="1395.0"/>
  <unicode hex="0026"/>
  <outline>
    <contour>
      <point x="542.875" y="-93.75" type="curve" smooth="yes"/>
      <point x="809.375" y="-93.75"/>
      <point x="975.625" y="54.875"/>
      <point x="1030.25" y="122.875" type="curve"/>
      <point x="1065.375" y="78.0"/>
      <point x="1134.875" y="-9.125"/>
      <point x="1173.5" y="-55.5" type="curve"/>
      <point x="1225.75" y="-24.5"/>
      <point x="1298.0" y="52.5"/>
      <point x="1335.625" y="106.75" type="curve"/>
      <point x="1286.625" y="161.125"/>
      <point x="1218.125" y="233.375"/>
      <point x="1165.875" y="286.5" type="curve"/>
      <point x="1215.75" y="348.375"/>
      <point x="1293.25" y="454.5"/>
      <point x="1309.625" y="496.0" type="curve"/>
      <point x="1266.375" y="541.0"/>
      <point x="1184.75" y="605.125"/>
      <point x="1137.75" y="628.125" type="curve"/>
      <point x="1124.125" y="599.875"/>
      <point x="1052.25" y="481.125"/>
      <point x="1018.75" y="442.75" type="curve"/>
      <point x="913.0" y="562.375"/>
      <point x="768.75" y="725.125"/>
      <point x="694.75" y="806.25" type="curve"/>
      <point x="818.125" y="913.5"/>
      <point x="893.75" y="994.375"/>
      <point x="893.75" y="1146.25" type="curve" smooth="yes"/>
      <point x="893.75" y="1304.0"/>
      <point x="763.125" y="1423.25"/>
      <point x="575.0" y="1423.25" type="curve" smooth="yes"/>
      <point x="388.0" y="1423.25"/>
      <point x="220.625" y="1340.25"/>
      <point x="220.625" y="1134.625" type="curve" smooth="yes"/>
      <point x="220.625" y="994.25"/>
      <point x="326.375" y="878.625"/>
      <point x="372.0" y="835.625" type="curve"/>
      <point x="227.75" y="744.25"/>
      <point x="42.0" y="593.0"/>
      <point x="42.0" y="341.0" type="curve" smooth="yes"/>
      <point x="42.0" y="59.375"/>
      <point x="239.75" y="-93.75"/>
    </contour>
    <contour>
      <point x="558.125" y="114.625" type="curve" smooth="yes"/>
      <point x="407.375" y="114.625"/>
      <point x="294.0" y="198.25"/>
      <point x="294.0" y="343.75" type="curve" smooth="yes"/>
      <point x="294.0" y="510.75"/>
      <point x="403.375" y="619.125"/>
      <point x="515.75" y="698.25" type="curve"/>
      <point x="604.75" y="592.25"/>
      <point x="781.5" y="391.25"/>
      <point x="885.25" y="281.875" type="curve"/>
      <point x="842.25" y="228.0"/>
      <point x="716.5" y="114.625"/>
    </contour>
    <contour>
      <point x="547.625" y="936.25" type="curve"/>
      <point x="502.125" y="983.25"/>
      <point x="447.875" y="1062.75"/>
      <point x="447.875" y="1139.25" type="curve" smooth="yes"/>
      <point x="447.875" y="1209.875"/>
      <point x="502.25" y="1249.75"/>
      <point x="563.625" y="1249.75" type="curve" smooth="yes"/>
      <point x="637.875" y="1249.75"/>
      <point x="674.5" y="1206.625"/>
      <point x="674.5" y="1147.125" type="curve" smooth="yes"/>
      <point x="674.5" y="1062.375"/>
      <point x="613.75" y="981.875"/>
    </contour>
  </outline>
</glyph>
<glyph name="quotesingle" format="2">
  <advance width="462.0"/>
  <unicode hex="0027"/>
  <outline>
    <contour>
      <point x="344.25" y="1381.25" type="curve" smooth="yes"/>
      <point x="344.25" y="1411.375"/>
      <point x="343.625" y="1437.0"/>
      <point x="341.375" y="1454.375" type="curve"/>
      <point x="313.625" y="1457.875"/>
      <point x="283.5" y="1459.5"/>
      <point x="252.125" y="1459.5" type="curve" smooth="yes"/>
      <point x="201.25" y="1459.5"/>
      <point x="148.125" y="1455.0"/>
      <point x="97.125" y="1445.5" type="curve"/>
      <point x="97.125" y="1356.25"/>
      <point x="134.75" y="1098.875"/>
      <point x="155.75" y="1000.125" type="curve"/>
      <point x="184.5" y="997.25"/>
      <point x="211.25" y="994.625"/>
      <point x="238.0" y="994.625" type="curve" smooth="yes"/>
      <point x="260.0" y="994.625"/>
      <point x="282.625" y="995.875"/>
      <point x="311.0" y="998.75" type="curve"/>
      <point x="332.25" y="1105.75"/>
      <point x="344.25" y="1272.5"/>
    </contour>
  </outline>
</glyph>
<glyph name="parenleft" format="2">
  <advance width="677.0"/>
  <unicode hex="0028"/>
  <outline>
    <contour>
      <point x="345.375" y="-518.75" type="curve"/>
      <point x="397.5" y="-495.0"/>
      <point x="523.875" y="-413.375"/>
      <point x="570.125" y="-377.75" type="curve"/>
      <point x="424.0" y="-193.375"/>
      <point x="328.625" y="153.375"/>
      <point x="328.625" y="516.75" type="curve" smooth="yes"/>
      <point x="328.625" y="854.375"/>
      <point x="429.125" y="1208.125"/>
      <point x="562.625" y="1476.25" type="curve"/>
      <point x="503.875" y="1506.375"/>
      <point x="394.875" y="1541.875"/>
      <point x="297.625" y="1555.875" type="curve"/>
      <point x="150.625" y="1312.625"/>
      <point x="53.5" y="919.125"/>
      <point x="53.5" y="533.125" type="curve" smooth="yes"/>
      <point x="53.5" y="112.125"/>
      <point x="164.25" y="-300.125"/>
    </contour>
  </outline>
</glyph>
<glyph name="parenright" format="2">
  <advance width="651.0"/>
  <unicode hex="0029"/>
  <outline>
    <contour>
      <point x="279.625" y="619.375" type="curve" smooth="yes"/>
      <point x="279.625" y="178.75"/>
      <point x="190.875" y="-146.125"/>
      <point x="49.125" y="-352.375" type="curve"/>
      <point x="87.0" y="-388.125"/>
      <point x="212.75" y="-458.75"/>
      <point x="269.125" y="-477.125" type="curve"/>
      <point x="448.875" y="-240.25"/>
      <point x="562.625" y="244.875"/>
      <point x="562.625" y="584.25" type="curve" smooth="yes"/>
      <point x="562.625" y="922.0"/>
      <point x="468.125" y="1324.625"/>
      <point x="284.0" y="1560.125" type="curve"/>
      <point x="203.0" y="1542.5"/>
      <point x="99.75" y="1509.5"/>
      <point x="31.75" y="1471.125" type="curve"/>
      <point x="175.875" y="1289.375"/>
      <point x="279.625" y="937.375"/>
    </contour>
  </outline>
</glyph>
<glyph name="asterisk" format="2">
  <advance width="952.125"/>
  <unicode hex="002A"/>
  <outline>
    <contour>
      <point x="771.125" y="958.5" type="curve"/>
      <point x="793.75" y="990.5"/>
      <point x="865.75" y="1100.75"/>
      <point x="878.875" y="1136.75" type="curve"/>
      <point x="782.875" y="1189.75"/>
      <point x="612.875" y="1262.125"/>
      <point x="521.875" y="1297.125" type="curve"/>
      <point x="429.875" y="1360.125"/>
      <point x="233.625" y="1475.25"/>
      <point x="148.625" y="1523.0" type="curve"/>
      <point x="124.0" y="1489.125"/>
      <point x="61.5" y="1386.25"/>
      <point x="44.5" y="1345.875" type="curve"/>
      <point x="143.375" y="1293.5"/>
      <point x="337.25" y="1211.875"/>
      <point x="437.125" y="1172.875" type="curve"/>
      <point x="523.0" y="1108.625"/>
      <point x="682.375" y="1006.5"/>
    </contour>
    <contour>
      <point x="476.375" y="855.5" type="curve" smooth="yes"/>
      <point x="521.75" y="855.5"/>
      <point x="566.125" y="859.375"/>
      <point x="583.75" y="862.625" type="curve"/>
      <point x="581.875" y="950.875"/>
      <point x="567.375" y="1146.875"/>
      <point x="559.25" y="1249.25" type="curve"/>
      <point x="569.125" y="1336.875"/>
      <point x="577.5" y="1471.125"/>
      <point x="577.5" y="1584.75" type="curve"/>
      <point x="559.25" y="1588.375"/>
      <point x="517.0" y="1591.0"/>
      <point x="474.125" y="1591.0" type="curve" smooth="yes"/>
      <point x="431.25" y="1591.0"/>
      <point x="387.75" y="1588.375"/>
      <point x="368.375" y="1584.75" type="curve"/>
      <point x="372.125" y="1496.25"/>
      <point x="381.625" y="1359.75"/>
      <point x="393.625" y="1249.25" type="curve"/>
      <point x="382.75" y="1122.5"/>
      <point x="369.0" y="962.5"/>
      <point x="367.125" y="862.625" type="curve"/>
      <point x="385.125" y="859.0"/>
      <point x="431.25" y="855.5"/>
    </contour>
    <contour>
      <point x="165.5" y="939.75" type="curve"/>
      <point x="269.5" y="997.75"/>
      <point x="407.0" y="1081.75"/>
      <point x="506.0" y="1144.625" type="curve"/>
      <point x="604.0" y="1189.0"/>
      <point x="799.25" y="1289.375"/>
      <point x="891.875" y="1340.875" type="curve"/>
      <point x="875.75" y="1380.875"/>
      <point x="812.25" y="1489.125"/>
      <point x="787.25" y="1521.125" type="curve"/>
      <point x="701.875" y="1471.125"/>
      <point x="537.625" y="1361.625"/>
      <point x="451.25" y="1298.25" type="curve"/>
      <point x="350.875" y="1256.0"/>
      <point x="155.875" y="1174.625"/>
      <point x="59.875" y="1121.625" type="curve"/>
      <point x="73.375" y="1087.875"/>
      <point x="146.5" y="967.5"/>
    </contour>
  </outline>
</glyph>
<glyph name="plus" format="2">
  <advance width="1050.0"/>
  <unicode hex="002B"/>
  <outline>
    <contour>
      <point x="973.125" y="610.625" type="curve"/>
      <point x="976.25" y="636.25"/>
      <point x="987.125" y="768.5"/>
      <point x="986.375" y="858.625" type="curve"/>
      <point x="880.25" y="840.5"/>
      <point x="653.625" y="829.75"/>
      <point x="426.625" y="829.75" type="curve" smooth="yes"/>
      <point x="266.625" y="829.75"/>
      <point x="114.5" y="834.875"/>
      <point x="47.375" y="842.625" type="curve"/>
      <point x="47.375" y="812.25"/>
      <point x="55.75" y="651.125"/>
      <point x="64.0" y="613.25" type="curve"/>
      <point x="186.0" y="596.625"/>
      <point x="406.375" y="584.625"/>
      <point x="589.25" y="584.625" type="curve" smooth="yes"/>
      <point x="761.625" y="584.625"/>
      <point x="897.125" y="594.625"/>
    </contour>
    <contour>
      <point x="627.375" y="1181.125" type="curve"/>
      <point x="603.375" y="1181.5"/>
      <point x="393.125" y="1173.5"/>
      <point x="363.0" y="1171.625" type="curve"/>
      <point x="386.0" y="1037.875"/>
      <point x="414.5" y="749.5"/>
      <point x="414.5" y="518.875" type="curve" smooth="yes"/>
      <point x="414.5" y="427.25"/>
      <point x="410.625" y="340.5"/>
      <point x="402.625" y="270.625" type="curve"/>
      <point x="436.0" y="267.5"/>
      <point x="605.375" y="261.875"/>
      <point x="638.25" y="263.0" type="curve"/>
      <point x="658.875" y="384.25"/>
      <point x="667.5" y="538.875"/>
      <point x="667.5" y="683.25" type="curve" smooth="yes"/>
      <point x="667.5" y="883.0"/>
      <point x="651.375" y="1076.5"/>
    </contour>
  </outline>
</glyph>
<glyph name="comma" format="2">
  <advance width="667.0"/>
  <unicode hex="002C"/>
  <outline>
    <contour>
      <point x="325.125" y="-290.5" type="curve"/>
      <point x="449.5" y="-198.625"/>
      <point x="536.5" y="-56.25"/>
      <point x="536.5" y="112.875" type="curve" smooth="yes"/>
      <point x="536.5" y="266.75"/>
      <point x="424.625" y="328.625"/>
      <point x="307.375" y="328.625" type="curve" smooth="yes"/>
      <point x="196.0" y="328.625"/>
      <point x="88.75" y="268.5"/>
      <point x="88.75" y="153.75" type="curve" smooth="yes"/>
      <point x="88.75" y="73.375"/>
      <point x="136.125" y="-9.5"/>
      <point x="233.0" y="-9.5" type="curve" smooth="yes"/>
      <point x="293.375" y="-9.5"/>
      <point x="318.0" y="12.75"/>
      <point x="333.0" y="35.75" type="curve"/>
      <point x="334.75" y="32.875"/>
      <point x="336.5" y="27.25"/>
      <point x="336.5" y="20.5" type="curve" smooth="yes"/>
      <point x="335.875" y="-28.5"/>
      <point x="254.5" y="-126.25"/>
      <point x="204.625" y="-158.625" type="curve"/>
      <point x="233.125" y="-205.875"/>
      <point x="304.75" y="-283.875"/>
    </contour>
  </outline>
</glyph>
<glyph name="hyphen" format="2">
  <advance width="907.125"/>
  <unicode hex="002D"/>
  <outline>
    <contour>
      <point x="860.25" y="801.25" type="curve"/>
      <point x="774.625" y="810.75"/>
      <point x="657.125" y="813.875"/>
      <point x="510.75" y="813.875" type="curve" smooth="yes"/>
      <point x="352.5" y="813.875"/>
      <point x="183.75" y="801.875"/>
      <point x="53.125" y="787.25" type="curve"/>
      <point x="45.625" y="749.0"/>
      <point x="35.75" y="607.625"/>
      <point x="36.875" y="543.125" type="curve"/>
      <point x="223.125" y="554.75"/>
      <point x="718.25" y="568.625"/>
      <point x="871.375" y="568.625" type="curve"/>
      <point x="872.125" y="631.75"/>
      <point x="871.5" y="729.125"/>
    </contour>
  </outline>
</glyph>
<glyph name="period" format="2">
  <advance width="632.0"/>
  <unicode hex="002E"/>
  <outline>
    <contour>
      <point x="255.0" y="328.5" type="curve" smooth="yes"/>
      <point x="149.625" y="328.5"/>
      <point x="59.0" y="247.5"/>
      <point x="59.0" y="146.5" type="curve" smooth="yes"/>
      <point x="59.0" y="38.125"/>
      <point x="158.5" y="-38.0"/>
      <point x="264.75" y="-38.0" type="curve" smooth="yes"/>
      <point x="359.0" y="-38.0"/>
      <point x="438.5" y="31.875"/>
      <point x="438.5" y="132.5" type="curve" smooth="yes"/>
      <point x="438.5" y="242.625"/>
      <point x="363.75" y="328.5"/>
    </contour>
  </outline>
</glyph>
<glyph name="zero" format="2">
  <advance width="1087.0"/>
  <unicode hex="0030"/>
  <outline>
    <contour>
      <point x="526.625" y="-32.0" type="curve" smooth="yes"/>
      <point x="823.875" y="-32.0"/>
      <point x="946.125" y="279.375"/>
      <point x="946.125" y="638.5" type="curve" smooth="yes"/>
      <point x="946.125" y="1032.375"/>
      <point x="840.5" y="1338.0"/>
      <point x="526.625" y="1338.0" type="curve" smooth="yes"/>
      <point x="203.625" y="1338.0"/>
      <point x="91.75" y="1045.5"/>
      <point x="91.75" y="685.25" type="curve" smooth="yes"/>
      <point x="91.75" y="315.25"/>
      <point x="213.875" y="-32.0"/>
    </contour>
    <contour>
      <point x="525.875" y="231.375" type="curve" smooth="yes"/>
      <point x="410.375" y="231.375"/>
      <point x="344.5" y="363.25"/>
      <point x="344.5" y="694.375" type="curve" smooth="yes"/>
      <point x="344.5" y="875.25"/>
      <point x="394.5" y="1101.75"/>
      <point x="524.75" y="1101.75" type="curve" smooth="yes"/>
      <point x="656.0" y="1101.75"/>
      <point x="704.25" y="889.625"/>
      <point x="704.25" y="688.375" type="curve" smooth="yes"/>
      <point x="704.25" y="436.375"/>
      <point x="663.25" y="231.375"/>
    </contour>
  </outline>
</glyph>
<glyph name="one" format="2">
  <advance width="809.0"/>
  <unicode hex="0031"/>
  <outline>
    <contour>
      <point x="508.375" y="232.875" type="curve"/>
      <point x="515.375" y="361.75"/>
      <point x="517.875" y="490.625"/>
      <point x="517.875" y="610.0" type="curve" smooth="yes"/>
      <point x="517.875" y="963.125"/>
      <point x="504.875" y="1260.75"/>
      <point x="499.75" y="1301.875" type="curve"/>
      <point x="455.875" y="1309.125"/>
      <point x="357.625" y="1313.625"/>
      <point x="306.5" y="1313.625" type="curve"/>
      <point x="222.75" y="1242.5"/>
      <point x="49.75" y="1069.875"/>
      <point x="11.25" y="1030.375" type="curve"/>
      <point x="42.375" y="968.0"/>
      <point x="98.25" y="877.875"/>
      <point x="131.5" y="839.375" type="curve"/>
      <point x="150.0" y="861.75"/>
      <point x="259.5" y="982.75"/>
      <point x="288.5" y="1007.875" type="curve"/>
      <point x="282.25" y="891.125"/>
      <point x="276.375" y="315.375"/>
      <point x="276.75" y="223.5" type="curve"/>
      <point x="241.125" y="220.625"/>
      <point x="124.5" y="208.25"/>
      <point x="81.875" y="199.375" type="curve"/>
      <point x="79.375" y="151.5"/>
      <point x="80.25" y="36.375"/>
      <point x="81.375" y="-12.0" type="curve"/>
      <point x="154.375" y="-4.5"/>
      <point x="602.5" y="9.0"/>
      <point x="686.125" y="9.0" type="curve"/>
      <point x="693.625" y="50.75"/>
      <point x="700.75" y="186.875"/>
      <point x="701.125" y="221.25" type="curve"/>
      <point x="663.75" y="227.0"/>
      <point x="573.875" y="232.875"/>
    </contour>
  </outline>
</glyph>
<glyph name="two" format="2">
  <advance width="995.0"/>
  <unicode hex="0032"/>
  <outline>
    <contour>
      <point x="873.25" y="298.5" type="curve"/>
      <point x="742.5" y="291.0"/>
      <point x="488.75" y="268.125"/>
      <point x="404.375" y="257.5" type="curve"/>
      <point x="439.0" y="292.25"/>
      <point x="544.0" y="420.0"/>
      <point x="667.125" y="579.0" type="curve" smooth="yes"/>
      <point x="792.875" y="742.875"/>
      <point x="863.0" y="907.5"/>
      <point x="863.0" y="1049.875" type="curve" smooth="yes"/>
      <point x="863.0" y="1242.25"/>
      <point x="734.75" y="1364.0"/>
      <point x="537.25" y="1364.0" type="curve" smooth="yes"/>
      <point x="321.625" y="1364.0"/>
      <point x="122.25" y="1220.25"/>
      <point x="30.25" y="1024.625" type="curve"/>
      <point x="69.875" y="985.125"/>
      <point x="175.875" y="911.0"/>
      <point x="230.375" y="884.75" type="curve"/>
      <point x="283.75" y="1007.625"/>
      <point x="386.125" y="1111.0"/>
      <point x="506.5" y="1111.0" type="curve" smooth="yes"/>
      <point x="563.5" y="1111.0"/>
      <point x="614.375" y="1083.875"/>
      <point x="614.375" y="1015.125" type="curve" smooth="yes"/>
      <point x="614.375" y="907.0"/>
      <point x="496.75" y="737.5"/>
      <point x="365.125" y="574.5" type="curve" smooth="yes"/>
      <point x="239.0" y="417.625"/>
      <point x="124.5" y="292.125"/>
      <point x="57.625" y="227.125" type="curve"/>
      <point x="61.25" y="144.5"/>
      <point x="92.625" y="5.0"/>
      <point x="97.625" y="-17.0" type="curve"/>
      <point x="891.75" y="27.0" type="line"/>
      <point x="894.0" y="61.0"/>
      <point x="892.0" y="245.125"/>
    </contour>
  </outline>
</glyph>
<glyph name="three" format="2">
  <advance width="1032.0"/>
  <unicode hex="0033"/>
  <outline>
    <contour>
      <point x="477.0" y="-3.0" type="curve" smooth="yes"/>
      <point x="724.5" y="-3.0"/>
      <point x="927.625" y="146.0"/>
      <point x="927.625" y="398.0" type="curve" smooth="yes"/>
      <point x="927.625" y="595.375"/>
      <point x="783.75" y="702.875"/>
      <point x="617.25" y="729.625" type="curve"/>
      <point x="739.625" y="762.5"/>
      <point x="860.375" y="875.125"/>
      <point x="860.375" y="1013.25" type="curve" smooth="yes"/>
      <point x="860.375" y="1218.25"/>
      <point x="693.25" y="1335.0"/>
      <point x="494.0" y="1335.0" type="curve" smooth="yes"/>
      <point x="241.875" y="1335.0"/>
      <point x="82.875" y="1197.125"/>
      <point x="26.0" y="1130.625" type="curve"/>
      <point x="38.5" y="1115.125"/>
      <point x="118.75" y="1034.625"/>
      <point x="193.875" y="976.375" type="curve"/>
      <point x="242.375" y="1036.5"/>
      <point x="356.0" y="1111.0"/>
      <point x="466.5" y="1111.0" type="curve" smooth="yes"/>
      <point x="558.75" y="1111.0"/>
      <point x="603.375" y="1056.75"/>
      <point x="603.375" y="983.25" type="curve" smooth="yes"/>
      <point x="603.375" y="858.25"/>
      <point x="422.375" y="779.5"/>
      <point x="253.0" y="779.5" type="curve"/>
      <point x="253.0" y="702.0"/>
      <point x="265.125" y="619.5"/>
      <point x="275.125" y="587.5" type="curve"/>
      <point x="525.875" y="587.5"/>
      <point x="680.5" y="545.0"/>
      <point x="680.5" y="380.875" type="curve" smooth="yes"/>
      <point x="680.5" y="270.375"/>
      <point x="598.5" y="210.25"/>
      <point x="479.875" y="210.25" type="curve" smooth="yes"/>
      <point x="366.5" y="210.25"/>
      <point x="298.5" y="270.75"/>
      <point x="269.375" y="357.5" type="curve"/>
      <point x="201.625" y="333.25"/>
      <point x="99.25" y="283.875"/>
      <point x="44.0" y="243.0" type="curve"/>
      <point x="100.125" y="85.5"/>
      <point x="263.125" y="-3.0"/>
    </contour>
  </outline>
</glyph>
<glyph name="four" format="2">
  <advance width="1104.0"/>
  <unicode hex="0034"/>
  <outline>
    <contour>
      <point x="992.25" y="342.625" type="curve"/>
      <point x="992.25" y="417.625"/>
      <point x="981.0" y="546.25"/>
      <point x="976.625" y="564.875" type="curve"/>
      <point x="959.625" y="565.5"/>
      <point x="851.0" y="564.125"/>
      <point x="788.375" y="562.25" type="curve"/>
      <point x="788.375" y="847.5"/>
      <point x="807.5" y="1257.625"/>
      <point x="813.75" y="1341.625" type="curve"/>
      <point x="755.0" y="1342.0"/>
      <point x="620.25" y="1333.125"/>
      <point x="583.125" y="1328.125" type="curve"/>
      <point x="524.625" y="1255.75"/>
      <point x="183.0" y="705.75"/>
      <point x="73.625" y="505.375" type="curve"/>
      <point x="82.375" y="430.75"/>
      <point x="95.875" y="352.625"/>
      <point x="111.75" y="280.75" type="curve"/>
      <point x="163.5" y="287.125"/>
      <point x="398.25" y="313.25"/>
      <point x="550.125" y="324.0" type="curve"/>
      <point x="541.25" y="212.5"/>
      <point x="534.5" y="89.25"/>
      <point x="534.5" y="-10.75" type="curve"/>
      <point x="577.25" y="-10.375"/>
      <point x="730.625" y="0.5"/>
      <point x="792.5" y="11.875" type="curve"/>
      <point x="789.875" y="60.625"/>
      <point x="787.0" y="172.75"/>
      <point x="787.0" y="339.125" type="curve"/>
      <point x="852.375" y="341.5"/>
      <point x="931.5" y="342.625"/>
    </contour>
    <contour>
      <point x="615.25" y="1043.25" type="curve"/>
      <point x="600.75" y="953.0"/>
      <point x="578.125" y="623.25"/>
      <point x="576.875" y="550.875" type="curve"/>
      <point x="510.375" y="549.375"/>
      <point x="338.625" y="530.125"/>
      <point x="310.5" y="525.75" type="curve"/>
      <point x="336.25" y="588.0"/>
      <point x="535.125" y="918.125"/>
    </contour>
  </outline>
</glyph>
<glyph name="five" format="2">
  <advance width="1137.0"/>
  <unicode hex="0035"/>
  <outline>
    <contour>
      <point x="41.25" y="215.125" type="curve"/>
      <point x="155.25" y="62.875"/>
      <point x="349.75" y="4.375"/>
      <point x="528.75" y="4.375" type="curve" smooth="yes"/>
      <point x="827.125" y="4.375"/>
      <point x="1035.125" y="201.5"/>
      <point x="1035.125" y="501.5" type="curve" smooth="yes"/>
      <point x="1035.125" y="737.5"/>
      <point x="894.5" y="947.625"/>
      <point x="659.25" y="947.625" type="curve" smooth="yes"/>
      <point x="528.25" y="947.625"/>
      <point x="431.125" y="862.875"/>
      <point x="408.375" y="808.625" type="curve"/>
      <point x="408.375" y="852.625"/>
      <point x="400.125" y="983.375"/>
      <point x="393.875" y="1054.0" type="curve"/>
      <point x="479.875" y="1070.0"/>
      <point x="722.5" y="1097.625"/>
      <point x="922.0" y="1107.75" type="curve"/>
      <point x="922.0" y="1198.75"/>
      <point x="886.0" y="1309.75"/>
      <point x="879.375" y="1328.125" type="curve"/>
      <point x="710.0" y="1314.125"/>
      <point x="267.625" y="1248.875"/>
      <point x="112.25" y="1214.125" type="curve"/>
      <point x="139.5" y="1007.375"/>
      <point x="155.375" y="793.75"/>
      <point x="155.375" y="572.375" type="curve"/>
      <point x="177.875" y="570.75"/>
      <point x="234.375" y="570.125"/>
      <point x="274.0" y="570.125" type="curve" smooth="yes"/>
      <point x="317.375" y="570.125"/>
      <point x="367.625" y="573.625"/>
      <point x="397.25" y="578.125" type="curve"/>
      <point x="402.25" y="636.875"/>
      <point x="473.75" y="748.625"/>
      <point x="607.875" y="748.625" type="curve" smooth="yes"/>
      <point x="739.25" y="748.625"/>
      <point x="796.75" y="633.125"/>
      <point x="796.75" y="514.25" type="curve" smooth="yes"/>
      <point x="796.75" y="346.625"/>
      <point x="695.625" y="237.0"/>
      <point x="532.75" y="237.0" type="curve" smooth="yes"/>
      <point x="376.75" y="237.0"/>
      <point x="275.75" y="316.375"/>
      <point x="229.125" y="390.5" type="curve"/>
      <point x="192.25" y="367.875"/>
      <point x="78.125" y="273.375"/>
    </contour>
  </outline>
</glyph>
<glyph name="six" format="2">
  <advance width="1154.0"/>
  <unicode hex="0036"/>
  <outline>
    <contour>
      <point x="839.125" y="1176.375" type="curve"/>
      <point x="823.875" y="1247.0"/>
      <point x="759.625" y="1344.125"/>
      <point x="720.5" y="1376.375" type="curve"/>
      <point x="307.25" y="1218.875"/>
      <point x="90.375" y="872.25"/>
      <point x="90.375" y="497.875" type="curve" smooth="yes"/>
      <point x="90.375" y="196.75"/>
      <point x="247.875" y="-9.0"/>
      <point x="541.25" y="-9.0" type="curve" smooth="yes"/>
      <point x="816.125" y="-9.0"/>
      <point x="1024.875" y="186.5"/>
      <point x="1024.875" y="476.0" type="curve" smooth="yes"/>
      <point x="1024.875" y="720.5"/>
      <point x="886.375" y="836.875"/>
      <point x="682.875" y="836.875" type="curve" smooth="yes"/>
      <point x="559.25" y="836.875"/>
      <point x="416.5" y="784.625"/>
      <point x="347.5" y="698.75" type="curve"/>
      <point x="407.875" y="872.75"/>
      <point x="607.875" y="1097.125"/>
    </contour>
    <contour>
      <point x="399.375" y="529.75" type="curve" smooth="yes"/>
      <point x="448.875" y="587.0"/>
      <point x="534.125" y="626.5"/>
      <point x="625.5" y="626.5" type="curve" smooth="yes"/>
      <point x="727.25" y="626.5"/>
      <point x="787.0" y="564.75"/>
      <point x="787.0" y="457.0" type="curve" smooth="yes"/>
      <point x="787.0" y="335.875"/>
      <point x="696.5" y="224.5"/>
      <point x="559.25" y="224.5" type="curve" smooth="yes"/>
      <point x="434.75" y="224.5"/>
      <point x="356.875" y="299.125"/>
      <point x="356.875" y="416.875" type="curve" smooth="yes"/>
      <point x="356.875" y="457.75"/>
      <point x="371.875" y="498.0"/>
    </contour>
  </outline>
</glyph>
<glyph name="seven" format="2">
  <advance width="1012.0"/>
  <unicode hex="0037"/>
  <outline>
    <contour>
      <point x="376.25" y="-31.75" type="curve"/>
      <point x="492.0" y="334.625"/>
      <point x="616.0" y="627.375"/>
      <point x="957.875" y="1153.5" type="curve"/>
      <point x="954.875" y="1180.5"/>
      <point x="927.25" y="1343.25"/>
      <point x="919.625" y="1372.25" type="curve"/>
      <point x="747.0" y="1372.25"/>
      <point x="345.625" y="1308.875"/>
      <point x="68.625" y="1245.875" type="curve"/>
      <point x="68.625" y="1192.75"/>
      <point x="85.0" y="1022.75"/>
      <point x="94.875" y="981.25" type="curve"/>
      <point x="138.75" y="995.125"/>
      <point x="411.125" y="1061.0"/>
      <point x="652.75" y="1097.5" type="curve"/>
      <point x="433.625" y="838.75"/>
      <point x="202.875" y="386.625"/>
      <point x="85.75" y="60.125" type="curve"/>
      <point x="103.25" y="52.5"/>
      <point x="297.875" y="-10.125"/>
    </contour>
  </outline>
</glyph>
<glyph name="eight" format="2">
  <advance width="1243.0"/>
  <unicode hex="0038"/>
  <outline>
    <contour>
      <point x="608.125" y="-10.25" type="curve" smooth="yes"/>
      <point x="885.25" y="-10.25"/>
      <point x="1086.0" y="144.875"/>
      <point x="1086.0" y="386.75" type="curve" smooth="yes"/>
      <point x="1086.0" y="583.875"/>
      <point x="962.375" y="680.75"/>
      <point x="843.0" y="699.125" type="curve"/>
      <point x="968.875" y="744.375"/>
      <point x="1039.5" y="866.5"/>
      <point x="1039.5" y="1026.375" type="curve" smooth="yes"/>
      <point x="1039.5" y="1260.125"/>
      <point x="855.125" y="1373.875"/>
      <point x="613.0" y="1373.875" type="curve" smooth="yes"/>
      <point x="332.125" y="1373.875"/>
      <point x="114.125" y="1252.5"/>
      <point x="114.125" y="1001.75" type="curve" smooth="yes"/>
      <point x="114.125" y="855.875"/>
      <point x="191.625" y="755.5"/>
      <point x="295.0" y="709.875" type="curve"/>
      <point x="166.625" y="653.0"/>
      <point x="69.0" y="534.125"/>
      <point x="69.0" y="377.0" type="curve" smooth="yes"/>
      <point x="69.0" y="118.375"/>
      <point x="279.875" y="-10.25"/>
    </contour>
    <contour>
      <point x="586.125" y="216.5" type="curve" smooth="yes"/>
      <point x="463.625" y="216.5"/>
      <point x="340.125" y="261.625"/>
      <point x="340.125" y="399.875" type="curve" smooth="yes"/>
      <point x="340.125" y="546.75"/>
      <point x="481.25" y="584.625"/>
      <point x="589.75" y="584.625" type="curve" smooth="yes"/>
      <point x="727.625" y="584.625"/>
      <point x="832.5" y="543.0"/>
      <point x="832.5" y="404.375" type="curve" smooth="yes"/>
      <point x="832.5" y="273.625"/>
      <point x="714.625" y="216.5"/>
    </contour>
    <contour>
      <point x="587.875" y="824.625" type="curve" smooth="yes"/>
      <point x="461.0" y="824.625"/>
      <point x="373.625" y="864.0"/>
      <point x="373.625" y="981.875" type="curve" smooth="yes"/>
      <point x="373.625" y="1085.875"/>
      <point x="447.0" y="1167.875"/>
      <point x="579.125" y="1167.875" type="curve" smooth="yes"/>
      <point x="701.375" y="1167.875"/>
      <point x="787.625" y="1122.375"/>
      <point x="787.625" y="1005.625" type="curve" smooth="yes"/>
      <point x="787.625" y="902.125"/>
      <point x="707.0" y="824.625"/>
    </contour>
  </outline>
</glyph>
<glyph name="nine" format="2">
  <advance width="1067.0"/>
  <unicode hex="0039"/>
  <outline>
    <contour>
      <point x="859.375" y="19.875" type="curve"/>
      <point x="922.125" y="221.0"/>
      <point x="984.75" y="528.125"/>
      <point x="984.75" y="832.125" type="curve" smooth="yes"/>
      <point x="984.75" y="1160.625"/>
      <point x="845.375" y="1364.0"/>
      <point x="535.625" y="1364.0" type="curve" smooth="yes"/>
      <point x="275.625" y="1364.0"/>
      <point x="56.625" y="1185.875"/>
      <point x="56.625" y="893.375" type="curve" smooth="yes"/>
      <point x="56.625" y="651.75"/>
      <point x="201.875" y="482.625"/>
      <point x="454.0" y="482.625" type="curve" smooth="yes"/>
      <point x="591.625" y="482.625"/>
      <point x="688.75" y="538.875"/>
      <point x="717.0" y="583.125" type="curve"/>
      <point x="706.375" y="344.125"/>
      <point x="583.25" y="67.5"/>
      <point x="550.125" y="-0.75" type="curve"/>
      <point x="670.0" y="-0.75"/>
      <point x="798.875" y="7.5"/>
    </contour>
    <contour>
      <point x="540.875" y="1162.125" type="curve" smooth="yes"/>
      <point x="658.75" y="1162.125"/>
      <point x="722.25" y="1082.75"/>
      <point x="722.25" y="955.125" type="curve" smooth="yes"/>
      <point x="722.25" y="814.25"/>
      <point x="638.625" y="715.125"/>
      <point x="491.0" y="715.125" type="curve" smooth="yes"/>
      <point x="370.875" y="715.125"/>
      <point x="307.625" y="800.375"/>
      <point x="307.625" y="924.125" type="curve" smooth="yes"/>
      <point x="307.625" y="1068.625"/>
      <point x="400.25" y="1162.125"/>
    </contour>
  </outline>
</glyph>
<glyph name="colon" format="2">
  <advance width="564.0"/>
  <unicode hex="003A"/>
  <outline>
    <contour>
      <point x="254.875" y="-9.625" type="curve" smooth="yes"/>
      <point x="354.875" y="-9.625"/>
      <point x="436.625" y="59.875"/>
      <point x="436.625" y="159.375" type="curve" smooth="yes"/>
      <point x="436.625" y="264.0"/>
      <point x="362.125" y="348.625"/>
      <point x="252.875" y="348.625" type="curve" smooth="yes"/>
      <point x="149.125" y="348.625"/>
      <point x="64.25" y="258.5"/>
      <point x="64.25" y="158.5" type="curve" smooth="yes"/>
      <point x="64.25" y="65.75"/>
      <point x="150.75" y="-9.625"/>
    </contour>
    <component base="period" xOffset="2.625" yOffset="690.875"/>
  </outline>
</glyph>
<glyph name="semicolon" format="2">
  <advance width="593.0"/>
  <unicode hex="003B"/>
  <outline>
    <contour>
      <point x="262.125" y="1003.25" type="curve" smooth="yes"/>
      <point x="156.75" y="1003.25"/>
      <point x="66.125" y="922.25"/>
      <point x="66.125" y="821.25" type="curve" smooth="yes"/>
      <point x="66.125" y="712.875"/>
      <point x="165.625" y="636.75"/>
      <point x="271.875" y="636.75" type="curve" smooth="yes"/>
      <point x="366.125" y="636.75"/>
      <point x="445.625" y="706.625"/>
      <point x="445.625" y="807.25" type="curve" smooth="yes"/>
      <point x="445.625" y="917.375"/>
      <point x="370.875" y="1003.25"/>
    </contour>
    <contour>
      <point x="290.5" y="-316.5" type="curve"/>
      <point x="408.625" y="-228.375"/>
      <point x="491.875" y="-91.625"/>
      <point x="491.875" y="69.375" type="curve" smooth="yes"/>
      <point x="491.875" y="215.75"/>
      <point x="385.625" y="275.125"/>
      <point x="273.375" y="275.125" type="curve" smooth="yes"/>
      <point x="166.375" y="275.125"/>
      <point x="65.375" y="217.5"/>
      <point x="65.375" y="108.375" type="curve" smooth="yes"/>
      <point x="65.375" y="31.75"/>
      <point x="109.625" y="-47.375"/>
      <point x="202.75" y="-47.375" type="curve" smooth="yes"/>
      <point x="261.25" y="-47.375"/>
      <point x="285.25" y="-25.125"/>
      <point x="299.0" y="-2.75" type="curve"/>
      <point x="300.75" y="-5.625"/>
      <point x="302.5" y="-11.25"/>
      <point x="302.5" y="-17.375" type="curve" smooth="yes"/>
      <point x="301.875" y="-65.125"/>
      <point x="224.25" y="-160.375"/>
      <point x="176.25" y="-192.125" type="curve"/>
      <point x="202.875" y="-236.25"/>
      <point x="270.75" y="-309.875"/>
    </contour>
  </outline>
</glyph>
<glyph name="less" format="2">
  <advance width="807.0"/>
  <unicode hex="003C"/>
  <outline>
    <contour>
      <point x="636.375" y="1127.625" type="curve"/>
      <point x="551.375" y="1078.125"/>
      <point x="235.625" y="815.75"/>
      <point x="21.0" y="630.75" type="curve"/>
      <point x="17.0" y="429.875" type="line"/>
      <point x="235.625" y="361.75"/>
      <point x="452.125" y="274.5"/>
      <point x="650.75" y="189.5" type="curve"/>
      <point x="668.125" y="247.125"/>
      <point x="688.75" y="343.0"/>
      <point x="689.5" y="398.875" type="curve"/>
      <point x="618.875" y="451.875"/>
      <point x="325.25" y="562.125"/>
      <point x="205.25" y="600.875" type="curve"/>
      <point x="203.75" y="529.625" type="line"/>
      <point x="396.75" y="690.125"/>
      <point x="559.5" y="817.5"/>
      <point x="756.25" y="961.75" type="curve"/>
      <point x="739.0" y="1012.25"/>
      <point x="693.625" y="1092.875"/>
    </contour>
  </outline>
</glyph>
<glyph name="equal" format="2">
  <advance width="1050.0"/>
  <unicode hex="003D"/>
  <outline>
    <contour>
      <point x="73.125" y="1064.375" type="curve"/>
      <point x="58.5" y="1034.25"/>
      <point x="48.625" y="900.125"/>
      <point x="48.625" y="851.25" type="curve"/>
      <point x="213.25" y="859.125"/>
      <point x="831.625" y="872.25"/>
      <point x="1013.875" y="872.25" type="curve"/>
      <point x="1013.875" y="904.5"/>
      <point x="999.375" y="1090.125"/>
      <point x="993.25" y="1127.25" type="curve"/>
      <point x="758.25" y="1127.25"/>
      <point x="216.75" y="1093.375"/>
    </contour>
    <contour>
      <point x="25.75" y="631.25" type="curve"/>
      <point x="24.25" y="581.75"/>
      <point x="28.75" y="445.25"/>
      <point x="34.375" y="415.625" type="curve"/>
      <point x="236.75" y="421.125"/>
      <point x="861.25" y="419.625"/>
      <point x="1019.625" y="419.625" type="curve"/>
      <point x="1019.625" y="451.875"/>
      <point x="1006.875" y="618.375"/>
      <point x="999.75" y="655.875" type="curve"/>
      <point x="927.25" y="660.25"/>
      <point x="826.25" y="663.0"/>
      <point x="716.0" y="663.0" type="curve" smooth="yes"/>
      <point x="494.25" y="663.0"/>
      <point x="226.875" y="651.625"/>
    </contour>
  </outline>
</glyph>
<glyph name="greater" format="2">
  <advance width="790.0"/>
  <unicode hex="003E"/>
  <outline>
    <contour>
      <point x="64.875" y="977.75" type="curve"/>
      <point x="172.125" y="904.375"/>
      <point x="445.625" y="723.375"/>
      <point x="547.5" y="655.75" type="curve"/>
      <point x="574.0" y="744.375" type="line"/>
      <point x="397.375" y="631.0"/>
      <point x="58.75" y="421.875"/>
      <point x="19.75" y="405.75" type="curve"/>
      <point x="19.75" y="373.5"/>
      <point x="59.125" y="241.625"/>
      <point x="84.5" y="215.875" type="curve"/>
      <point x="124.125" y="225.875"/>
      <point x="496.625" y="406.75"/>
      <point x="762.25" y="543.0" type="curve"/>
      <point x="757.0" y="780.0" type="line"/>
      <point x="555.75" y="921.0"/>
      <point x="270.5" y="1109.25"/>
      <point x="217.5" y="1123.25" type="curve"/>
      <point x="170.25" y="1098.125"/>
      <point x="102.625" y="1025.875"/>
    </contour>
  </outline>
</glyph>
<glyph name="question" format="2">
  <advance width="1036.0"/>
  <unicode hex="003F"/>
  <outline>
    <contour>
      <point x="627.75" y="426.375" type="curve"/>
      <point x="631.5" y="595.875"/>
      <point x="708.375" y="707.5"/>
      <point x="788.875" y="777.75" type="curve" smooth="yes"/>
      <point x="872.0" y="850.75"/>
      <point x="953.5" y="941.375"/>
      <point x="953.5" y="1116.625" type="curve" smooth="yes"/>
      <point x="953.5" y="1353.625"/>
      <point x="764.625" y="1472.0"/>
      <point x="506.875" y="1472.0" type="curve" smooth="yes"/>
      <point x="267.0" y="1472.0"/>
      <point x="50.625" y="1350.875"/>
      <point x="2.875" y="1125.875" type="curve"/>
      <point x="224.75" y="1001.25" type="line"/>
      <point x="267.0" y="1128.875"/>
      <point x="343.125" y="1228.625"/>
      <point x="503.875" y="1228.625" type="curve" smooth="yes"/>
      <point x="607.625" y="1228.625"/>
      <point x="668.5" y="1176.375"/>
      <point x="668.5" y="1084.25" type="curve" smooth="yes"/>
      <point x="668.5" y="1015.5"/>
      <point x="621.5" y="949.625"/>
      <point x="542.75" y="881.125" type="curve" smooth="yes"/>
      <point x="408.125" y="762.875"/>
      <point x="338.0" y="616.5"/>
      <point x="338.0" y="440.5" type="curve"/>
      <point x="435.25" y="429.875"/>
      <point x="510.5" y="426.375"/>
    </contour>
    <contour>
      <point x="504.0" y="-10.0" type="curve" smooth="yes"/>
      <point x="603.75" y="-10.0"/>
      <point x="691.375" y="69.875"/>
      <point x="691.375" y="169.875" type="curve" smooth="yes"/>
      <point x="691.375" y="262.5"/>
      <point x="608.625" y="325.75"/>
      <point x="497.5" y="325.75" type="curve" smooth="yes"/>
      <point x="404.0" y="325.75"/>
      <point x="315.625" y="247.5"/>
      <point x="315.625" y="158.25" type="curve" smooth="yes"/>
      <point x="315.625" y="52.75"/>
      <point x="402.625" y="-10.0"/>
    </contour>
  </outline>
</glyph>
<glyph name="at" format="2">
  <advance width="1920.0"/>
  <unicode hex="0040"/>
  <outline>
    <contour>
      <point x="834.0" y="-41.0" type="curve" smooth="yes"/>
      <point x="1128.75" y="-41.0"/>
      <point x="1344.0" y="47.5"/>
      <point x="1423.0" y="178.0" type="curve"/>
      <point x="1248.25" y="316.75" type="line"/>
      <point x="1188.75" y="233.75"/>
      <point x="1056.875" y="159.0"/>
      <point x="848.375" y="159.0" type="curve" smooth="yes"/>
      <point x="522.25" y="159.0"/>
      <point x="274.25" y="336.625"/>
      <point x="274.25" y="640.75" type="curve" smooth="yes"/>
      <point x="274.25" y="1030.5"/>
      <point x="605.125" y="1290.25"/>
      <point x="1003.125" y="1290.25" type="curve" smooth="yes"/>
      <point x="1348.0" y="1290.25"/>
      <point x="1574.5" y="1093.125"/>
      <point x="1574.5" y="757.5" type="curve" smooth="yes"/>
      <point x="1574.5" y="654.25"/>
      <point x="1541.5" y="549.875"/>
      <point x="1455.75" y="549.875" type="curve" smooth="yes"/>
      <point x="1398.5" y="549.875"/>
      <point x="1369.375" y="574.5"/>
      <point x="1352.5" y="647.25" type="curve" smooth="yes"/>
      <point x="1345.25" y="678.375"/>
      <point x="1296.375" y="912.5"/>
      <point x="1257.75" y="1118.625" type="curve"/>
      <point x="1214.0" y="1116.75"/>
      <point x="1116.125" y="1112.125"/>
      <point x="1078.375" y="1111.0" type="curve"/>
      <point x="1080.125" y="1093.25"/>
      <point x="1084.125" y="1055.625"/>
      <point x="1088.375" y="1031.0" type="curve"/>
      <point x="1046.875" y="1069.25"/>
      <point x="980.0" y="1089.375"/>
      <point x="882.125" y="1089.375" type="curve" smooth="yes"/>
      <point x="665.375" y="1089.375"/>
      <point x="499.5" y="911.25"/>
      <point x="499.5" y="694.75" type="curve" smooth="yes"/>
      <point x="499.5" y="484.125"/>
      <point x="637.25" y="352.25"/>
      <point x="859.625" y="352.25" type="curve" smooth="yes"/>
      <point x="1008.375" y="352.25"/>
      <point x="1158.625" y="409.375"/>
      <point x="1204.25" y="513.5" type="curve"/>
      <point x="1237.0" y="410.375"/>
      <point x="1344.0" y="349.0"/>
      <point x="1465.0" y="349.0" type="curve" smooth="yes"/>
      <point x="1689.25" y="349.0"/>
      <point x="1801.375" y="522.375"/>
      <point x="1801.375" y="742.5" type="curve" smooth="yes"/>
      <point x="1801.375" y="1207.125"/>
      <point x="1473.5" y="1497.0"/>
      <point x="997.25" y="1497.0" type="curve" smooth="yes"/>
      <point x="461.875" y="1497.0"/>
      <point x="27.5" y="1154.875"/>
      <point x="27.5" y="628.375" type="curve" smooth="yes"/>
      <point x="27.5" y="189.125"/>
      <point x="382.0" y="-41.0"/>
    </contour>
    <contour>
      <point x="898.625" y="559.0" type="curve" smooth="yes"/>
      <point x="811.875" y="559.0"/>
      <point x="737.125" y="607.875"/>
      <point x="737.125" y="712.25" type="curve" smooth="yes"/>
      <point x="737.125" y="816.5"/>
      <point x="810.625" y="893.625"/>
      <point x="942.25" y="893.625" type="curve" smooth="yes"/>
      <point x="1008.625" y="893.625"/>
      <point x="1065.5" y="881.125"/>
      <point x="1101.125" y="857.625" type="curve"/>
      <point x="1136.625" y="694.0" type="line"/>
      <point x="1091.875" y="615.875"/>
      <point x="1013.5" y="559.0"/>
    </contour>
  </outline>
</glyph>
<glyph name="A" format="2">
  <advance width="1131.75"/>
  <unicode hex="0041"/>
  <anchor x="572.375" y="0.0" name="bottom"/>
  <anchor x="1072.375" y="2.5" name="ogonek"/>
  <anchor x="631.0" y="1325.5" name="top"/>
  <outline>
    <contour>
      <point x="345.625" y="-15.0" type="curve"/>
      <point x="356.625" y="69.75"/>
      <point x="385.5" y="230.5"/>
      <point x="417.875" y="378.75" type="curve"/>
      <point x="455.875" y="386.75"/>
      <point x="649.5" y="402.0"/>
      <point x="755.5" y="403.25" type="curve"/>
      <point x="759.625" y="293.875"/>
      <point x="768.5" y="80.0"/>
      <point x="774.125" y="-15.0" type="curve"/>
      <point x="864.375" y="-15.0"/>
      <point x="1012.25" y="-7.0"/>
      <point x="1072.375" y="2.5" type="curve"/>
      <point x="1018.875" y="722.25"/>
      <point x="965.375" y="1089.0"/>
      <point x="913.75" y="1323.0" type="curve"/>
      <point x="850.5" y="1330.75"/>
      <point x="784.25" y="1334.625"/>
      <point x="719.875" y="1334.625" type="curve" smooth="yes"/>
      <point x="596.375" y="1334.625"/>
      <point x="467.125" y="1321.0"/>
      <point x="349.75" y="1305.25" type="curve"/>
      <point x="254.125" y="961.0"/>
      <point x="88.75" y="231.25"/>
      <point x="48.125" y="-3.875" type="curve"/>
      <point x="120.75" y="-8.875"/>
      <point x="284.875" y="-15.0"/>
    </contour>
    <contour>
      <point x="454.375" y="621.0" type="curve"/>
      <point x="484.75" y="784.75"/>
      <point x="531.0" y="1009.25"/>
      <point x="547.625" y="1083.5" type="curve"/>
      <point x="574.0" y="1087.0"/>
      <point x="679.125" y="1095.0"/>
      <point x="716.875" y="1095.0" type="curve"/>
      <point x="727.75" y="1021.0"/>
      <point x="744.375" y="711.875"/>
      <point x="748.625" y="646.125" type="curve"/>
      <point x="668.75" y="643.875"/>
      <point x="508.375" y="631.375"/>
    </contour>
  </outline>
</glyph>
<glyph name="B" format="2">
  <advance width="1174.0"/>
  <unicode hex="0042"/>
  <anchor x="587.0" y="0.0" name="bottom"/>
  <anchor x="587.0" y="1291.0" name="top"/>
  <outline>
    <contour>
      <point x="121.125" y="21.375" type="curve"/>
      <point x="182.75" y="8.5"/>
      <point x="271.625" y="2.75"/>
      <point x="363.75" y="2.75" type="curve" smooth="yes"/>
      <point x="777.0" y="2.75"/>
      <point x="1077.875" y="72.125"/>
      <point x="1077.875" y="422.25" type="curve" smooth="yes"/>
      <point x="1077.875" y="588.5"/>
      <point x="949.75" y="700.375"/>
      <point x="773.75" y="709.75" type="curve" smooth="yes"/>
      <point x="763.25" y="710.375"/>
      <point x="756.25" y="710.375"/>
      <point x="749.625" y="710.0" type="curve"/>
      <point x="850.0" y="730.625"/>
      <point x="975.75" y="847.875"/>
      <point x="975.75" y="1003.75" type="curve" smooth="yes"/>
      <point x="975.75" y="1220.125"/>
      <point x="811.25" y="1306.0"/>
      <point x="582.5" y="1306.0" type="curve" smooth="yes"/>
      <point x="421.875" y="1306.0"/>
      <point x="246.5" y="1293.0"/>
      <point x="143.875" y="1285.0" type="curve"/>
      <point x="143.875" y="1256.0"/>
      <point x="121.125" y="203.0"/>
    </contour>
    <contour>
      <point x="410.125" y="263.125" type="curve"/>
      <point x="407.125" y="568.125" type="line"/>
      <point x="451.75" y="573.125"/>
      <point x="532.875" y="575.125"/>
      <point x="566.875" y="575.125" type="curve" smooth="yes"/>
      <point x="728.75" y="575.125"/>
      <point x="818.375" y="534.0"/>
      <point x="818.375" y="434.875" type="curve" smooth="yes"/>
      <point x="818.375" y="293.875"/>
      <point x="634.5" y="262.5"/>
      <point x="459.75" y="262.5" type="curve" smooth="yes"/>
      <point x="438.75" y="262.5"/>
      <point x="420.875" y="262.5"/>
    </contour>
    <contour>
      <point x="403.25" y="790.625" type="curve"/>
      <point x="398.5" y="1090.375" type="line"/>
      <point x="441.0" y="1096.125"/>
      <point x="511.25" y="1104.75"/>
      <point x="568.25" y="1104.75" type="curve" smooth="yes"/>
      <point x="669.125" y="1104.75"/>
      <point x="738.125" y="1063.125"/>
      <point x="738.125" y="966.75" type="curve" smooth="yes"/>
      <point x="738.125" y="886.25"/>
      <point x="665.5" y="829.25"/>
      <point x="587.25" y="812.0" type="curve" smooth="yes"/>
      <point x="548.875" y="795.125"/>
      <point x="499.375" y="791.375"/>
    </contour>
  </outline>
</glyph>
<glyph name="C" format="2">
  <advance width="1137.0"/>
  <unicode hex="0043"/>
  <anchor x="569.0" y="0.0" name="bottom"/>
  <anchor x="557.75" y="1294.75" name="top"/>
  <outline>
    <contour>
      <point x="1086.5" y="242.75" type="curve"/>
      <point x="1049.125" y="304.625"/>
      <point x="951.0" y="395.75"/>
      <point x="889.25" y="438.625" type="curve"/>
      <point x="819.75" y="356.625"/>
      <point x="722.375" y="270.75"/>
      <point x="594.5" y="270.75" type="curve" smooth="yes"/>
      <point x="436.5" y="270.75"/>
      <point x="343.0" y="454.875"/>
      <point x="343.0" y="682.625" type="curve" smooth="yes"/>
      <point x="343.0" y="936.125"/>
      <point x="453.75" y="1079.125"/>
      <point x="597.625" y="1079.125" type="curve" smooth="yes"/>
      <point x="767.125" y="1079.125"/>
      <point x="835.625" y="943.125"/>
      <point x="849.125" y="910.5" type="curve"/>
      <point x="906.75" y="946.5"/>
      <point x="1013.625" y="1026.5"/>
      <point x="1060.5" y="1078.625" type="curve"/>
      <point x="968.875" y="1240.0"/>
      <point x="790.0" y="1326.0"/>
      <point x="594.75" y="1326.0" type="curve" smooth="yes"/>
      <point x="237.625" y="1326.0"/>
      <point x="40.0" y="1043.375"/>
      <point x="40.0" y="665.375" type="curve" smooth="yes"/>
      <point x="40.0" y="277.375"/>
      <point x="240.5" y="-11.375"/>
      <point x="599.625" y="-11.375" type="curve" smooth="yes"/>
      <point x="818.5" y="-11.375"/>
      <point x="985.5" y="112.0"/>
    </contour>
  </outline>
</glyph>
<glyph name="D" format="2">
  <advance width="1198.0"/>
  <unicode hex="0044"/>
  <anchor x="599.0" y="0.0" name="bottom"/>
  <anchor x="325.0" y="646.0" name="center"/>
  <anchor x="521.375" y="1291.0" name="top"/>
  <outline>
    <contour>
      <point x="182.375" y="-31.375" type="curve"/>
      <point x="810.625" y="-24.25"/>
      <point x="1081.0" y="107.0"/>
      <point x="1081.0" y="638.25" type="curve" smooth="yes"/>
      <point x="1081.0" y="1095.75"/>
      <point x="916.25" y="1325.0"/>
      <point x="429.25" y="1325.0" type="curve" smooth="yes"/>
      <point x="309.625" y="1325.0"/>
      <point x="144.25" y="1308.625"/>
      <point x="71.375" y="1299.0" type="curve"/>
      <point x="78.0" y="1195.5"/>
      <point x="156.0" y="193.375"/>
    </contour>
    <contour>
      <point x="443.375" y="258.0" type="curve"/>
      <point x="421.75" y="506.375"/>
      <point x="398.75" y="833.25"/>
      <point x="382.125" y="1080.375" type="curve"/>
      <point x="406.75" y="1082.125"/>
      <point x="438.75" y="1082.875"/>
      <point x="465.875" y="1082.875" type="curve" smooth="yes"/>
      <point x="715.125" y="1082.875"/>
      <point x="798.25" y="873.375"/>
      <point x="798.25" y="623.0" type="curve" smooth="yes"/>
      <point x="798.25" y="389.875"/>
      <point x="711.375" y="270.375"/>
    </contour>
  </outline>
</glyph>
<glyph name="E" format="2">
  <advance width="957.0"/>
  <unicode hex="0045"/>
  <anchor x="491.5" y="0.0" name="bottom"/>
  <anchor x="691.125" y="0.375" name="ogonek"/>
  <anchor x="491.5" y="1317.25" name="top"/>
  <anchor x="32.5" y="1291.0" name="topleft"/>
  <outline>
    <contour>
      <point x="817.25" y="-12.75" type="curve"/>
      <point x="826.625" y="17.125"/>
      <point x="845.75" y="181.5"/>
      <point x="846.5" y="275.125" type="curve"/>
      <point x="787.375" y="279.875"/>
      <point x="667.625" y="286.25"/>
      <point x="556.75" y="286.25" type="curve" smooth="yes"/>
      <point x="481.875" y="286.25"/>
      <point x="392.375" y="285.875"/>
      <point x="371.125" y="285.125" type="curve"/>
      <point x="371.125" y="353.625"/>
      <point x="373.0" y="569.75"/>
      <point x="374.25" y="606.875" type="curve"/>
      <point x="428.375" y="608.0"/>
      <point x="662.375" y="599.625"/>
      <point x="708.625" y="597.75" type="curve"/>
      <point x="710.0" y="827.0" type="line"/>
      <point x="621.125" y="825.75"/>
      <point x="457.375" y="819.375"/>
      <point x="380.625" y="818.25" type="curve"/>
      <point x="380.625" y="862.0"/>
      <point x="381.75" y="1016.5"/>
      <point x="385.5" y="1060.125" type="curve"/>
      <point x="840.25" y="1097.125" type="line"/>
      <point x="847.625" y="1178.5"/>
      <point x="853.0" y="1247.75"/>
      <point x="853.0" y="1325.5" type="curve"/>
      <point x="798.0" y="1325.5"/>
      <point x="480.375" y="1317.125"/>
      <point x="110.125" y="1251.0" type="curve"/>
      <point x="104.75" y="1162.75"/>
      <point x="98.25" y="945.375"/>
      <point x="98.25" y="636.25" type="curve" smooth="yes"/>
      <point x="98.25" y="451.125"/>
      <point x="101.875" y="240.125"/>
      <point x="110.125" y="20.125" type="curve"/>
      <point x="210.0" y="15.875"/>
      <point x="317.625" y="11.25"/>
      <point x="417.5" y="6.875" type="curve" smooth="yes"/>
      <point x="553.75" y="2.5"/>
      <point x="682.125" y="-4.375"/>
    </contour>
  </outline>
</glyph>
<glyph name="F" format="2">
  <advance width="949.0"/>
  <unicode hex="0046"/>
  <anchor x="475.0" y="0.0" name="bottom"/>
  <anchor x="475.0" y="1291.0" name="top"/>
  <outline>
    <contour>
      <point x="444.625" y="-9.75" type="line"/>
      <point x="438.375" y="175.625"/>
      <point x="423.875" y="402.625"/>
      <point x="408.5" y="569.875" type="curve"/>
      <point x="521.75" y="569.875"/>
      <point x="680.25" y="559.25"/>
      <point x="774.125" y="549.0" type="curve"/>
      <point x="780.125" y="628.75"/>
      <point x="781.25" y="705.875"/>
      <point x="781.25" y="774.75" type="curve"/>
      <point x="734.25" y="783.0"/>
      <point x="551.0" y="801.875"/>
      <point x="389.375" y="801.875" type="curve"/>
      <point x="385.25" y="883.125"/>
      <point x="378.375" y="1001.0"/>
      <point x="372.125" y="1059.125" type="curve"/>
      <point x="587.5" y="1059.125"/>
      <point x="782.0" y="1042.5"/>
      <point x="858.875" y="1036.875" type="curve"/>
      <point x="858.875" y="1099.375"/>
      <point x="854.75" y="1197.625"/>
      <point x="847.625" y="1280.0" type="curve"/>
      <point x="755.125" y="1296.375"/>
      <point x="640.125" y="1308.375"/>
      <point x="494.375" y="1309.875" type="curve" smooth="yes"/>
      <point x="378.125" y="1311.0"/>
      <point x="245.375" y="1310.125"/>
      <point x="99.5" y="1303.25" type="curve"/>
      <point x="118.375" y="892.625"/>
      <point x="137.625" y="437.875"/>
      <point x="143.875" y="6.125" type="curve"/>
    </contour>
  </outline>
</glyph>
<glyph name="G" format="2">
  <advance width="1275.0"/>
  <unicode hex="0047"/>
  <anchor x="653.0" y="0.0" name="bottom"/>
  <anchor x="653.0" y="1291.0" name="top"/>
  <outline>
    <contour>
      <point x="692.0" y="-48.0" type="curve" smooth="yes"/>
      <point x="1030.0" y="-48.0"/>
      <point x="1187.125" y="189.875"/>
      <point x="1187.125" y="486.125" type="curve" smooth="yes"/>
      <point x="1187.125" y="538.125"/>
      <point x="1182.5" y="604.625"/>
      <point x="1170.5" y="655.75" type="curve"/>
      <point x="1016.875" y="693.625"/>
      <point x="746.625" y="724.875"/>
      <point x="603.0" y="728.625" type="curve"/>
      <point x="597.375" y="680.0"/>
      <point x="594.75" y="573.25"/>
      <point x="595.5" y="524.625" type="curve"/>
      <point x="674.0" y="521.625"/>
      <point x="871.375" y="496.625"/>
      <point x="921.625" y="484.875" type="curve"/>
      <point x="923.625" y="469.0"/>
      <point x="924.625" y="450.0"/>
      <point x="924.625" y="430.375" type="curve" smooth="yes"/>
      <point x="924.625" y="308.75"/>
      <point x="851.125" y="200.375"/>
      <point x="694.375" y="200.375" type="curve" smooth="yes"/>
      <point x="461.0" y="200.375"/>
      <point x="351.5" y="374.75"/>
      <point x="351.5" y="635.5" type="curve" smooth="yes"/>
      <point x="351.5" y="899.75"/>
      <point x="484.875" y="1068.0"/>
      <point x="639.5" y="1068.0" type="curve" smooth="yes"/>
      <point x="762.5" y="1068.0"/>
      <point x="837.625" y="1016.0"/>
      <point x="895.25" y="928.125" type="curve"/>
      <point x="975.375" y="977.625"/>
      <point x="1081.5" y="1074.625"/>
      <point x="1113.0" y="1113.125" type="curve"/>
      <point x="1027.5" y="1241.5"/>
      <point x="851.75" y="1338.0"/>
      <point x="641.25" y="1338.0" type="curve" smooth="yes"/>
      <point x="274.125" y="1338.0"/>
      <point x="70.25" y="1051.0"/>
      <point x="70.25" y="646.0" type="curve" smooth="yes"/>
      <point x="70.25" y="211.5"/>
      <point x="293.5" y="-48.0"/>
    </contour>
  </outline>
</glyph>
<glyph name="H" format="2">
  <advance width="1094.0"/>
  <unicode hex="0048"/>
  <anchor x="547.0" y="0.0" name="bottom"/>
  <anchor x="522.625" y="1063.0" name="center"/>
  <anchor x="547.0" y="1291.0" name="top"/>
  <anchor x="20.0" y="1291.0" name="topleft"/>
  <outline>
    <contour>
      <point x="128.125" y="2.375" type="curve"/>
      <point x="190.75" y="2.375"/>
      <point x="355.0" y="8.25"/>
      <point x="408.875" y="15.25" type="curve"/>
      <point x="407.5" y="64.375"/>
      <point x="392.5" y="371.875"/>
      <point x="385.5" y="532.875" type="curve"/>
      <point x="449.125" y="532.875"/>
      <point x="611.875" y="536.625"/>
      <point x="680.625" y="538.625" type="curve"/>
      <point x="680.625" y="395.0"/>
      <point x="681.75" y="179.625"/>
      <point x="681.75" y="0.5" type="curve"/>
      <point x="778.625" y="0.5"/>
      <point x="895.125" y="4.0"/>
      <point x="936.875" y="8.25" type="curve"/>
      <point x="936.625" y="100.5"/>
      <point x="940.0" y="291.5"/>
      <point x="946.25" y="487.0" type="curve" smooth="yes"/>
      <point x="953.75" y="801.375"/>
      <point x="971.875" y="1189.75"/>
      <point x="987.875" y="1299.0" type="curve"/>
      <point x="952.5" y="1303.625"/>
      <point x="877.75" y="1306.25"/>
      <point x="804.375" y="1306.25" type="curve" smooth="yes"/>
      <point x="767.875" y="1306.25"/>
      <point x="727.125" y="1305.625"/>
      <point x="700.625" y="1304.0" type="curve"/>
      <point x="692.25" y="1160.75"/>
      <point x="686.375" y="880.25"/>
      <point x="682.625" y="786.875" type="curve"/>
      <point x="618.25" y="785.75"/>
      <point x="448.0" y="778.5"/>
      <point x="374.625" y="770.5" type="curve"/>
      <point x="372.375" y="810.0"/>
      <point x="368.75" y="934.375"/>
      <point x="368.75" y="1042.375" type="curve" smooth="yes"/>
      <point x="368.75" y="1124.0"/>
      <point x="369.25" y="1222.25"/>
      <point x="372.25" y="1294.0" type="curve"/>
      <point x="301.625" y="1294.0"/>
      <point x="118.75" y="1285.0"/>
      <point x="93.5" y="1282.0" type="curve"/>
      <point x="89.5" y="1232.125"/>
      <point x="87.875" y="1156.625"/>
      <point x="87.875" y="1065.5" type="curve" smooth="yes"/>
      <point x="87.875" y="717.625"/>
      <point x="111.625" y="147.75"/>
    </contour>
  </outline>
</glyph>
<glyph name="I" format="2">
  <advance width="573.75"/>
  <unicode hex="0049"/>
  <anchor x="298.25" y="0.0" name="bottom"/>
  <anchor x="412.5" y="-15.0" name="ogonek"/>
  <anchor x="298.25" y="1291.0" name="top"/>
  <anchor x="54.875" y="1291.0" name="topleft"/>
  <outline>
    <contour>
      <point x="412.5" y="-15.0" type="curve"/>
      <point x="425.625" y="76.0"/>
      <point x="429.375" y="372.0"/>
      <point x="429.375" y="561.125" type="curve" smooth="yes"/>
      <point x="429.375" y="797.5"/>
      <point x="421.5" y="1096.125"/>
      <point x="412.375" y="1321.875" type="curve"/>
      <point x="342.5" y="1321.875"/>
      <point x="188.25" y="1317.75"/>
      <point x="149.0" y="1315.75" type="curve"/>
      <point x="143.875" y="1054.0"/>
      <point x="141.375" y="810.625"/>
      <point x="141.375" y="605.875" type="curve" smooth="yes"/>
      <point x="141.375" y="400.5"/>
      <point x="145.625" y="131.25"/>
      <point x="150.0" y="-3.5" type="curve"/>
      <point x="223.875" y="-13.625"/>
      <point x="344.875" y="-15.0"/>
    </contour>
  </outline>
</glyph>
<glyph name="J" format="2">
  <advance width="1178.0"/>
  <unicode hex="004A"/>
  <anchor x="589.0" y="0.0" name="bottom"/>
  <anchor x="809.25" y="1301.125" name="top"/>
  <outline>
    <contour>
      <point x="530.625" y="-19.0" type="curve" smooth="yes"/>
      <point x="840.75" y="-19.0"/>
      <point x="1020.75" y="163.875"/>
      <point x="1020.75" y="603.125" type="curve" smooth="yes"/>
      <point x="1020.75" y="783.125"/>
      <point x="999.375" y="1115.0"/>
      <point x="984.0" y="1291.25" type="curve"/>
      <point x="942.875" y="1296.625"/>
      <point x="900.625" y="1298.625"/>
      <point x="847.625" y="1298.625" type="curve" smooth="yes"/>
      <point x="797.375" y="1298.625"/>
      <point x="735.25" y="1292.25"/>
      <point x="690.5" y="1283.0" type="curve"/>
      <point x="693.875" y="1261.0"/>
      <point x="733.5" y="823.25"/>
      <point x="733.5" y="616.625" type="curve" smooth="yes"/>
      <point x="733.5" y="380.75"/>
      <point x="683.375" y="251.125"/>
      <point x="547.375" y="251.125" type="curve" smooth="yes"/>
      <point x="418.5" y="251.125"/>
      <point x="321.75" y="376.125"/>
      <point x="282.5" y="531.125" type="curve"/>
      <point x="216.0" y="506.0"/>
      <point x="62.875" y="434.0"/>
      <point x="19.25" y="401.875" type="curve"/>
      <point x="75.0" y="146.0"/>
      <point x="257.0" y="-19.0"/>
    </contour>
  </outline>
</glyph>
<glyph name="K" format="2">
  <advance width="1094.75"/>
  <unicode hex="004B"/>
  <anchor x="558.0" y="0.0" name="bottom"/>
  <anchor x="558.0" y="1291.0" name="top"/>
  <outline>
    <contour>
      <point x="129.625" y="-32.0" type="curve"/>
      <point x="247.375" y="-19.5"/>
      <point x="387.75" y="-5.125"/>
      <point x="422.375" y="-2.75" type="curve"/>
      <point x="422.375" y="33.875"/>
      <point x="406.5" y="312.875"/>
      <point x="394.375" y="488.5" type="curve"/>
      <point x="413.375" y="498.5"/>
      <point x="437.75" y="514.875"/>
      <point x="459.75" y="531.875" type="curve"/>
      <point x="588.625" y="381.625"/>
      <point x="760.0" y="70.875"/>
      <point x="790.5" y="-2.375" type="curve"/>
      <point x="868.25" y="23.125"/>
      <point x="994.0" y="87.625"/>
      <point x="1039.875" y="119.25" type="curve"/>
      <point x="1007.125" y="192.875"/>
      <point x="805.625" y="512.0"/>
      <point x="635.125" y="698.625" type="curve"/>
      <point x="817.75" y="849.5"/>
      <point x="986.25" y="1083.125"/>
      <point x="1022.875" y="1157.75" type="curve"/>
      <point x="983.5" y="1177.875"/>
      <point x="882.5" y="1237.0"/>
      <point x="793.375" y="1305.75" type="curve"/>
      <point x="670.5" y="1078.25"/>
      <point x="491.5" y="866.125"/>
      <point x="376.5" y="771.125" type="curve"/>
      <point x="366.25" y="958.25"/>
      <point x="355.25" y="1230.875"/>
      <point x="352.0" y="1297.0" type="curve"/>
      <point x="325.0" y="1302.125"/>
      <point x="273.5" y="1306.875"/>
      <point x="218.25" y="1306.875" type="curve" smooth="yes"/>
      <point x="171.875" y="1306.875"/>
      <point x="113.25" y="1303.375"/>
      <point x="74.0" y="1296.0" type="curve"/>
      <point x="96.25" y="922.0"/>
      <point x="129.625" y="175.875"/>
    </contour>
  </outline>
</glyph>
<glyph name="L" format="2">
  <advance width="961.0"/>
  <unicode hex="004C"/>
  <anchor x="503.5" y="0.0" name="bottom"/>
  <anchor x="503.5" y="646.0" name="center"/>
  <anchor x="271.125" y="1299.75" name="top"/>
  <anchor x="551.75" y="908.375" name="topright"/>
  <outline>
    <contour>
      <point x="114.75" y="20.125" type="curve"/>
      <point x="208.625" y="13.25"/>
      <point x="320.75" y="9.625"/>
      <point x="439.5" y="11.5" type="curve" smooth="yes"/>
      <point x="578.125" y="13.375"/>
      <point x="735.75" y="22.5"/>
      <point x="892.25" y="41.625" type="curve"/>
      <point x="893.75" y="122.875"/>
      <point x="889.25" y="266.5"/>
      <point x="882.5" y="314.125" type="curve"/>
      <point x="720.125" y="314.125"/>
      <point x="550.125" y="307.0"/>
      <point x="399.5" y="298.125" type="curve"/>
      <point x="404.0" y="348.75"/>
      <point x="408.75" y="430.0"/>
      <point x="411.25" y="515.75" type="curve" smooth="yes"/>
      <point x="423.125" y="811.125"/>
      <point x="428.375" y="1136.5"/>
      <point x="422.375" y="1292.0" type="curve"/>
      <point x="403.5" y="1295.5"/>
      <point x="342.375" y="1298.5"/>
      <point x="303.0" y="1298.5" type="curve" smooth="yes"/>
      <point x="227.5" y="1298.5"/>
      <point x="148.0" y="1291.25"/>
      <point x="114.75" y="1286.5" type="curve"/>
      <point x="121.0" y="1144.5"/>
      <point x="127.375" y="882.75"/>
      <point x="127.375" y="629.625" type="curve" smooth="yes"/>
      <point x="127.375" y="375.875"/>
      <point x="121.0" y="130.125"/>
    </contour>
  </outline>
</glyph>
<glyph name="M" format="2">
  <advance width="1449.625"/>
  <unicode hex="004D"/>
  <anchor x="737.25" y="0.0" name="bottom"/>
  <anchor x="737.25" y="1291.0" name="top"/>
  <outline>
    <contour>
      <point x="116.125" y="-3.875" type="curve"/>
      <point x="208.375" y="-3.875"/>
      <point x="330.375" y="-1.5"/>
      <point x="393.875" y="1.125" type="curve"/>
      <point x="393.875" y="52.625"/>
      <point x="393.125" y="552.0"/>
      <point x="392.0" y="875.375" type="curve"/>
      <point x="441.25" y="702.75"/>
      <point x="605.5" y="102.375"/>
      <point x="616.75" y="47.875" type="curve"/>
      <point x="661.25" y="39.125"/>
      <point x="736.25" y="37.25"/>
      <point x="803.0" y="37.25" type="curve"/>
      <point x="842.25" y="117.625"/>
      <point x="1029.375" y="640.375"/>
      <point x="1074.25" y="808.125" type="curve"/>
      <point x="1072.875" y="740.25"/>
      <point x="1071.0" y="571.625"/>
      <point x="1067.875" y="428.0" type="curve" smooth="yes"/>
      <point x="1064.75" y="272.125"/>
      <point x="1058.5" y="115.25"/>
      <point x="1049.625" y="13.125" type="curve"/>
      <point x="1104.375" y="8.875"/>
      <point x="1225.5" y="1.875"/>
      <point x="1311.875" y="1.875" type="curve"/>
      <point x="1324.375" y="152.125"/>
      <point x="1334.75" y="438.625"/>
      <point x="1334.75" y="693.125" type="curve" smooth="yes"/>
      <point x="1334.75" y="911.375"/>
      <point x="1325.875" y="1119.625"/>
      <point x="1299.25" y="1241.875" type="curve"/>
      <point x="1222.25" y="1254.5"/>
      <point x="1064.125" y="1259.5"/>
      <point x="989.25" y="1259.5" type="curve"/>
      <point x="959.25" y="1120.75"/>
      <point x="797.25" y="593.25"/>
      <point x="736.875" y="403.5" type="curve"/>
      <point x="693.625" y="601.5"/>
      <point x="501.625" y="1245.0"/>
      <point x="495.0" y="1262.0" type="curve"/>
      <point x="481.625" y="1262.0"/>
      <point x="255.0" y="1260.375"/>
      <point x="141.75" y="1248.5" type="curve"/>
      <point x="125.5" y="927.25"/>
      <point x="116.125" y="276.75"/>
    </contour>
  </outline>
</glyph>
<glyph name="N" format="2">
  <advance width="1282.0"/>
  <unicode hex="004E"/>
  <anchor x="641.0" y="0.0" name="bottom"/>
  <anchor x="641.0" y="1291.0" name="top"/>
  <outline>
    <contour>
      <point x="432.75" y="-6.25" type="curve"/>
      <point x="432.75" y="125.125"/>
      <point x="420.625" y="706.5"/>
      <point x="409.625" y="820.25" type="curve"/>
      <point x="540.375" y="587.5"/>
      <point x="815.75" y="87.0"/>
      <point x="858.25" y="8.0" type="curve"/>
      <point x="893.625" y="2.0"/>
      <point x="948.0" y="0.125"/>
      <point x="1002.5" y="0.125" type="curve" smooth="yes"/>
      <point x="1040.125" y="0.125"/>
      <point x="1077.875" y="0.75"/>
      <point x="1112.25" y="2.375" type="curve"/>
      <point x="1125.875" y="46.875"/>
      <point x="1138.125" y="293.5"/>
      <point x="1138.125" y="533.0" type="curve" smooth="yes"/>
      <point x="1138.125" y="753.5"/>
      <point x="1129.875" y="1064.375"/>
      <point x="1118.125" y="1221.625" type="curve"/>
      <point x="1068.75" y="1237.25"/>
      <point x="917.0" y="1251.25"/>
      <point x="844.0" y="1251.25" type="curve"/>
      <point x="885.75" y="412.625" type="line"/>
      <point x="768.5" y="669.0"/>
      <point x="599.75" y="978.5"/>
      <point x="415.75" y="1246.875" type="curve"/>
      <point x="340.375" y="1259.0"/>
      <point x="173.875" y="1267.75"/>
      <point x="124.25" y="1267.75" type="curve"/>
      <point x="130.75" y="1161.625"/>
      <point x="132.625" y="957.75"/>
      <point x="132.625" y="762.875" type="curve" smooth="yes"/>
      <point x="132.625" y="459.875"/>
      <point x="133.0" y="52.125"/>
      <point x="133.25" y="9.75" type="curve"/>
      <point x="189.5" y="3.5"/>
      <point x="328.875" y="-7.0"/>
    </contour>
  </outline>
</glyph>
<glyph name="O" format="2">
  <advance width="1354.0"/>
  <unicode hex="004F"/>
  <anchor x="677.0" y="0.0" name="bottom"/>
  <anchor x="613.75" y="646.0" name="center"/>
  <anchor x="899.0" y="0.0" name="ogonek"/>
  <anchor x="677.0" y="1291.0" name="top"/>
  <anchor x="20.0" y="1291.0" name="topleft"/>
  <anchor x="998.0" y="1183.625" name="topright"/>
  <outline>
    <contour>
      <point x="662.375" y="-51.0" type="curve" smooth="yes"/>
      <point x="1073.875" y="-51.0"/>
      <point x="1248.875" y="268.875"/>
      <point x="1248.875" y="628.5" type="curve" smooth="yes"/>
      <point x="1248.875" y="1007.75"/>
      <point x="1079.5" y="1320.0"/>
      <point x="662.375" y="1320.0" type="curve" smooth="yes"/>
      <point x="284.125" y="1320.0"/>
      <point x="77.0" y="1032.0"/>
      <point x="77.0" y="629.25" type="curve" smooth="yes"/>
      <point x="77.0" y="244.875"/>
      <point x="255.375" y="-51.0"/>
    </contour>
    <contour>
      <point x="663.375" y="228.875" type="curve" smooth="yes"/>
      <point x="445.25" y="228.875"/>
      <point x="357.5" y="406.5"/>
      <point x="357.5" y="632.0" type="curve" smooth="yes"/>
      <point x="357.5" y="887.125"/>
      <point x="470.125" y="1086.5"/>
      <point x="680.0" y="1086.5" type="curve" smooth="yes"/>
      <point x="917.375" y="1086.5"/>
      <point x="993.125" y="875.5"/>
      <point x="993.125" y="652.125" type="curve" smooth="yes"/>
      <point x="993.125" y="429.0"/>
      <point x="887.625" y="228.875"/>
    </contour>
  </outline>
</glyph>
<glyph name="P" format="2">
  <advance width="1010.0"/>
  <unicode hex="0050"/>
  <anchor x="505.0" y="0.0" name="bottom"/>
  <anchor x="505.0" y="1291.0" name="top"/>
  <outline>
    <contour>
      <point x="80.625" y="-12.25" type="curve"/>
      <point x="143.125" y="-16.375"/>
      <point x="307.25" y="-19.25"/>
      <point x="365.25" y="-19.25" type="curve"/>
      <point x="367.125" y="152.625"/>
      <point x="376.875" y="480.25"/>
      <point x="378.75" y="557.375" type="curve"/>
      <point x="413.625" y="548.75"/>
      <point x="475.375" y="542.625"/>
      <point x="517.0" y="542.625" type="curve" smooth="yes"/>
      <point x="794.875" y="542.625"/>
      <point x="935.625" y="688.625"/>
      <point x="935.625" y="944.375" type="curve" smooth="yes"/>
      <point x="935.625" y="1185.375"/>
      <point x="765.125" y="1289.0"/>
      <point x="505.75" y="1289.0" type="curve" smooth="yes"/>
      <point x="361.25" y="1289.0"/>
      <point x="236.125" y="1276.25"/>
      <point x="122.875" y="1253.0" type="curve"/>
      <point x="102.25" y="1026.25"/>
      <point x="80.625" y="150.625"/>
    </contour>
    <contour>
      <point x="374.625" y="787.0" type="curve"/>
      <point x="375.375" y="825.0"/>
      <point x="377.375" y="1054.25"/>
      <point x="376.75" y="1074.25" type="curve"/>
      <point x="432.375" y="1081.375"/>
      <point x="480.625" y="1085.5"/>
      <point x="522.25" y="1085.5" type="curve" smooth="yes"/>
      <point x="630.25" y="1085.5"/>
      <point x="701.125" y="1052.625"/>
      <point x="701.125" y="942.375" type="curve" smooth="yes"/>
      <point x="701.125" y="822.375"/>
      <point x="602.875" y="776.25"/>
      <point x="494.75" y="776.25" type="curve" smooth="yes"/>
      <point x="453.375" y="776.25"/>
      <point x="407.75" y="781.125"/>
    </contour>
  </outline>
</glyph>
<glyph name="Q" format="2">
  <advance width="1291.0"/>
  <unicode hex="0051"/>
  <anchor x="646.0" y="0.0" name="bottom"/>
  <anchor x="646.0" y="1291.0" name="top"/>
  <outline>
    <contour>
      <point x="1091.625" y="-128.5" type="curve"/>
      <point x="1141.5" y="-87.5"/>
      <point x="1201.0" y="-22.375"/>
      <point x="1234.25" y="32.375" type="curve"/>
      <point x="1160.125" y="62.375"/>
      <point x="1074.75" y="112.625"/>
      <point x="1022.25" y="172.125" type="curve"/>
      <point x="1145.5" y="278.375"/>
      <point x="1180.25" y="458.125"/>
      <point x="1180.25" y="656.125" type="curve" smooth="yes"/>
      <point x="1180.25" y="1031.375"/>
      <point x="1009.75" y="1299.0"/>
      <point x="622.125" y="1299.0" type="curve" smooth="yes"/>
      <point x="268.875" y="1299.0"/>
      <point x="61.875" y="1007.25"/>
      <point x="61.875" y="627.75" type="curve" smooth="yes"/>
      <point x="61.875" y="277.5"/>
      <point x="263.125" y="-10.125"/>
      <point x="602.5" y="-10.125" type="curve" smooth="yes"/>
      <point x="728.125" y="-10.125"/>
      <point x="811.625" y="36.5"/>
      <point x="841.625" y="60.5" type="curve"/>
      <point x="874.0" y="19.5"/>
      <point x="1029.625" y="-102.875"/>
    </contour>
    <contour>
      <point x="714.875" y="265.0" type="curve"/>
      <point x="704.125" y="254.375"/>
      <point x="672.875" y="231.875"/>
      <point x="607.375" y="231.875" type="curve" smooth="yes"/>
      <point x="405.625" y="231.875"/>
      <point x="328.75" y="451.375"/>
      <point x="328.75" y="667.625" type="curve" smooth="yes"/>
      <point x="328.75" y="901.625"/>
      <point x="433.75" y="1076.0"/>
      <point x="632.875" y="1076.0" type="curve" smooth="yes"/>
      <point x="847.375" y="1076.0"/>
      <point x="937.25" y="893.5"/>
      <point x="937.25" y="633.875" type="curve" smooth="yes"/>
      <point x="937.25" y="493.375"/>
      <point x="914.0" y="400.375"/>
      <point x="878.875" y="348.625" type="curve"/>
      <point x="825.875" y="406.375"/>
      <point x="778.125" y="503.75"/>
      <point x="751.0" y="568.0" type="curve"/>
      <point x="702.375" y="539.625"/>
      <point x="620.75" y="484.5"/>
      <point x="589.125" y="458.125" type="curve"/>
      <point x="615.25" y="398.0"/>
      <point x="677.5" y="298.875"/>
    </contour>
  </outline>
</glyph>
<glyph name="R" format="2">
  <advance width="1094.0"/>
  <unicode hex="0052"/>
  <anchor x="547.0" y="0.0" name="bottom"/>
  <anchor x="498.375" y="1325.75" name="top"/>
  <outline>
    <contour>
      <point x="145.25" y="-25.875" type="curve"/>
      <point x="240.375" y="-25.875"/>
      <point x="369.125" y="-22.625"/>
      <point x="439.125" y="-7.75" type="curve"/>
      <point x="433.5" y="137.125"/>
      <point x="407.75" y="512.875"/>
      <point x="398.875" y="583.875" type="curve"/>
      <point x="433.0" y="584.5"/>
      <point x="501.0" y="591.75"/>
      <point x="557.625" y="606.125" type="curve"/>
      <point x="596.875" y="511.375"/>
      <point x="719.25" y="133.625"/>
      <point x="748.125" y="-18.75" type="curve"/>
      <point x="768.125" y="-17.125"/>
      <point x="952.625" y="21.375"/>
      <point x="1021.0" y="63.875" type="curve"/>
      <point x="987.125" y="187.25"/>
      <point x="856.125" y="533.25"/>
      <point x="779.125" y="668.75" type="curve"/>
      <point x="901.0" y="723.5"/>
      <point x="973.5" y="855.75"/>
      <point x="973.5" y="993.375" type="curve" smooth="yes"/>
      <point x="973.5" y="1268.375"/>
      <point x="749.875" y="1327.25"/>
      <point x="546.25" y="1327.25" type="curve" smooth="yes"/>
      <point x="409.375" y="1327.25"/>
      <point x="179.875" y="1312.25"/>
      <point x="78.25" y="1303.0" type="curve"/>
      <point x="98.875" y="892.625"/>
      <point x="129.75" y="272.875"/>
    </contour>
    <contour>
      <point x="375.25" y="796.875" type="curve"/>
      <point x="371.875" y="844.875"/>
      <point x="354.125" y="1054.875"/>
      <point x="348.25" y="1112.25" type="curve"/>
      <point x="372.5" y="1115.25"/>
      <point x="471.625" y="1124.25"/>
      <point x="514.625" y="1124.25" type="curve" smooth="yes"/>
      <point x="635.5" y="1124.25"/>
      <point x="726.875" y="1112.0"/>
      <point x="726.875" y="985.5" type="curve" smooth="yes"/>
      <point x="726.875" y="892.375"/>
      <point x="680.625" y="840.5"/>
      <point x="531.5" y="811.25" type="curve" smooth="yes"/>
      <point x="467.0" y="799.375"/>
      <point x="422.125" y="796.875"/>
    </contour>
  </outline>
</glyph>
<glyph name="S" format="2">
  <advance width="1152.0"/>
  <unicode hex="0053"/>
  <anchor x="576.0" y="0.0" name="bottom"/>
  <anchor x="525.5" y="1331.5" name="top"/>
  <outline>
    <contour>
      <point x="562.375" y="-14.625" type="curve" smooth="yes"/>
      <point x="855.375" y="-14.625"/>
      <point x="1052.125" y="173.25"/>
      <point x="1052.125" y="414.25" type="curve" smooth="yes"/>
      <point x="1052.125" y="682.125"/>
      <point x="811.125" y="763.75"/>
      <point x="540.25" y="852.375" type="curve" smooth="yes"/>
      <point x="441.0" y="883.5"/>
      <point x="356.75" y="923.625"/>
      <point x="356.75" y="1006.5" type="curve" smooth="yes"/>
      <point x="356.75" y="1090.75"/>
      <point x="429.625" y="1138.125"/>
      <point x="531.25" y="1138.125" type="curve" smooth="yes"/>
      <point x="664.875" y="1138.125"/>
      <point x="780.875" y="1065.0"/>
      <point x="852.125" y="993.625" type="curve"/>
      <point x="895.625" y="1032.375"/>
      <point x="980.5" y="1125.25"/>
      <point x="1005.25" y="1164.75" type="curve"/>
      <point x="910.375" y="1276.25"/>
      <point x="729.25" y="1349.0"/>
      <point x="536.625" y="1349.0" type="curve" smooth="yes"/>
      <point x="295.5" y="1349.0"/>
      <point x="82.25" y="1231.375"/>
      <point x="82.25" y="1004.375" type="curve" smooth="yes"/>
      <point x="82.25" y="786.125"/>
      <point x="263.75" y="694.625"/>
      <point x="502.0" y="608.5" type="curve" smooth="yes"/>
      <point x="669.875" y="551.125"/>
      <point x="775.0" y="485.375"/>
      <point x="775.0" y="387.625" type="curve" smooth="yes"/>
      <point x="775.0" y="301.75"/>
      <point x="719.5" y="206.375"/>
      <point x="574.375" y="206.375" type="curve" smooth="yes"/>
      <point x="409.375" y="206.375"/>
      <point x="293.5" y="333.5"/>
      <point x="216.75" y="428.5" type="curve"/>
      <point x="165.875" y="402.0"/>
      <point x="43.5" y="295.0"/>
      <point x="26.5" y="269.25" type="curve"/>
      <point x="123.375" y="104.5"/>
      <point x="345.875" y="-14.625"/>
    </contour>
  </outline>
</glyph>
<glyph name="T" format="2">
  <advance width="1039.0"/>
  <unicode hex="0054"/>
  <anchor x="548.75" y="0.0" name="bottom"/>
  <anchor x="520.0" y="646.0" name="center"/>
  <anchor x="520.0" y="1291.0" name="top"/>
  <outline>
    <contour>
      <point x="51.625" y="1071.125" type="curve"/>
      <point x="148.0" y="1073.0"/>
      <point x="292.25" y="1077.875"/>
      <point x="389.0" y="1083.0" type="curve"/>
      <point x="388.375" y="1041.75"/>
      <point x="387.75" y="988.75"/>
      <point x="387.75" y="928.0" type="curve" smooth="yes"/>
      <point x="387.75" y="645.5"/>
      <point x="397.125" y="182.75"/>
      <point x="407.125" y="-14.0" type="curve"/>
      <point x="475.75" y="-14.0"/>
      <point x="631.75" y="-5.75"/>
      <point x="701.875" y="5.375" type="curve"/>
      <point x="699.5" y="57.375"/>
      <point x="664.375" y="915.25"/>
      <point x="658.625" y="1087.25" type="curve"/>
      <point x="750.75" y="1085.375"/>
      <point x="922.5" y="1083.875"/>
      <point x="975.125" y="1082.75" type="curve"/>
      <point x="984.5" y="1126.75"/>
      <point x="992.0" y="1219.125"/>
      <point x="990.5" y="1314.375" type="curve"/>
      <point x="874.75" y="1329.875"/>
      <point x="731.125" y="1335.125"/>
      <point x="584.375" y="1335.125" type="curve" smooth="yes"/>
      <point x="387.25" y="1335.125"/>
      <point x="184.25" y="1325.5"/>
      <point x="34.0" y="1315.375" type="curve"/>
      <point x="34.0" y="1282.125"/>
      <point x="40.75" y="1123.875"/>
    </contour>
  </outline>
</glyph>
<glyph name="U" format="2">
  <advance width="1212.0"/>
  <unicode hex="0055"/>
  <anchor x="606.0" y="0.0" name="bottom"/>
  <anchor x="765.875" y="0.0" name="ogonek"/>
  <anchor x="606.0" y="1326.25" name="top"/>
  <anchor x="1054.125" y="1174.0" name="topright"/>
  <outline>
    <contour>
      <point x="593.75" y="-33.0" type="curve" smooth="yes"/>
      <point x="1022.5" y="-33.0"/>
      <point x="1103.5" y="375.25"/>
      <point x="1103.5" y="904.875" type="curve" smooth="yes"/>
      <point x="1103.5" y="1044.25"/>
      <point x="1094.0" y="1193.875"/>
      <point x="1077.5" y="1303.5" type="curve"/>
      <point x="1048.5" y="1311.875"/>
      <point x="875.625" y="1328.75"/>
      <point x="782.125" y="1328.75" type="curve"/>
      <point x="798.75" y="1207.125"/>
      <point x="808.75" y="855.125"/>
      <point x="808.75" y="716.75" type="curve" smooth="yes"/>
      <point x="808.75" y="459.375"/>
      <point x="760.25" y="298.25"/>
      <point x="613.125" y="298.25" type="curve" smooth="yes"/>
      <point x="518.25" y="298.25"/>
      <point x="459.375" y="357.875"/>
      <point x="429.25" y="486.125" type="curve" smooth="yes"/>
      <point x="410.5" y="564.875"/>
      <point x="402.875" y="672.25"/>
      <point x="402.875" y="811.375" type="curve" smooth="yes"/>
      <point x="402.875" y="982.625"/>
      <point x="411.0" y="1190.0"/>
      <point x="424.875" y="1345.125" type="curve"/>
      <point x="378.875" y="1350.625"/>
      <point x="316.5" y="1354.875"/>
      <point x="256.5" y="1354.875" type="curve" smooth="yes"/>
      <point x="211.5" y="1354.875"/>
      <point x="160.875" y="1351.0"/>
      <point x="114.0" y="1345.875" type="curve"/>
      <point x="109.875" y="1251.125"/>
      <point x="104.125" y="1100.5"/>
      <point x="104.125" y="989.375" type="curve" smooth="yes"/>
      <point x="104.125" y="693.0"/>
      <point x="112.375" y="454.625"/>
      <point x="169.0" y="285.125" type="curve" smooth="yes"/>
      <point x="233.125" y="82.375"/>
      <point x="359.0" y="-33.0"/>
    </contour>
  </outline>
</glyph>
<glyph name="V" format="2">
  <advance width="1176.625"/>
  <unicode hex="0056"/>
  <anchor x="596.75" y="0.0" name="bottom"/>
  <anchor x="596.75" y="1291.0" name="top"/>
  <outline>
    <contour>
      <point x="623.375" y="-20.875" type="curve" smooth="yes"/>
      <point x="686.25" y="-20.875"/>
      <point x="745.875" y="-19.875"/>
      <point x="780.25" y="-16.0" type="curve"/>
      <point x="799.875" y="50.875"/>
      <point x="992.25" y="676.25"/>
      <point x="1127.875" y="1310.375" type="curve"/>
      <point x="1037.875" y="1342.75"/>
      <point x="911.625" y="1361.5"/>
      <point x="817.125" y="1363.375" type="curve"/>
      <point x="811.875" y="1306.75"/>
      <point x="716.0" y="679.5"/>
      <point x="611.5" y="285.875" type="curve"/>
      <point x="513.375" y="674.625"/>
      <point x="371.375" y="1275.5"/>
      <point x="360.0" y="1359.75" type="curve"/>
      <point x="285.5" y="1359.75"/>
      <point x="124.25" y="1344.5"/>
      <point x="40.875" y="1318.25" type="curve"/>
      <point x="96.125" y="1037.25"/>
      <point x="305.875" y="287.375"/>
      <point x="447.375" y="-10.0" type="curve"/>
      <point x="484.0" y="-16.0"/>
      <point x="555.625" y="-20.875"/>
    </contour>
  </outline>
</glyph>
<glyph name="W" format="2">
  <advance width="1344.0"/>
  <unicode hex="0057"/>
  <anchor x="672.0" y="0.0" name="bottom"/>
  <anchor x="672.0" y="1291.0" name="top"/>
  <outline>
    <contour>
      <point x="818.625" y="-15.75" type="curve"/>
      <point x="1084.25" y="10.875" type="line"/>
      <point x="1108.75" y="102.625"/>
      <point x="1254.25" y="787.375"/>
      <point x="1254.25" y="1376.375" type="curve"/>
      <point x="976.875" y="1347.75" type="line"/>
      <point x="976.875" y="1098.625"/>
      <point x="954.75" y="641.0"/>
      <point x="912.125" y="350.25" type="curve"/>
      <point x="877.75" y="508.625"/>
      <point x="790.125" y="858.625"/>
      <point x="777.375" y="923.125" type="curve"/>
      <point x="584.0" y="907.125" type="line"/>
      <point x="558.375" y="845.0"/>
      <point x="425.5" y="556.875"/>
      <point x="382.0" y="414.5" type="curve"/>
      <point x="375.875" y="701.75"/>
      <point x="383.25" y="1064.875"/>
      <point x="383.25" y="1340.0" type="curve"/>
      <point x="79.125" y="1351.5" type="line"/>
      <point x="79.125" y="850.5"/>
      <point x="137.875" y="332.375"/>
      <point x="171.5" y="10.125" type="curve"/>
      <point x="453.875" y="-1.125" type="line"/>
      <point x="486.0" y="78.25"/>
      <point x="633.25" y="433.875"/>
      <point x="666.25" y="538.25" type="curve"/>
      <point x="694.375" y="423.625"/>
      <point x="776.75" y="127.375"/>
    </contour>
  </outline>
</glyph>
<glyph name="X" format="2">
  <advance width="1200.5"/>
  <unicode hex="0058"/>
  <anchor x="607.5" y="0.0" name="bottom"/>
  <anchor x="607.5" y="1291.0" name="top"/>
  <outline>
    <contour>
      <point x="465.625" y="641.625" type="curve"/>
      <point x="376.375" y="484.375"/>
      <point x="194.875" y="230.5"/>
      <point x="53.75" y="49.625" type="curve"/>
      <point x="171.0" y="13.375"/>
      <point x="247.125" y="-9.375"/>
      <point x="341.75" y="-19.0" type="curve"/>
      <point x="363.375" y="6.0"/>
      <point x="553.5" y="284.5"/>
      <point x="628.625" y="420.5" type="curve"/>
      <point x="741.125" y="239.125"/>
      <point x="817.75" y="75.375"/>
      <point x="862.875" y="-39.375" type="curve"/>
      <point x="938.375" y="-26.5"/>
      <point x="1061.5" y="7.875"/>
      <point x="1134.875" y="54.375" type="curve"/>
      <point x="1077.75" y="172.875"/>
      <point x="873.25" y="521.25"/>
      <point x="765.125" y="664.0" type="curve"/>
      <point x="849.375" y="777.5"/>
      <point x="1050.75" y="1054.125"/>
      <point x="1122.375" y="1222.625" type="curve"/>
      <point x="1077.625" y="1257.5"/>
      <point x="961.375" y="1300.25"/>
      <point x="835.375" y="1320.5" type="curve"/>
      <point x="805.0" y="1224.75"/>
      <point x="722.625" y="1021.125"/>
      <point x="626.0" y="868.375" type="curve"/>
      <point x="546.75" y="1016.0"/>
      <point x="415.75" y="1256.125"/>
      <point x="353.5" y="1339.875" type="curve"/>
      <point x="275.5" y="1328.625"/>
      <point x="114.75" y="1276.375"/>
      <point x="43.25" y="1240.75" type="curve"/>
      <point x="91.0" y="1187.25"/>
      <point x="323.875" y="899.5"/>
    </contour>
  </outline>
</glyph>
<glyph name="Y" format="2">
  <advance width="1065.0"/>
  <unicode hex="0059"/>
  <anchor x="579.25" y="0.0" name="bottom"/>
  <anchor x="579.25" y="1291.0" name="top"/>
  <anchor x="66.25" y="1291.0" name="topleft"/>
  <outline>
    <contour>
      <point x="437.5" y="547.75" type="curve"/>
      <point x="428.0" y="405.25"/>
      <point x="415.875" y="135.875"/>
      <point x="415.875" y="11.25" type="curve"/>
      <point x="455.75" y="3.875"/>
      <point x="517.125" y="-0.875"/>
      <point x="573.75" y="-0.875" type="curve" smooth="yes"/>
      <point x="626.75" y="-0.875"/>
      <point x="676.75" y="3.875"/>
      <point x="693.0" y="9.25" type="curve"/>
      <point x="693.125" y="32.5"/>
      <point x="693.75" y="153.75"/>
      <point x="693.75" y="242.75" type="curve" smooth="yes"/>
      <point x="693.75" y="316.125"/>
      <point x="690.625" y="469.5"/>
      <point x="686.875" y="566.625" type="curve"/>
      <point x="830.625" y="853.25"/>
      <point x="970.5" y="1091.625"/>
      <point x="1057.5" y="1210.375" type="curve"/>
      <point x="996.125" y="1248.75"/>
      <point x="890.25" y="1296.875"/>
      <point x="792.25" y="1306.75" type="curve"/>
      <point x="738.5" y="1213.0"/>
      <point x="587.125" y="907.625"/>
      <point x="550.125" y="829.125" type="curve"/>
      <point x="488.75" y="949.75"/>
      <point x="358.5" y="1256.75"/>
      <point x="335.375" y="1322.375" type="curve"/>
      <point x="268.75" y="1320.5"/>
      <point x="162.375" y="1306.125"/>
      <point x="55.25" y="1265.75" type="curve"/>
      <point x="141.625" y="1061.75"/>
      <point x="338.875" y="686.25"/>
    </contour>
  </outline>
</glyph>
<glyph name="Z" format="2">
  <advance width="1044.0"/>
  <unicode hex="005A"/>
  <anchor x="522.0" y="0.0" name="bottom"/>
  <anchor x="522.0" y="646.0" name="center"/>
  <anchor x="522.0" y="1291.0" name="top"/>
  <outline>
    <contour>
      <point x="910.875" y="-14.0" type="curve"/>
      <point x="916.625" y="10.125"/>
      <point x="924.0" y="76.625"/>
      <point x="924.75" y="140.125" type="curve" smooth="yes"/>
      <point x="925.5" y="193.375"/>
      <point x="923.375" y="249.125"/>
      <point x="920.875" y="280.0" type="curve"/>
      <point x="836.125" y="276.125"/>
      <point x="744.125" y="272.625"/>
      <point x="663.0" y="272.625" type="curve" smooth="yes"/>
      <point x="538.125" y="272.625"/>
      <point x="406.75" y="276.5"/>
      <point x="348.75" y="282.375" type="curve"/>
      <point x="445.375" y="395.375"/>
      <point x="813.0" y="886.875"/>
      <point x="936.5" y="1101.375" type="curve"/>
      <point x="939.75" y="1118.75"/>
      <point x="943.0" y="1167.625"/>
      <point x="943.0" y="1220.0" type="curve" smooth="yes"/>
      <point x="943.0" y="1259.125"/>
      <point x="941.125" y="1301.125"/>
      <point x="935.75" y="1330.0" type="curve"/>
      <point x="901.125" y="1332.5"/>
      <point x="789.125" y="1332.625"/>
      <point x="748.75" y="1332.25" type="curve" smooth="yes"/>
      <point x="551.125" y="1330.0"/>
      <point x="244.0" y="1306.375"/>
      <point x="99.625" y="1294.0" type="curve"/>
      <point x="96.75" y="1267.25"/>
      <point x="94.875" y="1224.625"/>
      <point x="94.875" y="1178.5" type="curve" smooth="yes"/>
      <point x="94.875" y="1137.75"/>
      <point x="97.375" y="1088.25"/>
      <point x="100.25" y="1059.0" type="curve"/>
      <point x="272.625" y="1071.5"/>
      <point x="579.375" y="1090.375"/>
      <point x="647.5" y="1090.375" type="curve"/>
      <point x="576.5" y="966.75"/>
      <point x="205.375" y="463.125"/>
      <point x="43.375" y="278.5" type="curve"/>
      <point x="43.375" y="215.25"/>
      <point x="47.25" y="76.5"/>
      <point x="50.75" y="22.0" type="curve"/>
      <point x="390.125" y="-3.75"/>
      <point x="674.875" y="-14.0"/>
    </contour>
  </outline>
</glyph>
<glyph name="bracketleft" format="2">
  <advance width="735.0"/>
  <unicode hex="005B"/>
  <outline>
    <contour>
      <point x="340.5" y="-526.375" type="curve" smooth="yes"/>
      <point x="463.5" y="-526.375"/>
      <point x="565.625" y="-519.625"/>
      <point x="630.0" y="-512.375" type="curve"/>
      <point x="636.375" y="-470.375"/>
      <point x="646.25" y="-363.125"/>
      <point x="646.25" y="-293.375" type="curve"/>
      <point x="601.25" y="-294.125"/>
      <point x="528.5" y="-293.5"/>
      <point x="471.875" y="-292.25" type="curve" smooth="yes"/>
      <point x="406.125" y="-290.375"/>
      <point x="351.75" y="-288.5"/>
      <point x="332.875" y="-285.125" type="curve"/>
      <point x="320.25" y="-116.875"/>
      <point x="312.75" y="152.25"/>
      <point x="312.75" y="429.0" type="curve" smooth="yes"/>
      <point x="312.75" y="776.0"/>
      <point x="325.875" y="1142.25"/>
      <point x="359.25" y="1421.125" type="curve"/>
      <point x="467.875" y="1430.625"/>
      <point x="632.375" y="1441.0"/>
      <point x="681.875" y="1442.125" type="curve"/>
      <point x="685.125" y="1457.25"/>
      <point x="692.625" y="1496.25"/>
      <point x="698.25" y="1542.375" type="curve" smooth="yes"/>
      <point x="702.0" y="1576.0"/>
      <point x="704.75" y="1611.875"/>
      <point x="704.0" y="1644.5" type="curve"/>
      <point x="504.375" y="1643.25"/>
      <point x="248.0" y="1626.75"/>
      <point x="113.0" y="1600.5" type="curve"/>
      <point x="76.5" y="1382.625"/>
      <point x="50.0" y="975.25"/>
      <point x="50.0" y="526.875" type="curve" smooth="yes"/>
      <point x="50.0" y="177.0"/>
      <point x="64.875" y="-195.375"/>
      <point x="101.0" y="-518.25" type="curve"/>
      <point x="183.125" y="-523.75"/>
      <point x="264.625" y="-526.375"/>
    </contour>
  </outline>
</glyph>
<glyph name="backslash" format="2">
  <advance width="725.0"/>
  <unicode hex="005C"/>
  <outline>
    <contour>
      <point x="739.875" y="4.375" type="curve"/>
      <point x="506.75" y="417.25"/>
      <point x="298.125" y="1001.0"/>
      <point x="220.375" y="1473.625" type="curve"/>
      <point x="125.75" y="1467.375"/>
      <point x="16.625" y="1438.0"/>
      <point x="-17.75" y="1399.0" type="curve"/>
      <point x="79.375" y="855.5"/>
      <point x="236.75" y="403.5"/>
      <point x="507.875" y="-104.5" type="curve"/>
      <point x="579.0" y="-87.375"/>
      <point x="663.25" y="-49.375"/>
    </contour>
  </outline>
</glyph>
<glyph name="bracketright" format="2">
  <advance width="619.0"/>
  <unicode hex="005D"/>
  <outline>
    <contour>
      <point x="609.25" y="548.875" type="curve" smooth="yes"/>
      <point x="609.25" y="961.75"/>
      <point x="577.5" y="1342.75"/>
      <point x="520.5" y="1625.0" type="curve"/>
      <point x="396.375" y="1646.375"/>
      <point x="269.25" y="1654.5"/>
      <point x="132.0" y="1654.5" type="curve" smooth="yes"/>
      <point x="91.875" y="1654.5"/>
      <point x="37.75" y="1653.875"/>
      <point x="9.5" y="1652.625" type="curve"/>
      <point x="2.5" y="1613.25"/>
      <point x="-1.625" y="1539.75"/>
      <point x="-1.625" y="1480.875" type="curve"/>
      <point x="2.5" y="1467.75"/>
      <point x="11.875" y="1455.25"/>
      <point x="25.25" y="1444.0" type="curve" smooth="yes"/>
      <point x="100.5" y="1442.75"/>
      <point x="205.375" y="1442.0"/>
      <point x="281.5" y="1435.625" type="curve"/>
      <point x="312.875" y="1285.125"/>
      <point x="333.5" y="930.375"/>
      <point x="333.5" y="564.0" type="curve" smooth="yes"/>
      <point x="333.5" y="264.625"/>
      <point x="319.25" y="-43.625"/>
      <point x="286.75" y="-255.375" type="curve"/>
      <point x="245.75" y="-265.75"/>
      <point x="87.25" y="-280.875"/>
      <point x="22.125" y="-280.875" type="curve"/>
      <point x="21.375" y="-332.875"/>
      <point x="23.125" y="-437.25"/>
      <point x="26.25" y="-497.875" type="curve"/>
      <point x="155.0" y="-497.875"/>
      <point x="381.0" y="-490.0"/>
      <point x="536.0" y="-455.375" type="curve"/>
      <point x="578.75" y="-206.5"/>
      <point x="609.25" y="163.0"/>
    </contour>
  </outline>
</glyph>
<glyph name="asciicircum" format="2">
  <advance width="1032.0"/>
  <unicode hex="005E"/>
  <outline>
    <contour>
      <point x="656.125" y="1325.0" type="curve"/>
      <point x="636.25" y="1331.375"/>
      <point x="595.0" y="1334.75"/>
      <point x="551.125" y="1334.75" type="curve" smooth="yes"/>
      <point x="510.75" y="1334.75"/>
      <point x="468.375" y="1331.25"/>
      <point x="439.625" y="1326.0" type="curve"/>
      <point x="323.625" y="1217.0"/>
      <point x="130.5" y="976.0"/>
      <point x="17.0" y="812.0" type="curve"/>
      <point x="78.375" y="753.75"/>
      <point x="152.125" y="717.25"/>
      <point x="216.75" y="705.25" type="curve"/>
      <point x="282.125" y="818.375"/>
      <point x="465.25" y="1064.375"/>
      <point x="614.0" y="1188.125" type="curve"/>
      <point x="488.5" y="1192.75" type="line"/>
      <point x="600.375" y="1074.375"/>
      <point x="732.125" y="874.5"/>
      <point x="784.625" y="724.125" type="curve"/>
      <point x="883.625" y="743.375"/>
      <point x="952.75" y="769.875"/>
      <point x="993.0" y="805.0" type="curve"/>
      <point x="916.0" y="1002.5"/>
      <point x="752.75" y="1222.5"/>
    </contour>
  </outline>
</glyph>
<glyph name="underscore" format="2">
  <advance width="1549.0"/>
  <unicode hex="005F"/>
  <outline>
    <contour>
      <point x="366.25" y="20.625" type="curve" smooth="yes"/>
      <point x="302.625" y="20.625"/>
      <point x="83.125" y="20.625"/>
      <point x="27.25" y="22.625" type="curve"/>
      <point x="31.625" y="-38.875"/>
      <point x="44.0" y="-175.25"/>
      <point x="48.5" y="-209.875" type="curve"/>
      <point x="327.25" y="-216.25"/>
      <point x="793.5" y="-220.375"/>
      <point x="1027.75" y="-220.375" type="curve" smooth="yes"/>
      <point x="1227.125" y="-220.375"/>
      <point x="1363.375" y="-217.5"/>
      <point x="1438.0" y="-214.5" type="curve"/>
      <point x="1447.25" y="-156.125"/>
      <point x="1454.0" y="-55.125"/>
      <point x="1454.0" y="47.75" type="curve"/>
      <point x="1242.5" y="38.625"/>
      <point x="820.625" y="20.625"/>
    </contour>
  </outline>
</glyph>
<glyph name="a" format="2">
  <advance width="1295.0"/>
  <unicode hex="0061"/>
  <anchor x="607.5" y="0.0" name="bottom"/>
  <anchor x="1167.0" y="2.625" name="ogonek"/>
  <anchor x="607.5" y="1063.0" name="top"/>
  <outline>
    <contour>
      <point x="516.875" y="-18.375" type="curve" smooth="yes"/>
      <point x="725.375" y="-18.375"/>
      <point x="872.25" y="65.625"/>
      <point x="907.5" y="141.25" type="curve"/>
      <point x="917.625" y="60.75"/>
      <point x="1012.375" y="-6.875"/>
      <point x="1126.5" y="-6.875" type="curve" smooth="yes"/>
      <point x="1227.75" y="-6.875"/>
      <point x="1302.5" y="44.25"/>
      <point x="1315.0" y="122.875" type="curve"/>
      <point x="1213.5" y="290.875" type="line"/>
      <point x="1206.625" y="246.5"/>
      <point x="1176.375" y="220.125"/>
      <point x="1138.25" y="220.125" type="curve" smooth="yes"/>
      <point x="1101.875" y="220.125"/>
      <point x="1081.0" y="239.0"/>
      <point x="1077.625" y="335.75" type="curve" smooth="yes"/>
      <point x="1074.625" y="404.25"/>
      <point x="1072.0" y="485.0"/>
      <point x="1067.625" y="588.0" type="curve" smooth="yes"/>
      <point x="1060.75" y="698.875"/>
      <point x="1039.75" y="775.875"/>
      <point x="1006.0" y="843.75" type="curve" smooth="yes"/>
      <point x="935.75" y="983.0"/>
      <point x="791.875" y="1068.125"/>
      <point x="559.5" y="1068.125" type="curve" smooth="yes"/>
      <point x="344.75" y="1068.125"/>
      <point x="153.625" y="978.5"/>
      <point x="65.0" y="851.375" type="curve"/>
      <point x="281.5" y="710.75" type="line"/>
      <point x="328.875" y="783.5"/>
      <point x="425.125" y="850.0"/>
      <point x="552.25" y="850.0" type="curve" smooth="yes"/>
      <point x="675.25" y="850.0"/>
      <point x="751.125" y="800.75"/>
      <point x="794.25" y="734.5" type="curve" smooth="yes"/>
      <point x="817.125" y="704.625"/>
      <point x="829.25" y="660.375"/>
      <point x="831.875" y="622.25" type="curve"/>
      <point x="799.875" y="640.375"/>
      <point x="685.75" y="671.25"/>
      <point x="573.5" y="671.25" type="curve" smooth="yes"/>
      <point x="300.375" y="671.25"/>
      <point x="68.25" y="570.0"/>
      <point x="68.25" y="323.25" type="curve" smooth="yes"/>
      <point x="68.25" y="73.625"/>
      <point x="268.625" y="-18.375"/>
    </contour>
    <contour>
      <point x="573.125" y="190.625" type="curve" smooth="yes"/>
      <point x="435.875" y="190.625"/>
      <point x="344.875" y="225.125"/>
      <point x="344.875" y="336.5" type="curve" smooth="yes"/>
      <point x="344.875" y="434.5"/>
      <point x="467.0" y="484.125"/>
      <point x="606.75" y="484.125" type="curve" smooth="yes"/>
      <point x="712.0" y="484.125"/>
      <point x="814.375" y="462.5"/>
      <point x="847.0" y="450.0" type="curve"/>
      <point x="845.125" y="411.0"/>
      <point x="846.125" y="358.25"/>
      <point x="848.625" y="303.125" type="curve"/>
      <point x="797.125" y="246.25"/>
      <point x="679.625" y="190.625"/>
    </contour>
  </outline>
</glyph>
<glyph name="b" format="2">
  <advance width="1200.0"/>
  <unicode hex="0062"/>
  <anchor x="612.5" y="0.0" name="bottom"/>
  <anchor x="612.5" y="1470.0" name="top"/>
  <outline>
    <contour>
      <point x="138.875" y="-9.5" type="curve"/>
      <point x="212.125" y="-17.625"/>
      <point x="323.0" y="-20.0"/>
      <point x="421.125" y="-19.0" type="curve"/>
      <point x="420.5" y="-1.125"/>
      <point x="416.625" y="74.625"/>
      <point x="414.25" y="113.625" type="curve"/>
      <point x="448.25" y="74.125"/>
      <point x="547.125" y="2.25"/>
      <point x="695.0" y="2.25" type="curve" smooth="yes"/>
      <point x="941.625" y="2.25"/>
      <point x="1093.625" y="169.25"/>
      <point x="1093.625" y="439.5" type="curve" smooth="yes"/>
      <point x="1093.625" y="744.25"/>
      <point x="943.25" y="919.875"/>
      <point x="705.25" y="919.875" type="curve" smooth="yes"/>
      <point x="559.0" y="919.875"/>
      <point x="430.125" y="824.625"/>
      <point x="379.0" y="770.25" type="curve"/>
      <point x="364.875" y="1025.0"/>
      <point x="359.75" y="1312.125"/>
      <point x="359.75" y="1445.5" type="curve"/>
      <point x="223.375" y="1425.5"/>
      <point x="115.375" y="1406.625"/>
      <point x="97.375" y="1403.0" type="curve"/>
      <point x="97.375" y="1191.0"/>
      <point x="126.875" y="154.5"/>
    </contour>
    <contour>
      <point x="406.625" y="318.375" type="curve"/>
      <point x="404.625" y="346.75"/>
      <point x="393.875" y="518.0"/>
      <point x="392.75" y="547.875" type="curve"/>
      <point x="435.75" y="602.75"/>
      <point x="519.125" y="693.375"/>
      <point x="654.0" y="693.375" type="curve" smooth="yes"/>
      <point x="784.75" y="693.375"/>
      <point x="841.5" y="584.875"/>
      <point x="841.5" y="456.5" type="curve" smooth="yes"/>
      <point x="841.5" y="323.375"/>
      <point x="775.5" y="246.75"/>
      <point x="625.875" y="246.75" type="curve" smooth="yes"/>
      <point x="524.0" y="246.75"/>
      <point x="437.625" y="294.25"/>
    </contour>
  </outline>
</glyph>
<glyph name="c" format="2">
  <advance width="1026.0"/>
  <unicode hex="0063"/>
  <anchor x="513.0" y="0.0" name="bottom"/>
  <anchor x="513.0" y="1063.0" name="top"/>
  <outline>
    <contour>
      <point x="967.875" y="210.5" type="curve"/>
      <point x="779.875" y="405.375" type="line"/>
      <point x="766.625" y="384.125"/>
      <point x="679.75" y="273.0"/>
      <point x="538.75" y="273.0" type="curve" smooth="yes"/>
      <point x="364.5" y="273.0"/>
      <point x="305.375" y="436.0"/>
      <point x="305.375" y="588.25" type="curve" smooth="yes"/>
      <point x="305.375" y="761.125"/>
      <point x="391.625" y="874.875"/>
      <point x="550.875" y="874.875" type="curve" smooth="yes"/>
      <point x="693.875" y="874.875"/>
      <point x="739.875" y="777.25"/>
      <point x="749.875" y="752.25" type="curve"/>
      <point x="941.125" y="864.375" type="line"/>
      <point x="868.375" y="999.375"/>
      <point x="728.75" y="1095.25"/>
      <point x="542.25" y="1095.25" type="curve" smooth="yes"/>
      <point x="230.25" y="1095.25"/>
      <point x="42.0" y="859.125"/>
      <point x="42.0" y="541.125" type="curve" smooth="yes"/>
      <point x="42.0" y="241.875"/>
      <point x="228.875" y="-9.0"/>
      <point x="529.5" y="-9.0" type="curve" smooth="yes"/>
      <point x="757.375" y="-9.0"/>
      <point x="911.125" y="108.0"/>
    </contour>
  </outline>
</glyph>
<glyph name="d" format="2">
  <advance width="1195.0"/>
  <unicode hex="0064"/>
  <anchor x="598.0" y="0.0" name="bottom"/>
  <anchor x="856.375" y="1201.875" name="center"/>
  <anchor x="598.0" y="1470.0" name="top"/>
  <anchor x="1115.0" y="1041.25" name="topright"/>
  <outline>
    <contour>
      <point x="810.75" y="3.0" type="curve"/>
      <point x="864.375" y="-2.375"/>
      <point x="1007.375" y="-4.625"/>
      <point x="1048.75" y="-4.625" type="curve"/>
      <point x="1048.75" y="506.0"/>
      <point x="1057.25" y="953.25"/>
      <point x="1092.5" y="1415.375" type="curve"/>
      <point x="1027.625" y="1431.375"/>
      <point x="931.875" y="1439.0"/>
      <point x="862.875" y="1439.0" type="curve"/>
      <point x="855.75" y="1378.875"/>
      <point x="823.75" y="1016.5"/>
      <point x="816.375" y="846.125" type="curve"/>
      <point x="777.625" y="894.5"/>
      <point x="659.25" y="959.0"/>
      <point x="499.5" y="959.0" type="curve" smooth="yes"/>
      <point x="199.875" y="959.0"/>
      <point x="51.625" y="724.875"/>
      <point x="51.625" y="466.125" type="curve" smooth="yes"/>
      <point x="51.625" y="198.0"/>
      <point x="204.625" y="1.125"/>
      <point x="463.375" y="1.125" type="curve" smooth="yes"/>
      <point x="679.375" y="1.125"/>
      <point x="778.75" y="110.875"/>
      <point x="807.0" y="151.125" type="curve"/>
      <point x="807.0" y="117.75"/>
      <point x="808.25" y="33.0"/>
    </contour>
    <contour>
      <point x="534.5" y="256.25" type="curve" smooth="yes"/>
      <point x="387.0" y="256.25"/>
      <point x="305.125" y="335.875"/>
      <point x="305.125" y="487.75" type="curve" smooth="yes"/>
      <point x="305.125" y="633.625"/>
      <point x="391.0" y="731.125"/>
      <point x="541.125" y="731.125" type="curve" smooth="yes"/>
      <point x="650.375" y="731.125"/>
      <point x="759.125" y="679.375"/>
      <point x="803.75" y="638.375" type="curve"/>
      <point x="801.75" y="592.5"/>
      <point x="800.625" y="450.5"/>
      <point x="800.625" y="393.5" type="curve"/>
      <point x="762.75" y="341.125"/>
      <point x="673.375" y="256.25"/>
    </contour>
  </outline>
</glyph>
<glyph name="e" format="2">
  <advance width="1111.375"/>
  <unicode hex="0065"/>
  <anchor x="566.0" y="10.0" name="bottom"/>
  <anchor x="761.375" y="28.625" name="ogonek"/>
  <anchor x="611.375" y="1065.625" name="top"/>
  <outline>
    <contour>
      <point x="1044.75" y="193.5" type="curve"/>
      <point x="1011.75" y="269.625"/>
      <point x="893.875" y="387.75"/>
      <point x="876.875" y="401.125" type="curve"/>
      <point x="824.875" y="349.625"/>
      <point x="740.75" y="256.0"/>
      <point x="593.0" y="256.0" type="curve" smooth="yes"/>
      <point x="478.25" y="256.0"/>
      <point x="374.125" y="312.75"/>
      <point x="345.25" y="408.875" type="curve" smooth="yes"/>
      <point x="338.375" y="432.625"/>
      <point x="334.125" y="460.0"/>
      <point x="333.75" y="487.625" type="curve"/>
      <point x="419.125" y="501.125"/>
      <point x="547.0" y="515.125"/>
      <point x="669.125" y="515.125" type="curve" smooth="yes"/>
      <point x="750.5" y="515.125"/>
      <point x="995.375" y="508.25"/>
      <point x="1033.125" y="506.25" type="curve"/>
      <point x="1039.375" y="550.875"/>
      <point x="1041.125" y="587.625"/>
      <point x="1039.625" y="634.25" type="curve" smooth="yes"/>
      <point x="1029.5" y="901.5"/>
      <point x="868.75" y="1065.625"/>
      <point x="601.375" y="1065.625" type="curve" smooth="yes"/>
      <point x="282.375" y="1065.625"/>
      <point x="64.25" y="848.875"/>
      <point x="64.25" y="516.125" type="curve" smooth="yes"/>
      <point x="64.25" y="178.625"/>
      <point x="272.375" y="0.125"/>
      <point x="575.125" y="0.125" type="curve" smooth="yes"/>
      <point x="826.25" y="0.125"/>
      <point x="977.5" y="107.625"/>
    </contour>
    <contour>
      <point x="342.125" y="656.75" type="curve"/>
      <point x="347.5" y="785.875"/>
      <point x="445.625" y="888.375"/>
      <point x="589.625" y="888.375" type="curve" smooth="yes"/>
      <point x="706.25" y="888.375"/>
      <point x="770.5" y="808.0"/>
      <point x="790.0" y="729.75" type="curve" smooth="yes"/>
      <point x="794.5" y="710.75"/>
      <point x="796.875" y="692.125"/>
      <point x="796.875" y="675.75" type="curve"/>
      <point x="775.0" y="677.125"/>
      <point x="719.0" y="679.875"/>
      <point x="648.625" y="679.875" type="curve" smooth="yes"/>
      <point x="516.0" y="679.875"/>
      <point x="414.375" y="668.375"/>
    </contour>
  </outline>
</glyph>
<glyph name="f" format="2">
  <advance width="896.0"/>
  <unicode hex="0066"/>
  <anchor x="448.0" y="0.0" name="bottom"/>
  <anchor x="448.0" y="1470.0" name="top"/>
  <outline>
    <contour>
      <point x="263.375" y="-8.625" type="curve"/>
      <point x="349.75" y="-8.25"/>
      <point x="492.75" y="-3.0"/>
      <point x="563.375" y="9.625" type="curve"/>
      <point x="552.25" y="53.125"/>
      <point x="486.875" y="399.25"/>
      <point x="469.25" y="515.5" type="curve"/>
      <point x="547.25" y="524.375"/>
      <point x="693.375" y="531.5"/>
      <point x="712.375" y="531.5" type="curve"/>
      <point x="712.375" y="599.625"/>
      <point x="709.375" y="695.125"/>
      <point x="701.625" y="756.625" type="curve"/>
      <point x="649.875" y="760.375"/>
      <point x="501.0" y="756.875"/>
      <point x="437.625" y="753.125" type="curve"/>
      <point x="429.625" y="793.0"/>
      <point x="425.25" y="845.625"/>
      <point x="425.25" y="884.5" type="curve" smooth="yes"/>
      <point x="425.25" y="996.75"/>
      <point x="462.25" y="1092.375"/>
      <point x="573.375" y="1092.375" type="curve" smooth="yes"/>
      <point x="664.5" y="1092.375"/>
      <point x="725.875" y="996.0"/>
      <point x="752.625" y="953.5" type="curve"/>
      <point x="779.0" y="986.75"/>
      <point x="858.625" y="1106.375"/>
      <point x="895.875" y="1172.875" type="curve"/>
      <point x="865.125" y="1228.25"/>
      <point x="771.625" y="1361.125"/>
      <point x="548.875" y="1361.125" type="curve" smooth="yes"/>
      <point x="283.625" y="1361.125"/>
      <point x="158.5" y="1146.875"/>
      <point x="158.5" y="907.375" type="curve" smooth="yes"/>
      <point x="158.5" y="845.875"/>
      <point x="164.375" y="777.0"/>
      <point x="172.875" y="712.25" type="curve"/>
      <point x="147.125" y="707.25"/>
      <point x="42.875" y="682.375"/>
      <point x="18.5" y="673.0" type="curve"/>
      <point x="19.625" y="591.75"/>
      <point x="31.0" y="492.625"/>
      <point x="49.0" y="435.625" type="curve"/>
      <point x="90.0" y="450.625"/>
      <point x="157.0" y="468.375"/>
      <point x="191.25" y="474.75" type="curve"/>
      <point x="215.875" y="278.625"/>
      <point x="256.875" y="30.375"/>
    </contour>
  </outline>
</glyph>
<glyph name="g" format="2">
  <advance width="1231.0"/>
  <unicode hex="0067"/>
  <anchor x="616.0" y="-530.0" name="bottom"/>
  <anchor x="616.0" y="1063.0" name="top"/>
  <outline>
    <contour>
      <point x="649.5" y="248.125" type="curve" smooth="yes"/>
      <point x="915.25" y="248.125"/>
      <point x="1099.5" y="393.875"/>
      <point x="1099.5" y="664.25" type="curve" smooth="yes"/>
      <point x="1099.5" y="746.625"/>
      <point x="1080.0" y="817.75"/>
      <point x="1042.0" y="874.875" type="curve"/>
      <point x="1081.625" y="925.25"/>
      <point x="1141.75" y="973.125"/>
      <point x="1181.75" y="993.875" type="curve"/>
      <point x="1147.25" y="1035.375"/>
      <point x="1077.75" y="1131.75"/>
      <point x="1052.75" y="1168.625" type="curve"/>
      <point x="994.875" y="1137.25"/>
      <point x="924.375" y="1068.375"/>
      <point x="882.5" y="1003.625" type="curve"/>
      <point x="814.125" y="1037.5"/>
      <point x="727.75" y="1056.0"/>
      <point x="625.75" y="1056.0" type="curve" smooth="yes"/>
      <point x="337.5" y="1056.0"/>
      <point x="120.625" y="913.5"/>
      <point x="120.625" y="653.125" type="curve" smooth="yes"/>
      <point x="120.625" y="556.0"/>
      <point x="150.625" y="459.875"/>
      <point x="223.875" y="385.5" type="curve"/>
      <point x="175.375" y="358.75"/>
      <point x="134.625" y="305.875"/>
      <point x="134.625" y="239.375" type="curve" smooth="yes"/>
      <point x="134.625" y="184.25"/>
      <point x="165.375" y="132.25"/>
      <point x="243.125" y="93.75" type="curve"/>
      <point x="121.375" y="37.875"/>
      <point x="51.75" y="-57.5"/>
      <point x="51.75" y="-165.5" type="curve" smooth="yes"/>
      <point x="51.75" y="-427.0"/>
      <point x="295.0" y="-499.0"/>
      <point x="602.25" y="-499.0" type="curve" smooth="yes"/>
      <point x="913.25" y="-499.0"/>
      <point x="1138.625" y="-397.25"/>
      <point x="1138.625" y="-131.875" type="curve" smooth="yes"/>
      <point x="1138.625" y="68.75"/>
      <point x="987.125" y="156.375"/>
      <point x="775.125" y="156.375" type="curve" smooth="yes"/>
      <point x="657.125" y="156.375"/>
      <point x="565.875" y="153.875"/>
      <point x="476.625" y="150.125" type="curve"/>
      <point x="401.375" y="152.75"/>
      <point x="357.5" y="192.75"/>
      <point x="357.5" y="232.875" type="curve" smooth="yes"/>
      <point x="357.5" y="254.125"/>
      <point x="370.125" y="276.375"/>
      <point x="398.75" y="293.875" type="curve"/>
      <point x="465.0" y="264.875"/>
      <point x="547.625" y="248.125"/>
    </contour>
    <contour>
      <point x="613.375" y="-325.875" type="curve" smooth="yes"/>
      <point x="454.5" y="-325.875"/>
      <point x="332.375" y="-285.5"/>
      <point x="332.375" y="-177.375" type="curve" smooth="yes"/>
      <point x="332.375" y="-72.25"/>
      <point x="410.625" y="-46.25"/>
      <point x="488.125" y="-46.25" type="curve" smooth="yes"/>
      <point x="692.25" y="-46.25" type="line" smooth="yes"/>
      <point x="778.25" y="-46.25"/>
      <point x="875.625" y="-72.875"/>
      <point x="875.625" y="-171.375" type="curve" smooth="yes"/>
      <point x="875.625" y="-284.25"/>
      <point x="760.25" y="-325.875"/>
    </contour>
    <contour>
      <point x="624.125" y="459.5" type="curve" smooth="yes"/>
      <point x="494.75" y="459.5"/>
      <point x="402.0" y="533.625"/>
      <point x="402.0" y="660.625" type="curve" smooth="yes"/>
      <point x="402.0" y="798.25"/>
      <point x="510.5" y="849.0"/>
      <point x="638.5" y="849.0" type="curve" smooth="yes"/>
      <point x="755.875" y="849.0"/>
      <point x="848.25" y="773.0"/>
      <point x="848.25" y="665.625" type="curve" smooth="yes"/>
      <point x="848.25" y="538.25"/>
      <point x="774.5" y="459.5"/>
    </contour>
  </outline>
</glyph>
<glyph name="h" format="2">
  <advance width="1123.0"/>
  <unicode hex="0068"/>
  <anchor x="568.25" y="0.0" name="bottom"/>
  <anchor x="336.875" y="1217.5" name="center"/>
  <anchor x="217.0" y="1423.625" name="top"/>
  <outline>
    <contour>
      <point x="367.375" y="-14.0" type="curve"/>
      <point x="383.875" y="83.125"/>
      <point x="400.625" y="315.25"/>
      <point x="400.625" y="526.875" type="curve"/>
      <point x="428.25" y="566.25"/>
      <point x="525.5" y="672.625"/>
      <point x="638.75" y="672.625" type="curve" smooth="yes"/>
      <point x="739.5" y="672.625"/>
      <point x="771.375" y="592.75"/>
      <point x="771.375" y="462.5" type="curve" smooth="yes"/>
      <point x="771.375" y="344.0"/>
      <point x="744.125" y="124.75"/>
      <point x="725.125" y="1.5" type="curve"/>
      <point x="762.875" y="-5.75"/>
      <point x="811.375" y="-10.25"/>
      <point x="859.75" y="-10.25" type="curve" smooth="yes"/>
      <point x="904.375" y="-10.25"/>
      <point x="949.625" y="-7.125"/>
      <point x="990.5" y="-0.875" type="curve"/>
      <point x="1012.5" y="145.375"/>
      <point x="1033.75" y="355.25"/>
      <point x="1033.75" y="512.625" type="curve" smooth="yes"/>
      <point x="1033.75" y="763.25"/>
      <point x="969.875" y="911.5"/>
      <point x="735.375" y="911.5" type="curve" smooth="yes"/>
      <point x="605.375" y="911.5"/>
      <point x="469.5" y="844.5"/>
      <point x="401.5" y="766.0" type="curve"/>
      <point x="395.875" y="1036.75"/>
      <point x="376.125" y="1292.0"/>
      <point x="345.5" y="1443.0" type="curve"/>
      <point x="294.5" y="1442.25"/>
      <point x="111.875" y="1414.75"/>
      <point x="92.25" y="1407.75" type="curve"/>
      <point x="105.5" y="1196.5"/>
      <point x="120.125" y="906.0"/>
      <point x="120.125" y="639.25" type="curve" smooth="yes"/>
      <point x="120.125" y="368.875"/>
      <point x="105.625" y="119.625"/>
      <point x="90.375" y="-7.875" type="curve"/>
      <point x="115.25" y="-17.0"/>
      <point x="173.25" y="-20.875"/>
      <point x="233.25" y="-20.875" type="curve" smooth="yes"/>
      <point x="285.625" y="-20.875"/>
      <point x="338.375" y="-18.375"/>
    </contour>
  </outline>
</glyph>
<glyph name="i" format="2">
  <advance width="610.0"/>
  <unicode hex="0069"/>
  <anchor x="291.625" y="0.0" name="bottom"/>
  <outline>
    <contour>
      <point x="410.625" y="0.75" type="curve"/>
      <point x="429.625" y="86.75"/>
      <point x="442.875" y="438.0"/>
      <point x="442.875" y="682.875" type="curve" smooth="yes"/>
      <point x="442.875" y="789.25"/>
      <point x="438.75" y="880.75"/>
      <point x="432.75" y="921.125" type="curve"/>
      <point x="377.625" y="921.125"/>
      <point x="222.0" y="914.625"/>
      <point x="176.0" y="911.125" type="curve"/>
      <point x="176.0" y="705.0"/>
      <point x="142.375" y="89.375"/>
      <point x="127.375" y="2.375" type="curve"/>
      <point x="171.5" y="-3.375"/>
      <point x="218.75" y="-6.0"/>
      <point x="265.5" y="-6.0" type="curve" smooth="yes"/>
      <point x="326.0" y="-6.0"/>
      <point x="388.875" y="-1.25"/>
    </contour>
    <contour>
      <point x="315.625" y="1059.125" type="curve" smooth="yes"/>
      <point x="411.75" y="1059.125"/>
      <point x="481.375" y="1134.0"/>
      <point x="481.375" y="1228.75" type="curve" smooth="yes"/>
      <point x="481.375" y="1332.625"/>
      <point x="409.125" y="1407.875"/>
      <point x="307.75" y="1407.875" type="curve" smooth="yes"/>
      <point x="212.875" y="1407.875"/>
      <point x="125.0" y="1343.375"/>
      <point x="125.0" y="1234.625" type="curve" smooth="yes"/>
      <point x="125.0" y="1130.5"/>
      <point x="205.25" y="1059.125"/>
    </contour>
  </outline>
</glyph>
<glyph name="j" format="2">
  <advance width="676.875"/>
  <unicode hex="006A"/>
  <outline>
    <contour>
      <point x="568.125" y="215.5" type="curve" smooth="yes"/>
      <point x="568.125" y="463.625"/>
      <point x="515.75" y="793.75"/>
      <point x="482.375" y="925.25" type="curve"/>
      <point x="191.625" y="910.375" type="line"/>
      <point x="236.875" y="705.25"/>
      <point x="276.25" y="403.625"/>
      <point x="276.25" y="186.375" type="curve" smooth="yes"/>
      <point x="276.25" y="-3.0"/>
      <point x="252.625" y="-259.875"/>
      <point x="122.25" y="-259.875" type="curve" smooth="yes"/>
      <point x="27.125" y="-259.875"/>
      <point x="-37.75" y="-168.125"/>
      <point x="-67.125" y="-79.875" type="curve"/>
      <point x="-135.75" y="-103.375"/>
      <point x="-266.5" y="-153.75"/>
      <point x="-337.875" y="-205.5" type="curve"/>
      <point x="-280.75" y="-383.0"/>
      <point x="-86.125" y="-504.0"/>
      <point x="123.875" y="-504.0" type="curve" smooth="yes"/>
      <point x="449.875" y="-504.0"/>
      <point x="568.125" y="-237.875"/>
    </contour>
    <contour>
      <point x="283.0" y="1411.5" type="curve" smooth="yes"/>
      <point x="174.25" y="1411.5"/>
      <point x="92.0" y="1328.5"/>
      <point x="92.0" y="1220.875" type="curve" smooth="yes"/>
      <point x="92.0" y="1118.5"/>
      <point x="182.75" y="1052.125"/>
      <point x="279.5" y="1052.125" type="curve" smooth="yes"/>
      <point x="381.875" y="1052.125"/>
      <point x="475.125" y="1133.75"/>
      <point x="475.125" y="1234.5" type="curve" smooth="yes"/>
      <point x="475.125" y="1328.625"/>
      <point x="393.125" y="1411.5"/>
    </contour>
  </outline>
</glyph>
<glyph name="k" format="2">
  <advance width="1156.0"/>
  <unicode hex="006B"/>
  <anchor x="585.5" y="0.0" name="bottom"/>
  <anchor x="585.5" y="1470.0" name="top"/>
  <outline>
    <contour>
      <point x="856.375" y="-49.0" type="curve"/>
      <point x="905.25" y="-35.75"/>
      <point x="1079.0" y="31.25"/>
      <point x="1112.875" y="52.5" type="curve"/>
      <point x="987.25" y="258.375"/>
      <point x="776.375" y="498.25"/>
      <point x="694.625" y="556.0" type="curve"/>
      <point x="772.25" y="615.125"/>
      <point x="993.0" y="752.875"/>
      <point x="1094.125" y="814.5" type="curve"/>
      <point x="1064.75" y="865.125"/>
      <point x="982.375" y="980.5"/>
      <point x="943.875" y="1019.375" type="curve"/>
      <point x="808.25" y="933.125"/>
      <point x="539.625" y="766.75"/>
      <point x="396.25" y="619.5" type="curve"/>
      <point x="405.625" y="736.75"/>
      <point x="423.375" y="1177.625"/>
      <point x="423.375" y="1434.75" type="curve"/>
      <point x="379.5" y="1447.625"/>
      <point x="327.0" y="1453.0"/>
      <point x="271.625" y="1453.0" type="curve" smooth="yes"/>
      <point x="232.125" y="1453.0"/>
      <point x="191.375" y="1450.5"/>
      <point x="154.0" y="1447.375" type="curve"/>
      <point x="154.0" y="1259.25"/>
      <point x="99.125" y="86.5"/>
      <point x="92.0" y="-23.5" type="curve"/>
      <point x="129.875" y="-28.375"/>
      <point x="181.875" y="-32.875"/>
      <point x="238.375" y="-32.875" type="curve" smooth="yes"/>
      <point x="281.0" y="-32.875"/>
      <point x="325.625" y="-30.25"/>
      <point x="368.375" y="-25.125" type="curve"/>
      <point x="373.0" y="31.5"/>
      <point x="382.75" y="205.625"/>
      <point x="385.125" y="321.0" type="curve"/>
      <point x="399.125" y="335.125"/>
      <point x="467.25" y="390.25"/>
      <point x="498.75" y="413.0" type="curve"/>
      <point x="592.25" y="352.25"/>
      <point x="799.875" y="59.75"/>
    </contour>
  </outline>
</glyph>
<glyph name="l" format="2">
  <advance width="645.0"/>
  <unicode hex="006C"/>
  <anchor x="315.5" y="0.0" name="bottom"/>
  <anchor x="315.5" y="735.0" name="center"/>
  <anchor x="315.5" y="1470.0" name="top"/>
  <anchor x="430.5" y="1030.625" name="topright"/>
  <outline>
    <contour>
      <point x="638.0" y="52.625" type="curve"/>
      <point x="628.875" y="75.75"/>
      <point x="558.0" y="240.875"/>
      <point x="541.125" y="269.0" type="curve"/>
      <point x="521.25" y="233.0"/>
      <point x="495.25" y="208.5"/>
      <point x="446.75" y="208.5" type="curve" smooth="yes"/>
      <point x="357.875" y="208.5"/>
      <point x="345.75" y="337.625"/>
      <point x="345.75" y="474.125" type="curve" smooth="yes"/>
      <point x="345.75" y="662.5"/>
      <point x="371.625" y="1151.875"/>
      <point x="388.125" y="1426.0" type="curve"/>
      <point x="335.5" y="1430.875"/>
      <point x="291.875" y="1433.5"/>
      <point x="246.0" y="1433.5" type="curve" smooth="yes"/>
      <point x="213.125" y="1433.5"/>
      <point x="170.875" y="1431.875"/>
      <point x="130.25" y="1429.0" type="curve"/>
      <point x="116.875" y="1181.125"/>
      <point x="97.5" y="765.0"/>
      <point x="97.5" y="426.625" type="curve" smooth="yes"/>
      <point x="97.5" y="148.625"/>
      <point x="140.125" y="-38.875"/>
      <point x="380.375" y="-38.875" type="curve" smooth="yes"/>
      <point x="500.375" y="-38.875"/>
      <point x="602.5" y="11.75"/>
    </contour>
  </outline>
</glyph>
<glyph name="m" format="2">
  <advance width="1858.0"/>
  <unicode hex="006D"/>
  <anchor x="929.0" y="0.0" name="bottom"/>
  <anchor x="929.0" y="1063.0" name="top"/>
  <outline>
    <contour>
      <point x="149.5" y="-8.125" type="curve"/>
      <point x="184.5" y="-12.75"/>
      <point x="265.5" y="-16.625"/>
      <point x="339.125" y="-16.625" type="curve" smooth="yes"/>
      <point x="369.875" y="-16.625"/>
      <point x="421.375" y="-14.625"/>
      <point x="434.75" y="-13.625" type="curve"/>
      <point x="430.5" y="22.5"/>
      <point x="410.25" y="268.0"/>
      <point x="398.25" y="587.375" type="curve"/>
      <point x="415.75" y="676.25"/>
      <point x="523.0" y="802.5"/>
      <point x="643.625" y="802.5" type="curve" smooth="yes"/>
      <point x="811.875" y="802.5"/>
      <point x="830.75" y="550.5"/>
      <point x="830.75" y="244.625" type="curve" smooth="yes"/>
      <point x="830.75" y="160.75"/>
      <point x="830.0" y="82.25"/>
      <point x="830.75" y="-7.0" type="curve"/>
      <point x="854.75" y="-11.0"/>
      <point x="913.0" y="-13.0"/>
      <point x="968.0" y="-13.0" type="curve" smooth="yes"/>
      <point x="1014.125" y="-13.0"/>
      <point x="1061.5" y="-11.0"/>
      <point x="1086.125" y="-9.0" type="curve"/>
      <point x="1086.125" y="71.625"/>
      <point x="1088.625" y="151.75"/>
      <point x="1091.125" y="225.25" type="curve" smooth="yes"/>
      <point x="1099.25" y="533.5"/>
      <point x="1134.75" y="802.375"/>
      <point x="1339.875" y="802.375" type="curve" smooth="yes"/>
      <point x="1452.625" y="802.375"/>
      <point x="1496.5" y="690.75"/>
      <point x="1496.5" y="483.75" type="curve" smooth="yes"/>
      <point x="1496.5" y="354.75"/>
      <point x="1478.125" y="185.75"/>
      <point x="1451.875" y="-12.125" type="curve"/>
      <point x="1499.5" y="-16.625"/>
      <point x="1547.5" y="-18.25"/>
      <point x="1593.875" y="-18.25" type="curve" smooth="yes"/>
      <point x="1638.625" y="-18.25"/>
      <point x="1685.75" y="-16.25"/>
      <point x="1728.5" y="-12.875" type="curve"/>
      <point x="1737.875" y="114.625"/>
      <point x="1747.75" y="272.5"/>
      <point x="1747.75" y="403.875" type="curve" smooth="yes"/>
      <point x="1747.75" y="803.5"/>
      <point x="1675.75" y="1045.125"/>
      <point x="1365.125" y="1045.125" type="curve" smooth="yes"/>
      <point x="1153.0" y="1045.125"/>
      <point x="1022.375" y="885.25"/>
      <point x="981.25" y="725.375" type="curve"/>
      <point x="977.5" y="761.125"/>
      <point x="971.25" y="799.625"/>
      <point x="959.125" y="836.5" type="curve" smooth="yes"/>
      <point x="922.375" y="941.375"/>
      <point x="848.125" y="1035.625"/>
      <point x="706.375" y="1035.625" type="curve" smooth="yes"/>
      <point x="503.5" y="1035.625"/>
      <point x="402.75" y="896.125"/>
      <point x="385.0" y="843.375" type="curve"/>
      <point x="385.0" y="871.375"/>
      <point x="382.0" y="983.625"/>
      <point x="380.0" y="1027.0" type="curve"/>
      <point x="322.0" y="1026.625"/>
      <point x="173.0" y="1008.25"/>
      <point x="117.25" y="992.75" type="curve"/>
      <point x="117.25" y="771.5"/>
      <point x="129.5" y="215.375"/>
    </contour>
  </outline>
</glyph>
<glyph name="n" format="2">
  <advance width="1330.0"/>
  <unicode hex="006E"/>
  <anchor x="681.25" y="0.0" name="bottom"/>
  <anchor x="681.25" y="1063.0" name="top"/>
  <outline>
    <contour>
      <point x="381.0" y="-13.25" type="curve"/>
      <point x="394.875" y="100.5"/>
      <point x="417.5" y="340.5"/>
      <point x="422.0" y="663.5" type="curve"/>
      <point x="487.0" y="723.125"/>
      <point x="606.0" y="809.625"/>
      <point x="747.0" y="809.625" type="curve" smooth="yes"/>
      <point x="902.375" y="809.625"/>
      <point x="933.625" y="690.125"/>
      <point x="933.625" y="509.5" type="curve" smooth="yes"/>
      <point x="933.625" y="338.375"/>
      <point x="903.375" y="127.875"/>
      <point x="880.5" y="-3.0" type="curve"/>
      <point x="907.5" y="-6.375"/>
      <point x="967.0" y="-8.0"/>
      <point x="1026.125" y="-8.0" type="curve" smooth="yes"/>
      <point x="1082.75" y="-8.0"/>
      <point x="1139.0" y="-6.0"/>
      <point x="1164.0" y="-3.0" type="curve"/>
      <point x="1185.75" y="180.375"/>
      <point x="1196.875" y="383.5"/>
      <point x="1196.875" y="514.625" type="curve" smooth="yes"/>
      <point x="1196.875" y="875.75"/>
      <point x="1128.375" y="1060.0"/>
      <point x="824.125" y="1060.0" type="curve" smooth="yes"/>
      <point x="657.25" y="1060.0"/>
      <point x="486.25" y="955.875"/>
      <point x="427.0" y="878.625" type="curve"/>
      <point x="428.25" y="930.875"/>
      <point x="428.25" y="1017.75"/>
      <point x="427.125" y="1037.375" type="curve"/>
      <point x="396.25" y="1042.5"/>
      <point x="353.125" y="1044.375"/>
      <point x="310.25" y="1044.375" type="curve" smooth="yes"/>
      <point x="247.5" y="1044.375"/>
      <point x="182.875" y="1040.125"/>
      <point x="138.25" y="1034.0" type="curve"/>
      <point x="138.25" y="539.0"/>
      <point x="126.625" y="217.125"/>
      <point x="102.125" y="-5.625" type="curve"/>
      <point x="125.625" y="-8.625"/>
      <point x="194.125" y="-11.5"/>
      <point x="238.125" y="-12.75" type="curve" smooth="yes"/>
      <point x="290.75" y="-14.0"/>
      <point x="345.0" y="-13.625"/>
    </contour>
  </outline>
</glyph>
<glyph name="o" format="2">
  <advance width="1170.75"/>
  <unicode hex="006F"/>
  <anchor x="592.5" y="0.0" name="bottom"/>
  <anchor x="592.5" y="532.0" name="center"/>
  <anchor x="756.0" y="0.0" name="ogonek"/>
  <anchor x="592.5" y="1063.0" name="top"/>
  <anchor x="886.5" y="941.0" name="topright"/>
  <outline>
    <contour>
      <point x="600.375" y="-25.25" type="curve" smooth="yes"/>
      <point x="914.75" y="-25.25"/>
      <point x="1093.5" y="171.25"/>
      <point x="1093.5" y="474.25" type="curve" smooth="yes"/>
      <point x="1093.5" y="823.0"/>
      <point x="934.75" y="1065.125"/>
      <point x="608.125" y="1065.125" type="curve" smooth="yes"/>
      <point x="290.75" y="1065.125"/>
      <point x="74.125" y="882.375"/>
      <point x="74.125" y="529.5" type="curve" smooth="yes"/>
      <point x="74.125" y="169.625"/>
      <point x="248.125" y="-25.25"/>
    </contour>
    <contour>
      <point x="590.375" y="225.75" type="curve" smooth="yes"/>
      <point x="427.0" y="225.75"/>
      <point x="340.875" y="358.125"/>
      <point x="340.875" y="543.875" type="curve" smooth="yes"/>
      <point x="340.875" y="714.875"/>
      <point x="420.25" y="858.875"/>
      <point x="594.125" y="858.875" type="curve" smooth="yes"/>
      <point x="759.375" y="858.875"/>
      <point x="844.375" y="717.375"/>
      <point x="844.375" y="518.375" type="curve" smooth="yes"/>
      <point x="844.375" y="357.75"/>
      <point x="760.625" y="225.75"/>
    </contour>
  </outline>
</glyph>
<glyph name="p" format="2">
  <advance width="1217.75"/>
  <unicode hex="0070"/>
  <anchor x="600.0" y="0.0" name="bottom"/>
  <anchor x="600.0" y="1063.0" name="top"/>
  <outline>
    <contour>
      <point x="61.25" y="-445.25" type="curve"/>
      <point x="116.375" y="-445.25"/>
      <point x="239.875" y="-440.125"/>
      <point x="334.0" y="-421.25" type="curve"/>
      <point x="348.5" y="-301.125"/>
      <point x="369.125" y="97.875"/>
      <point x="370.625" y="177.0" type="curve"/>
      <point x="409.0" y="130.5"/>
      <point x="562.0" y="72.125"/>
      <point x="685.75" y="72.125" type="curve" smooth="yes"/>
      <point x="959.375" y="72.125"/>
      <point x="1146.25" y="271.75"/>
      <point x="1146.25" y="591.625" type="curve" smooth="yes"/>
      <point x="1146.25" y="894.125"/>
      <point x="1014.0" y="1074.375"/>
      <point x="746.625" y="1074.375" type="curve" smooth="yes"/>
      <point x="563.75" y="1074.375"/>
      <point x="435.75" y="972.375"/>
      <point x="394.25" y="920.625" type="curve"/>
      <point x="394.25" y="968.625"/>
      <point x="391.875" y="1034.875"/>
      <point x="389.125" y="1075.5" type="curve"/>
      <point x="300.5" y="1075.5"/>
      <point x="197.0" y="1065.875"/>
      <point x="124.0" y="1043.375" type="curve"/>
      <point x="124.0" y="815.125"/>
      <point x="106.375" y="85.75"/>
    </contour>
    <contour>
      <point x="644.75" y="344.875" type="curve" smooth="yes"/>
      <point x="505.0" y="344.875"/>
      <point x="423.375" y="410.375"/>
      <point x="386.75" y="445.5" type="curve"/>
      <point x="388.0" y="502.625"/>
      <point x="394.125" y="680.5"/>
      <point x="394.875" y="720.5" type="curve"/>
      <point x="429.5" y="765.5"/>
      <point x="530.125" y="846.375"/>
      <point x="664.375" y="846.375" type="curve" smooth="yes"/>
      <point x="809.5" y="846.375"/>
      <point x="877.875" y="762.25"/>
      <point x="877.875" y="614.125" type="curve" smooth="yes"/>
      <point x="877.875" y="445.125"/>
      <point x="804.25" y="344.875"/>
    </contour>
  </outline>
</glyph>
<glyph name="q" format="2">
  <advance width="1207.0"/>
  <unicode hex="0071"/>
  <anchor x="604.0" y="0.0" name="bottom"/>
  <anchor x="604.0" y="1063.0" name="top"/>
  <outline>
    <contour>
      <point x="1064.125" y="-458.625" type="curve"/>
      <point x="1050.5" y="-342.75"/>
      <point x="1026.625" y="-108.25"/>
      <point x="1026.625" y="122.125" type="curve" smooth="yes"/>
      <point x="1026.625" y="414.75"/>
      <point x="1049.875" y="778.625"/>
      <point x="1087.75" y="1053.875" type="curve"/>
      <point x="1003.625" y="1075.75"/>
      <point x="930.625" y="1089.0"/>
      <point x="839.125" y="1089.75" type="curve"/>
      <point x="834.75" y="1069.0"/>
      <point x="822.875" y="991.5"/>
      <point x="822.125" y="954.75" type="curve"/>
      <point x="744.25" y="1032.625"/>
      <point x="621.75" y="1084.75"/>
      <point x="466.5" y="1084.75" type="curve" smooth="yes"/>
      <point x="177.5" y="1084.75"/>
      <point x="69.125" y="836.375"/>
      <point x="69.125" y="533.75" type="curve" smooth="yes"/>
      <point x="69.125" y="228.125"/>
      <point x="215.25" y="16.5"/>
      <point x="504.375" y="16.5" type="curve" smooth="yes"/>
      <point x="648.375" y="16.5"/>
      <point x="752.625" y="77.625"/>
      <point x="778.5" y="119.875" type="curve"/>
      <point x="778.5" y="-78.375"/>
      <point x="785.625" y="-280.875"/>
      <point x="804.5" y="-445.375" type="curve"/>
      <point x="867.75" y="-451.875"/>
      <point x="959.0" y="-458.625"/>
    </contour>
    <contour>
      <point x="545.25" y="291.0" type="curve" smooth="yes"/>
      <point x="401.125" y="291.0"/>
      <point x="327.875" y="411.25"/>
      <point x="327.875" y="564.625" type="curve" smooth="yes"/>
      <point x="327.875" y="721.875"/>
      <point x="394.75" y="830.0"/>
      <point x="548.5" y="830.0" type="curve" smooth="yes"/>
      <point x="667.75" y="830.0"/>
      <point x="774.875" y="757.75"/>
      <point x="802.875" y="736.625" type="curve"/>
      <point x="795.75" y="653.625"/>
      <point x="782.25" y="455.5"/>
      <point x="778.5" y="376.625" type="curve"/>
      <point x="744.125" y="345.5"/>
      <point x="652.5" y="291.0"/>
    </contour>
  </outline>
</glyph>
<glyph name="r" format="2">
  <advance width="853.0"/>
  <unicode hex="0072"/>
  <anchor x="427.0" y="0.0" name="bottom"/>
  <anchor x="427.0" y="1063.0" name="top"/>
  <outline>
    <contour>
      <point x="332.5" y="892.625" type="curve"/>
      <point x="329.875" y="939.25"/>
      <point x="305.375" y="1026.75"/>
      <point x="289.0" y="1066.5" type="curve"/>
      <point x="263.875" y="1064.875"/>
      <point x="131.875" y="1041.875"/>
      <point x="50.875" y="1018.375" type="curve"/>
      <point x="111.125" y="766.75"/>
      <point x="148.625" y="286.125"/>
      <point x="148.625" y="-4.25" type="curve"/>
      <point x="246.75" y="-5.375"/>
      <point x="365.625" y="-3.25"/>
      <point x="447.5" y="6.75" type="curve"/>
      <point x="447.5" y="110.25"/>
      <point x="405.25" y="487.5"/>
      <point x="374.625" y="654.875" type="curve"/>
      <point x="433.125" y="737.75"/>
      <point x="531.75" y="793.25"/>
      <point x="633.875" y="793.25" type="curve" smooth="yes"/>
      <point x="698.0" y="793.25"/>
      <point x="745.875" y="774.5"/>
      <point x="776.125" y="762.0" type="curve"/>
      <point x="831.0" y="1041.0" type="line"/>
      <point x="799.875" y="1060.125"/>
      <point x="730.25" y="1073.875"/>
      <point x="668.75" y="1073.875" type="curve" smooth="yes"/>
      <point x="521.125" y="1073.875"/>
      <point x="382.5" y="985.75"/>
    </contour>
  </outline>
</glyph>
<glyph name="s" format="2">
  <advance width="990.625"/>
  <unicode hex="0073"/>
  <anchor x="501.75" y="-66.25" name="bottom"/>
  <anchor x="509.25" y="1112.375" name="top"/>
  <outline>
    <contour>
      <point x="495.0" y="-79.625" type="curve" smooth="yes"/>
      <point x="737.0" y="-79.625"/>
      <point x="938.875" y="39.5"/>
      <point x="938.875" y="281.375" type="curve" smooth="yes"/>
      <point x="938.875" y="482.625"/>
      <point x="754.75" y="589.5"/>
      <point x="575.875" y="655.25" type="curve" smooth="yes"/>
      <point x="449.0" y="704.125"/>
      <point x="365.75" y="745.25"/>
      <point x="365.75" y="814.75" type="curve" smooth="yes"/>
      <point x="365.75" y="889.5"/>
      <point x="452.875" y="913.375"/>
      <point x="534.25" y="913.375" type="curve" smooth="yes"/>
      <point x="630.25" y="913.375"/>
      <point x="721.375" y="862.25"/>
      <point x="778.75" y="817.125" type="curve"/>
      <point x="831.5" y="880.875"/>
      <point x="882.125" y="978.625"/>
      <point x="893.625" y="1016.375" type="curve"/>
      <point x="810.125" y="1079.75"/>
      <point x="661.25" y="1122.125"/>
      <point x="517.75" y="1122.125" type="curve" smooth="yes"/>
      <point x="304.0" y="1122.125"/>
      <point x="108.5" y="1018.25"/>
      <point x="108.5" y="821.625" type="curve" smooth="yes"/>
      <point x="108.5" y="627.75"/>
      <point x="255.125" y="544.625"/>
      <point x="425.5" y="477.125" type="curve" smooth="yes"/>
      <point x="555.375" y="426.875"/>
      <point x="676.625" y="359.625"/>
      <point x="676.625" y="272.0" type="curve" smooth="yes"/>
      <point x="676.625" y="194.5"/>
      <point x="601.0" y="154.375"/>
      <point x="504.0" y="154.375" type="curve" smooth="yes"/>
      <point x="388.875" y="154.375"/>
      <point x="252.75" y="243.375"/>
      <point x="161.125" y="331.875" type="curve"/>
      <point x="116.375" y="288.75"/>
      <point x="35.625" y="139.5"/>
      <point x="19.375" y="94.375" type="curve"/>
      <point x="88.5" y="16.75"/>
      <point x="275.875" y="-79.625"/>
    </contour>
  </outline>
</glyph>
<glyph name="t" format="2">
  <advance width="964.0"/>
  <unicode hex="0074"/>
  <anchor x="600.25" y="-33.125" name="bottom"/>
  <anchor x="464.5" y="532.0" name="center"/>
  <anchor x="399.5" y="1424.75" name="top"/>
  <anchor x="584.0" y="1321.25" name="topright"/>
  <outline>
    <contour>
      <point x="896.875" y="149.125" type="curve"/>
      <point x="878.25" y="169.875"/>
      <point x="777.375" y="279.125"/>
      <point x="746.75" y="320.0" type="curve"/>
      <point x="728.0" y="276.125"/>
      <point x="696.375" y="196.0"/>
      <point x="627.0" y="196.0" type="curve" smooth="yes"/>
      <point x="522.125" y="196.0"/>
      <point x="512.375" y="304.125"/>
      <point x="512.375" y="433.75" type="curve" smooth="yes"/>
      <point x="512.375" y="551.125"/>
      <point x="521.5" y="807.875"/>
      <point x="525.875" y="883.375" type="curve"/>
      <point x="564.125" y="886.75"/>
      <point x="634.875" y="891.0"/>
      <point x="685.5" y="892.875" type="curve" smooth="yes"/>
      <point x="757.875" y="895.375"/>
      <point x="849.0" y="896.625"/>
      <point x="862.375" y="895.875" type="curve"/>
      <point x="862.375" y="959.0"/>
      <point x="860.375" y="1057.875"/>
      <point x="852.75" y="1112.875" type="curve"/>
      <point x="837.375" y="1113.625"/>
      <point x="764.375" y="1115.125"/>
      <point x="677.0" y="1112.0" type="curve" smooth="yes"/>
      <point x="641.875" y="1110.75"/>
      <point x="572.875" y="1107.125"/>
      <point x="530.25" y="1105.125" type="curve"/>
      <point x="529.125" y="1154.75"/>
      <point x="528.875" y="1213.875"/>
      <point x="528.875" y="1255.125" type="curve" smooth="yes"/>
      <point x="528.875" y="1345.75"/>
      <point x="526.5" y="1415.375"/>
      <point x="525.625" y="1432.875" type="curve"/>
      <point x="265.5" y="1411.625" type="line"/>
      <point x="268.875" y="1379.5"/>
      <point x="273.25" y="1323.25"/>
      <point x="274.5" y="1271.125" type="curve" smooth="yes"/>
      <point x="275.75" y="1212.0"/>
      <point x="277.125" y="1130.75"/>
      <point x="277.875" y="1091.5" type="curve"/>
      <point x="180.875" y="1086.375"/>
      <point x="86.25" y="1075.5"/>
      <point x="9.875" y="1065.375" type="curve"/>
      <point x="9.875" y="1044.875"/>
      <point x="14.125" y="924.875"/>
      <point x="31.5" y="829.625" type="curve"/>
      <point x="62.75" y="836.875"/>
      <point x="164.5" y="853.25"/>
      <point x="277.75" y="864.5" type="curve"/>
      <point x="273.125" y="786.5"/>
      <point x="260.125" y="498.75"/>
      <point x="260.125" y="320.5" type="curve" smooth="yes"/>
      <point x="260.125" y="123.0"/>
      <point x="354.375" y="-45.5"/>
      <point x="591.375" y="-45.5" type="curve" smooth="yes"/>
      <point x="772.0" y="-45.5"/>
      <point x="860.75" y="68.0"/>
    </contour>
  </outline>
</glyph>
<glyph name="u" format="2">
  <advance width="1178.0"/>
  <unicode hex="0075"/>
  <anchor x="576.5" y="0.0" name="bottom"/>
  <anchor x="789.75" y="0.0" name="ogonek"/>
  <anchor x="576.5" y="1063.0" name="top"/>
  <anchor x="1012.625" y="916.25" name="topright"/>
  <outline>
    <contour>
      <point x="753.75" y="985.375" type="curve"/>
      <point x="773.25" y="883.25"/>
      <point x="785.625" y="758.875"/>
      <point x="785.625" y="641.5" type="curve" smooth="yes"/>
      <point x="785.625" y="382.25"/>
      <point x="723.875" y="200.875"/>
      <point x="580.25" y="200.875" type="curve" smooth="yes"/>
      <point x="427.25" y="200.875"/>
      <point x="366.25" y="400.375"/>
      <point x="366.25" y="694.625" type="curve" smooth="yes"/>
      <point x="366.25" y="801.375"/>
      <point x="374.25" y="912.875"/>
      <point x="385.375" y="1013.375" type="curve"/>
      <point x="350.125" y="1023.625"/>
      <point x="286.125" y="1030.375"/>
      <point x="228.0" y="1031.5" type="curve" smooth="yes"/>
      <point x="186.5" y="1032.625"/>
      <point x="130.0" y="1031.25"/>
      <point x="98.75" y="1028.75" type="curve"/>
      <point x="90.5" y="922.25"/>
      <point x="83.75" y="812.5"/>
      <point x="83.75" y="707.875" type="curve" smooth="yes"/>
      <point x="83.75" y="281.375"/>
      <point x="176.875" y="-55.375"/>
      <point x="574.0" y="-55.375" type="curve" smooth="yes"/>
      <point x="942.75" y="-55.375"/>
      <point x="1062.375" y="260.75"/>
      <point x="1062.375" y="642.375" type="curve" smooth="yes"/>
      <point x="1062.375" y="757.0"/>
      <point x="1050.125" y="876.625"/>
      <point x="1031.875" y="991.75" type="curve"/>
      <point x="998.875" y="997.125"/>
      <point x="939.25" y="1000.875"/>
      <point x="895.5" y="1000.875" type="curve" smooth="yes"/>
      <point x="843.25" y="1000.875"/>
      <point x="782.25" y="994.5"/>
    </contour>
  </outline>
</glyph>
<glyph name="v" format="2">
  <advance width="1007.0"/>
  <unicode hex="0076"/>
  <anchor x="504.0" y="0.0" name="bottom"/>
  <anchor x="504.0" y="1063.0" name="top"/>
  <outline>
    <contour>
      <point x="712.5" y="1091.0" type="curve"/>
      <point x="660.625" y="819.25"/>
      <point x="571.25" y="525.375"/>
      <point x="504.5" y="333.75" type="curve"/>
      <point x="446.75" y="479.125"/>
      <point x="303.25" y="897.0"/>
      <point x="254.25" y="1092.0" type="curve"/>
      <point x="193.375" y="1074.5"/>
      <point x="52.125" y="1040.625"/>
      <point x="13.375" y="1033.0" type="curve"/>
      <point x="117.5" y="686.25"/>
      <point x="245.5" y="308.75"/>
      <point x="388.5" y="10.875" type="curve"/>
      <point x="417.875" y="7.0"/>
      <point x="461.875" y="2.875"/>
      <point x="506.25" y="2.875" type="curve" smooth="yes"/>
      <point x="549.625" y="2.875"/>
      <point x="593.0" y="5.75"/>
      <point x="622.625" y="10.875" type="curve"/>
      <point x="744.875" y="292.0"/>
      <point x="904.125" y="773.5"/>
      <point x="966.25" y="1026.375" type="curve"/>
      <point x="949.875" y="1032.625"/>
      <point x="837.25" y="1068.875"/>
    </contour>
  </outline>
</glyph>
<glyph name="w" format="2">
  <advance width="1520.0"/>
  <unicode hex="0077"/>
  <anchor x="760.0" y="0.0" name="bottom"/>
  <anchor x="760.0" y="1063.0" name="top"/>
  <outline>
    <contour>
      <point x="433.875" y="7.0" type="curve" smooth="yes"/>
      <point x="593.375" y="7.0"/>
      <point x="694.125" y="124.375"/>
      <point x="733.75" y="261.875" type="curve"/>
      <point x="765.625" y="126.875"/>
      <point x="837.75" y="14.625"/>
      <point x="1006.75" y="14.625" type="curve" smooth="yes"/>
      <point x="1306.75" y="14.625"/>
      <point x="1416.5" y="342.75"/>
      <point x="1416.5" y="748.0" type="curve" smooth="yes"/>
      <point x="1416.5" y="821.875"/>
      <point x="1410.125" y="956.75"/>
      <point x="1404.25" y="1035.25" type="curve"/>
      <point x="1373.875" y="1037.875"/>
      <point x="1312.875" y="1041.375"/>
      <point x="1274.75" y="1041.375" type="curve" smooth="yes"/>
      <point x="1236.25" y="1041.375"/>
      <point x="1198.375" y="1041.375"/>
      <point x="1159.5" y="1041.0" type="curve"/>
      <point x="1162.75" y="953.0"/>
      <point x="1163.875" y="847.25"/>
      <point x="1163.875" y="771.625" type="curve" smooth="yes"/>
      <point x="1163.875" y="479.625"/>
      <point x="1121.875" y="239.125"/>
      <point x="996.125" y="239.125" type="curve" smooth="yes"/>
      <point x="862.375" y="239.125"/>
      <point x="853.875" y="488.125"/>
      <point x="853.875" y="873.875" type="curve" smooth="yes"/>
      <point x="853.875" y="1036.0" type="line"/>
      <point x="797.5" y="1039.0"/>
      <point x="669.5" y="1040.625"/>
      <point x="617.125" y="1040.625" type="curve"/>
      <point x="620.375" y="950.5"/>
      <point x="621.75" y="842.125"/>
      <point x="621.75" y="758.5" type="curve" smooth="yes"/>
      <point x="621.75" y="483.875"/>
      <point x="574.875" y="267.625"/>
      <point x="462.125" y="267.625" type="curve" smooth="yes"/>
      <point x="366.25" y="267.625"/>
      <point x="337.0" y="407.375"/>
      <point x="337.0" y="611.75" type="curve" smooth="yes"/>
      <point x="337.0" y="737.25"/>
      <point x="346.125" y="888.375"/>
      <point x="361.125" y="1048.5" type="curve"/>
      <point x="284.875" y="1054.25"/>
      <point x="178.625" y="1059.25"/>
      <point x="105.25" y="1059.25" type="curve"/>
      <point x="91.5" y="919.5"/>
      <point x="79.125" y="769.75"/>
      <point x="79.125" y="630.75" type="curve" smooth="yes"/>
      <point x="79.125" y="294.375"/>
      <point x="149.375" y="7.0"/>
    </contour>
  </outline>
</glyph>
<glyph name="x" format="2">
  <advance width="1142.0"/>
  <unicode hex="0078"/>
  <anchor x="578.5" y="0.0" name="bottom"/>
  <anchor x="578.5" y="1063.0" name="top"/>
  <outline>
    <contour>
      <point x="200.75" y="-31.5" type="curve"/>
      <point x="275.375" y="38.0"/>
      <point x="420.75" y="208.875"/>
      <point x="559.25" y="391.75" type="curve"/>
      <point x="650.875" y="282.5"/>
      <point x="770.75" y="90.25"/>
      <point x="842.25" y="-18.75" type="curve"/>
      <point x="912.75" y="19.375"/>
      <point x="996.75" y="67.75"/>
      <point x="1053.75" y="114.0" type="curve"/>
      <point x="949.625" y="268.5"/>
      <point x="831.5" y="459.375"/>
      <point x="725.5" y="584.625" type="curve"/>
      <point x="845.25" y="716.25"/>
      <point x="992.25" y="926.75"/>
      <point x="1057.75" y="1041.875" type="curve"/>
      <point x="1002.75" y="1076.25"/>
      <point x="899.625" y="1127.625"/>
      <point x="826.25" y="1159.5" type="curve"/>
      <point x="745.75" y="1016.625"/>
      <point x="662.375" y="881.25"/>
      <point x="572.25" y="758.125" type="curve"/>
      <point x="503.375" y="854.625"/>
      <point x="296.75" y="1079.75"/>
      <point x="213.25" y="1158.875" type="curve"/>
      <point x="163.25" y="1131.25"/>
      <point x="38.125" y="1033.125"/>
      <point x="18.375" y="1007.5" type="curve"/>
      <point x="101.875" y="927.25"/>
      <point x="251.25" y="784.625"/>
      <point x="423.5" y="587.125" type="curve"/>
      <point x="308.75" y="456.0"/>
      <point x="69.375" y="195.0"/>
      <point x="19.125" y="145.25" type="curve"/>
      <point x="59.75" y="89.375"/>
      <point x="145.625" y="11.625"/>
    </contour>
  </outline>
</glyph>
<glyph name="y" format="2">
  <advance width="1079.0"/>
  <unicode hex="0079"/>
  <anchor x="540.0" y="0.0" name="bottom"/>
  <anchor x="540.0" y="1063.0" name="top"/>
  <outline>
    <contour>
      <point x="432.125" y="-527.125" type="curve" smooth="yes"/>
      <point x="762.75" y="-527.125"/>
      <point x="924.5" y="-285.125"/>
      <point x="942.5" y="56.0" type="curve" smooth="yes"/>
      <point x="954.625" y="279.875"/>
      <point x="963.0" y="518.75"/>
      <point x="963.0" y="705.625" type="curve" smooth="yes"/>
      <point x="963.0" y="794.75"/>
      <point x="961.375" y="875.25"/>
      <point x="958.125" y="944.125" type="curve"/>
      <point x="905.75" y="955.875"/>
      <point x="854.125" y="961.25"/>
      <point x="800.0" y="961.25" type="curve" smooth="yes"/>
      <point x="771.875" y="961.25"/>
      <point x="743.125" y="959.625"/>
      <point x="715.625" y="957.0" type="curve"/>
      <point x="717.5" y="934.5"/>
      <point x="716.625" y="790.125"/>
      <point x="710.25" y="681.5" type="curve" smooth="yes"/>
      <point x="699.75" y="441.75"/>
      <point x="631.75" y="290.5"/>
      <point x="490.375" y="290.5" type="curve" smooth="yes"/>
      <point x="349.625" y="290.5"/>
      <point x="325.875" y="490.125"/>
      <point x="325.875" y="673.125" type="curve" smooth="yes"/>
      <point x="325.875" y="805.125"/>
      <point x="341.875" y="939.625"/>
      <point x="347.625" y="969.75" type="curve"/>
      <point x="325.375" y="974.875"/>
      <point x="255.875" y="978.625"/>
      <point x="192.5" y="978.625" type="curve" smooth="yes"/>
      <point x="145.0" y="978.625"/>
      <point x="99.75" y="976.375"/>
      <point x="78.75" y="971.875" type="curve"/>
      <point x="72.75" y="864.375"/>
      <point x="68.75" y="764.375"/>
      <point x="68.75" y="671.875" type="curve" smooth="yes"/>
      <point x="68.75" y="313.0"/>
      <point x="149.0" y="38.625"/>
      <point x="449.875" y="38.625" type="curve" smooth="yes"/>
      <point x="590.0" y="38.625"/>
      <point x="685.25" y="116.5"/>
      <point x="726.0" y="192.125" type="curve"/>
      <point x="722.25" y="-38.0"/>
      <point x="649.625" y="-281.0"/>
      <point x="441.5" y="-281.0" type="curve" smooth="yes"/>
      <point x="306.25" y="-281.0"/>
      <point x="161.375" y="-205.375"/>
      <point x="97.375" y="-161.75" type="curve"/>
      <point x="65.375" y="-204.875"/>
      <point x="-2.875" y="-332.125"/>
      <point x="-22.875" y="-387.625" type="curve"/>
      <point x="73.375" y="-452.625"/>
      <point x="234.375" y="-527.125"/>
    </contour>
  </outline>
</glyph>
<glyph name="z" format="2">
  <advance width="1074.0"/>
  <unicode hex="007A"/>
  <anchor x="537.0" y="0.0" name="bottom"/>
  <anchor x="537.0" y="532.0" name="center"/>
  <anchor x="537.0" y="1063.0" name="top"/>
  <outline>
    <contour>
      <point x="971.75" y="3.875" type="curve"/>
      <point x="978.375" y="35.125"/>
      <point x="984.25" y="221.375"/>
      <point x="984.25" y="247.75" type="curve"/>
      <point x="904.25" y="239.625"/>
      <point x="740.875" y="230.25"/>
      <point x="607.375" y="230.25" type="curve" smooth="yes"/>
      <point x="525.375" y="230.25"/>
      <point x="419.75" y="231.75"/>
      <point x="388.125" y="235.75" type="curve"/>
      <point x="462.75" y="334.25"/>
      <point x="825.25" y="725.375"/>
      <point x="966.0" y="852.875" type="curve"/>
      <point x="966.0" y="884.0"/>
      <point x="960.875" y="1025.25"/>
      <point x="957.0" y="1041.625" type="curve"/>
      <point x="844.375" y="1043.875"/>
      <point x="690.875" y="1044.625"/>
      <point x="559.75" y="1044.625" type="curve" smooth="yes"/>
      <point x="381.875" y="1044.625"/>
      <point x="162.25" y="1045.25"/>
      <point x="84.0" y="1046.5" type="curve"/>
      <point x="72.875" y="831.5" type="line"/>
      <point x="85.875" y="833.125"/>
      <point x="204.5" y="836.125"/>
      <point x="303.375" y="836.125" type="curve" smooth="yes"/>
      <point x="413.25" y="836.125"/>
      <point x="585.875" y="837.5"/>
      <point x="630.25" y="837.75" type="curve"/>
      <point x="497.375" y="712.0"/>
      <point x="148.625" y="336.125"/>
      <point x="62.0" y="218.125" type="curve"/>
      <point x="49.875" y="12.0" type="line"/>
      <point x="171.25" y="-2.75"/>
      <point x="351.625" y="-8.0"/>
      <point x="529.125" y="-8.0" type="curve" smooth="yes"/>
      <point x="697.125" y="-8.0"/>
      <point x="864.75" y="-2.375"/>
    </contour>
  </outline>
</glyph>
<glyph name="braceleft" format="2">
  <advance width="665.0"/>
  <unicode hex="007B"/>
  <outline>
    <contour>
      <point x="524.125" y="-424.125" type="curve"/>
      <point x="561.25" y="-365.75"/>
      <point x="591.625" y="-304.375"/>
      <point x="620.375" y="-237.5" type="curve"/>
      <point x="506.125" y="-213.75"/>
      <point x="447.25" y="-103.25"/>
      <point x="447.25" y="24.125" type="curve" smooth="yes"/>
      <point x="447.25" y="74.875"/>
      <point x="454.625" y="116.25"/>
      <point x="465.0" y="159.0" type="curve" smooth="yes"/>
      <point x="475.75" y="204.125"/>
      <point x="483.875" y="249.875"/>
      <point x="483.875" y="309.125" type="curve" smooth="yes"/>
      <point x="483.875" y="506.5"/>
      <point x="326.625" y="577.5"/>
      <point x="165.875" y="589.125" type="curve"/>
      <point x="164.75" y="569.375" type="line"/>
      <point x="322.75" y="575.875"/>
      <point x="441.75" y="702.75"/>
      <point x="441.75" y="865.875" type="curve" smooth="yes"/>
      <point x="441.75" y="921.625"/>
      <point x="433.625" y="960.25"/>
      <point x="423.25" y="998.875" type="curve" smooth="yes"/>
      <point x="413.25" y="1035.75"/>
      <point x="405.875" y="1073.25"/>
      <point x="405.875" y="1123.75" type="curve" smooth="yes"/>
      <point x="405.875" y="1246.0"/>
      <point x="467.0" y="1362.125"/>
      <point x="601.375" y="1386.75" type="curve"/>
      <point x="600.25" y="1462.625"/>
      <point x="556.625" y="1553.75"/>
      <point x="524.5" y="1579.25" type="curve"/>
      <point x="271.0" y="1559.875"/>
      <point x="151.5" y="1339.125"/>
      <point x="151.5" y="1136.25" type="curve" smooth="yes"/>
      <point x="151.5" y="1073.375"/>
      <point x="162.25" y="1032.875"/>
      <point x="176.0" y="994.0" type="curve" smooth="yes"/>
      <point x="189.75" y="954.75"/>
      <point x="201.5" y="916.5"/>
      <point x="201.5" y="857.125" type="curve" smooth="yes"/>
      <point x="201.5" y="765.375"/>
      <point x="146.25" y="693.625"/>
      <point x="41.625" y="676.875" type="curve"/>
      <point x="36.5" y="653.625"/>
      <point x="34.25" y="611.75"/>
      <point x="34.25" y="576.0" type="curve" smooth="yes"/>
      <point x="34.25" y="538.0"/>
      <point x="37.125" y="493.375"/>
      <point x="43.625" y="470.125" type="curve"/>
      <point x="168.125" y="444.375"/>
      <point x="246.375" y="375.625"/>
      <point x="246.375" y="274.875" type="curve" smooth="yes"/>
      <point x="246.375" y="239.0"/>
      <point x="240.0" y="203.375"/>
      <point x="230.25" y="165.375" type="curve" smooth="yes"/>
      <point x="218.25" y="117.75"/>
      <point x="207.375" y="65.125"/>
      <point x="207.375" y="5.625" type="curve" smooth="yes"/>
      <point x="207.375" y="-212.625"/>
      <point x="322.125" y="-398.125"/>
    </contour>
  </outline>
</glyph>
<glyph name="bar" format="2">
  <advance width="487.0"/>
  <unicode hex="007C"/>
  <outline>
    <contour>
      <point x="337.125" y="-556.25" type="curve"/>
      <point x="360.625" y="-416.875"/>
      <point x="369.5" y="-134.375"/>
      <point x="369.5" y="187.25" type="curve" smooth="yes"/>
      <point x="369.5" y="636.75"/>
      <point x="355.5" y="1198.5"/>
      <point x="336.25" y="1536.25" type="curve"/>
      <point x="266.375" y="1536.25"/>
      <point x="136.875" y="1530.25"/>
      <point x="97.625" y="1527.25" type="curve"/>
      <point x="83.5" y="1109.875"/>
      <point x="80.0" y="684.875"/>
      <point x="80.0" y="348.5" type="curve" smooth="yes"/>
      <point x="80.0" y="-32.625"/>
      <point x="86.125" y="-336.25"/>
      <point x="93.125" y="-539.375" type="curve"/>
      <point x="167.0" y="-553.875"/>
      <point x="269.5" y="-556.25"/>
    </contour>
  </outline>
</glyph>
<glyph name="braceright" format="2">
  <advance width="614.0"/>
  <unicode hex="007D"/>
  <outline>
    <contour>
      <point x="143.0" y="-433.25" type="curve"/>
      <point x="337.875" y="-403.625"/>
      <point x="473.125" y="-215.625"/>
      <point x="473.125" y="-19.0" type="curve" smooth="yes"/>
      <point x="473.125" y="40.5"/>
      <point x="461.375" y="89.0"/>
      <point x="446.375" y="137.75" type="curve" smooth="yes"/>
      <point x="431.375" y="186.75"/>
      <point x="418.75" y="236.25"/>
      <point x="418.75" y="297.875" type="curve" smooth="yes"/>
      <point x="418.75" y="402.875"/>
      <point x="469.625" y="475.625"/>
      <point x="570.625" y="491.375" type="curve"/>
      <point x="583.0" y="513.375"/>
      <point x="590.125" y="557.5"/>
      <point x="590.125" y="592.875" type="curve" smooth="yes"/>
      <point x="590.125" y="629.625"/>
      <point x="582.75" y="674.5"/>
      <point x="569.125" y="701.375" type="curve"/>
      <point x="455.125" y="710.0"/>
      <point x="373.625" y="763.625"/>
      <point x="373.625" y="889.875" type="curve" smooth="yes"/>
      <point x="373.625" y="939.875"/>
      <point x="385.625" y="993.125"/>
      <point x="400.875" y="1043.0" type="curve" smooth="yes"/>
      <point x="416.0" y="1093.0"/>
      <point x="427.75" y="1141.0"/>
      <point x="427.75" y="1191.25" type="curve" smooth="yes"/>
      <point x="427.75" y="1377.875"/>
      <point x="305.625" y="1570.0"/>
      <point x="119.625" y="1603.875" type="curve"/>
      <point x="80.625" y="1554.875"/>
      <point x="26.125" y="1479.25"/>
      <point x="-4.875" y="1419.125" type="curve"/>
      <point x="127.25" y="1388.125"/>
      <point x="179.625" y="1276.5"/>
      <point x="179.625" y="1144.625" type="curve" smooth="yes"/>
      <point x="179.625" y="1085.375"/>
      <point x="170.375" y="1041.875"/>
      <point x="160.125" y="1001.25" type="curve" smooth="yes"/>
      <point x="149.875" y="961.0"/>
      <point x="141.375" y="923.375"/>
      <point x="141.375" y="866.0" type="curve" smooth="yes"/>
      <point x="141.375" y="666.25"/>
      <point x="323.125" y="571.875"/>
      <point x="462.25" y="566.625" type="curve"/>
      <point x="465.25" y="598.25" type="line"/>
      <point x="316.0" y="596.375"/>
      <point x="188.75" y="465.625"/>
      <point x="188.75" y="305.625" type="curve" smooth="yes"/>
      <point x="188.75" y="242.5"/>
      <point x="202.75" y="190.5"/>
      <point x="219.0" y="138.875" type="curve" smooth="yes"/>
      <point x="234.625" y="88.875"/>
      <point x="248.625" y="39.875"/>
      <point x="248.625" y="-18.625" type="curve" smooth="yes"/>
      <point x="248.625" y="-120.25"/>
      <point x="186.25" y="-198.375"/>
      <point x="64.875" y="-241.125" type="curve"/>
      <point x="78.0" y="-323.125"/>
      <point x="116.875" y="-401.625"/>
    </contour>
  </outline>
</glyph>
<glyph name="asciitilde" format="2">
  <advance width="1050.0"/>
  <unicode hex="007E"/>
  <outline>
    <contour>
      <point x="104.5" y="739.0" type="curve"/>
      <point x="240.25" y="628.375" type="line"/>
      <point x="260.625" y="676.125"/>
      <point x="308.125" y="754.0"/>
      <point x="387.0" y="754.0" type="curve" smooth="yes"/>
      <point x="427.5" y="754.0"/>
      <point x="465.875" y="722.25"/>
      <point x="506.625" y="685.875" type="curve" smooth="yes"/>
      <point x="556.125" y="641.25"/>
      <point x="613.25" y="592.125"/>
      <point x="688.0" y="592.125" type="curve" smooth="yes"/>
      <point x="837.125" y="592.125"/>
      <point x="921.0" y="736.25"/>
      <point x="934.875" y="797.375" type="curve"/>
      <point x="792.875" y="882.0" type="line"/>
      <point x="774.375" y="823.875"/>
      <point x="735.25" y="768.875"/>
      <point x="675.75" y="768.875" type="curve" smooth="yes"/>
      <point x="624.375" y="768.875"/>
      <point x="586.25" y="802.875"/>
      <point x="547.25" y="840.125" type="curve" smooth="yes"/>
      <point x="502.125" y="882.625"/>
      <point x="451.125" y="926.0"/>
      <point x="373.625" y="926.0" type="curve" smooth="yes"/>
      <point x="244.375" y="926.0"/>
      <point x="135.875" y="827.75"/>
    </contour>
  </outline>
</glyph>
<glyph name="exclamdown" format="2">
  <advance width="708.0"/>
  <unicode hex="00A1"/>
  <outline>
    <contour>
      <point x="206.875" y="645.0" type="curve"/>
      <point x="200.0" y="388.0"/>
      <point x="158.5" y="-244.625"/>
      <point x="139.875" y="-392.875" type="curve"/>
      <point x="460.5" y="-406.625" type="line"/>
      <point x="468.75" y="-133.25"/>
      <point x="460.875" y="316.25"/>
      <point x="444.0" y="632.875" type="curve"/>
      <point x="388.25" y="639.875"/>
      <point x="258.25" y="645.0"/>
    </contour>
    <contour>
      <point x="314.25" y="1092.375" type="curve" smooth="yes"/>
      <point x="206.25" y="1092.375"/>
      <point x="123.75" y="1020.0"/>
      <point x="123.75" y="907.125" type="curve" smooth="yes"/>
      <point x="123.75" y="808.75"/>
      <point x="210.375" y="736.875"/>
      <point x="317.5" y="736.875" type="curve" smooth="yes"/>
      <point x="422.875" y="736.875"/>
      <point x="513.0" y="801.0"/>
      <point x="513.0" y="908.0" type="curve" smooth="yes"/>
      <point x="513.0" y="1015.375"/>
      <point x="430.125" y="1092.375"/>
    </contour>
  </outline>
</glyph>
<glyph name="cent" format="2">
  <advance width="1026.0"/>
  <unicode hex="00A2"/>
  <anchor x="513.0" y="153.125" name="bottom"/>
  <anchor x="513.0" y="1216.125" name="top"/>
  <outline>
    <contour>
      <point x="575.5" y="1358.875" type="curve"/>
      <point x="548.5" y="1035.875"/>
      <point x="405.875" y="394.25"/>
      <point x="313.875" y="36.25" type="curve"/>
      <point x="366.625" y="3.375"/>
      <point x="422.5" y="-8.25"/>
      <point x="479.75" y="-10.875" type="curve"/>
      <point x="543.125" y="215.0"/>
      <point x="673.125" y="994.5"/>
      <point x="703.125" y="1327.5" type="curve"/>
      <point x="681.0" y="1345.5"/>
      <point x="623.375" y="1358.875"/>
    </contour>
    <component base="c" yOffset="153.125"/>
  </outline>
</glyph>
<glyph name="sterling" format="2">
  <advance width="1140.0"/>
  <unicode hex="00A3"/>
  <outline>
    <contour>
      <point x="165.375" y="535.625" type="curve" smooth="yes"/>
      <point x="345.125" y="535.625"/>
      <point x="682.125" y="553.375"/>
      <point x="769.5" y="579.375" type="curve"/>
      <point x="769.5" y="617.0"/>
      <point x="763.125" y="744.125"/>
      <point x="758.625" y="770.0" type="curve"/>
      <point x="670.625" y="751.25"/>
      <point x="354.25" y="735.5"/>
      <point x="171.625" y="735.5" type="curve" smooth="yes"/>
      <point x="119.25" y="735.5"/>
      <point x="75.125" y="736.5"/>
      <point x="43.625" y="739.125" type="curve"/>
      <point x="37.375" y="541.625" type="line"/>
      <point x="61.0" y="537.625"/>
      <point x="107.125" y="535.625"/>
    </contour>
    <component base="sterlira"/>
  </outline>
</glyph>
<glyph name="currency" format="2">
  <advance width="974.0"/>
  <unicode hex="00A4"/>
  <outline>
    <contour>
      <point x="166.125" y="61.0" type="curve"/>
      <point x="222.25" y="117.5"/>
      <point x="360.75" y="280.625"/>
      <point x="397.5" y="329.375" type="curve"/>
      <point x="235.75" y="438.5" type="line"/>
      <point x="164.0" y="371.0"/>
      <point x="70.375" y="280.375"/>
      <point x="-1.625" y="210.375" type="curve"/>
      <point x="24.375" y="182.5"/>
      <point x="134.5" y="85.875"/>
    </contour>
    <contour>
      <point x="797.0" y="86.25" type="curve"/>
      <point x="822.625" y="110.625"/>
      <point x="912.125" y="202.375"/>
      <point x="931.75" y="228.0" type="curve"/>
      <point x="881.875" y="276.0"/>
      <point x="782.0" y="362.625"/>
      <point x="711.375" y="423.375" type="curve"/>
      <point x="575.875" y="315.875" type="line"/>
      <point x="612.0" y="279.625"/>
      <point x="725.0" y="158.25"/>
    </contour>
    <contour>
      <point x="229.875" y="662.75" type="curve"/>
      <point x="358.0" y="791.0" type="line"/>
      <point x="298.625" y="867.375"/>
      <point x="218.75" y="959.875"/>
      <point x="161.375" y="1014.875" type="curve"/>
      <point x="122.0" y="988.875"/>
      <point x="28.875" y="900.375"/>
      <point x="13.5" y="879.875" type="curve"/>
      <point x="77.0" y="809.875"/>
      <point x="152.875" y="729.125"/>
    </contour>
    <contour>
      <point x="714.5" y="666.125" type="line"/>
      <point x="785.125" y="724.25"/>
      <point x="884.375" y="821.375"/>
      <point x="950.125" y="891.375" type="curve"/>
      <point x="924.5" y="916.75"/>
      <point x="821.25" y="1016.25"/>
      <point x="801.5" y="1042.25" type="curve"/>
      <point x="733.25" y="976.5"/>
      <point x="627.875" y="865.875"/>
      <point x="567.25" y="802.75" type="curve"/>
    </contour>
    <component base="degree" xOffset="106.0" yOffset="-656.0"/>
  </outline>
</glyph>
<glyph name="yen" format="2">
  <advance width="1065.0"/>
  <unicode hex="00A5"/>
  <anchor x="605.5" y="0.0" name="bottom"/>
  <anchor x="605.5" y="1291.0" name="top"/>
  <anchor x="92.5" y="1291.0" name="topleft"/>
  <outline>
    <contour>
      <point x="163.5" y="496.0" type="curve"/>
      <point x="264.5" y="498.375"/>
      <point x="896.125" y="507.375"/>
      <point x="990.125" y="507.375" type="curve"/>
      <point x="990.125" y="555.5"/>
      <point x="982.25" y="623.875"/>
      <point x="971.75" y="683.125" type="curve"/>
      <point x="888.125" y="693.125"/>
      <point x="762.375" y="697.75"/>
      <point x="624.0" y="697.75" type="curve" smooth="yes"/>
      <point x="461.25" y="697.75"/>
      <point x="326.25" y="692.75"/>
      <point x="184.75" y="682.125" type="curve"/>
      <point x="178.5" y="653.25"/>
      <point x="163.875" y="561.75"/>
    </contour>
    <contour>
      <point x="994.625" y="227.5" type="curve"/>
      <point x="995.75" y="287.0"/>
      <point x="984.625" y="366.25"/>
      <point x="979.625" y="398.75" type="curve"/>
      <point x="889.875" y="405.125"/>
      <point x="761.5" y="409.25"/>
      <point x="631.375" y="409.25" type="curve" smooth="yes"/>
      <point x="447.125" y="409.25"/>
      <point x="293.125" y="404.125"/>
      <point x="169.75" y="395.375" type="curve"/>
      <point x="159.625" y="342.375"/>
      <point x="151.5" y="291.125"/>
      <point x="151.5" y="234.25" type="curve"/>
      <point x="245.5" y="235.0"/>
      <point x="884.75" y="229.375"/>
    </contour>
    <component base="Y" xOffset="26.25"/>
  </outline>
</glyph>
<glyph name="brokenbar" format="2">
  <advance width="432.0"/>
  <unicode hex="00A6"/>
  <outline>
    <contour>
      <point x="78.0" y="276.875" type="curve"/>
      <point x="78.0" y="123.75"/>
      <point x="99.875" y="-314.125"/>
      <point x="112.25" y="-447.625" type="curve"/>
      <point x="170.375" y="-447.625"/>
      <point x="293.0" y="-441.5"/>
      <point x="328.5" y="-427.625" type="curve"/>
      <point x="322.375" y="-308.375"/>
      <point x="318.0" y="190.0"/>
      <point x="318.0" y="285.0" type="curve"/>
      <point x="248.625" y="285.0"/>
      <point x="147.875" y="283.125"/>
    </contour>
    <contour>
      <point x="85.75" y="759.875" type="curve"/>
      <point x="107.375" y="757.375"/>
      <point x="227.5" y="751.0"/>
      <point x="327.25" y="752.125" type="curve"/>
      <point x="324.75" y="880.0"/>
      <point x="327.125" y="1331.0"/>
      <point x="330.875" y="1478.75" type="curve"/>
      <point x="290.625" y="1498.375"/>
      <point x="176.375" y="1502.0"/>
      <point x="114.125" y="1502.0" type="curve"/>
      <point x="105.0" y="1378.5"/>
      <point x="85.75" y="1014.0"/>
    </contour>
  </outline>
</glyph>
<glyph name="section" format="2">
  <advance width="1000.0"/>
  <unicode hex="00A7"/>
  <outline>
    <contour>
      <point x="511.5" y="697.875" type="curve"/>
      <point x="323.75" y="815.75" type="line"/>
      <point x="194.75" y="774.875"/>
      <point x="94.125" y="684.25"/>
      <point x="94.125" y="547.5" type="curve" smooth="yes"/>
      <point x="94.125" y="355.125"/>
      <point x="248.875" y="276.75"/>
      <point x="424.875" y="213.75" type="curve" smooth="yes"/>
      <point x="583.5" y="157.375"/>
      <point x="694.125" y="94.875"/>
      <point x="694.125" y="14.75" type="curve" smooth="yes"/>
      <point x="694.125" y="-76.5"/>
      <point x="615.375" y="-126.0"/>
      <point x="507.75" y="-126.0" type="curve" smooth="yes"/>
      <point x="389.5" y="-126.0"/>
      <point x="242.125" y="-53.25"/>
      <point x="140.5" y="29.0" type="curve"/>
      <point x="100.375" y="-7.25"/>
      <point x="23.125" y="-129.5"/>
      <point x="-1.875" y="-177.25" type="curve"/>
      <point x="75.625" y="-254.875"/>
      <point x="269.625" y="-353.75"/>
      <point x="498.75" y="-353.75" type="curve" smooth="yes"/>
      <point x="745.75" y="-353.75"/>
      <point x="938.25" y="-214.625"/>
      <point x="938.25" y="16.0" type="curve" smooth="yes"/>
      <point x="938.25" y="209.75"/>
      <point x="767.25" y="312.875"/>
      <point x="584.0" y="378.625" type="curve" smooth="yes"/>
      <point x="452.75" y="427.5"/>
      <point x="345.125" y="479.25"/>
      <point x="345.125" y="555.0" type="curve" smooth="yes"/>
      <point x="345.125" y="647.875"/>
      <point x="443.125" y="691.5"/>
    </contour>
    <contour>
      <point x="577.5" y="359.625" type="curve"/>
      <point x="710.25" y="198.375" type="line"/>
      <point x="850.875" y="254.0"/>
      <point x="955.75" y="370.125"/>
      <point x="955.75" y="529.125" type="curve" smooth="yes"/>
      <point x="955.75" y="722.875"/>
      <point x="767.25" y="822.25"/>
      <point x="584.0" y="888.0" type="curve" smooth="yes"/>
      <point x="452.75" y="936.875"/>
      <point x="358.875" y="984.25"/>
      <point x="358.875" y="1053.75" type="curve" smooth="yes"/>
      <point x="358.875" y="1128.5"/>
      <point x="450.375" y="1152.375"/>
      <point x="533.0" y="1152.375" type="curve" smooth="yes"/>
      <point x="625.25" y="1152.375"/>
      <point x="738.875" y="1107.5"/>
      <point x="798.125" y="1062.375" type="curve"/>
      <point x="854.0" y="1126.75"/>
      <point x="899.625" y="1233.875"/>
      <point x="906.125" y="1255.375" type="curve"/>
      <point x="812.0" y="1318.75"/>
      <point x="663.125" y="1361.125"/>
      <point x="515.25" y="1361.125" type="curve" smooth="yes"/>
      <point x="312.125" y="1361.125"/>
      <point x="120.375" y="1257.25"/>
      <point x="120.375" y="1060.625" type="curve" smooth="yes"/>
      <point x="120.375" y="866.75"/>
      <point x="248.875" y="786.875"/>
      <point x="424.875" y="723.125" type="curve" smooth="yes"/>
      <point x="583.5" y="666.0"/>
      <point x="711.625" y="613.125"/>
      <point x="711.625" y="527.875" type="curve" smooth="yes"/>
      <point x="711.625" y="440.375"/>
      <point x="652.75" y="377.75"/>
    </contour>
  </outline>
</glyph>
<glyph name="copyright" format="2">
  <advance width="1745.0"/>
  <unicode hex="00A9"/>
  <outline>
    <contour>
      <point x="862.625" y="-68.0" type="curve" smooth="yes"/>
      <point x="1329.125" y="-68.0"/>
      <point x="1651.0" y="198.375"/>
      <point x="1651.0" y="600.125" type="curve" smooth="yes"/>
      <point x="1651.0" y="1090.25"/>
      <point x="1364.25" y="1350.0"/>
      <point x="898.75" y="1350.0" type="curve" smooth="yes"/>
      <point x="394.125" y="1350.0"/>
      <point x="58.125" y="1068.125"/>
      <point x="58.125" y="573.0" type="curve" smooth="yes"/>
      <point x="58.125" y="155.625"/>
      <point x="384.125" y="-68.0"/>
    </contour>
    <contour>
      <point x="847.75" y="141.875" type="curve" smooth="yes"/>
      <point x="545.125" y="141.875"/>
      <point x="333.5" y="306.625"/>
      <point x="333.5" y="617.75" type="curve" smooth="yes"/>
      <point x="333.5" y="933.25"/>
      <point x="579.75" y="1147.0"/>
      <point x="889.5" y="1147.0" type="curve" smooth="yes"/>
      <point x="1228.5" y="1147.0"/>
      <point x="1390.25" y="957.625"/>
      <point x="1390.25" y="611.375" type="curve" smooth="yes"/>
      <point x="1390.25" y="310.125"/>
      <point x="1167.5" y="141.875"/>
    </contour>
    <contour>
      <point x="848.125" y="286.25" type="curve" smooth="yes"/>
      <point x="1001.125" y="286.25"/>
      <point x="1161.125" y="360.25"/>
      <point x="1227.5" y="497.25" type="curve"/>
      <point x="1180.375" y="537.125"/>
      <point x="1116.375" y="581.875"/>
      <point x="1065.375" y="607.0" type="curve"/>
      <point x="1018.375" y="537.0"/>
      <point x="953.0" y="487.875"/>
      <point x="871.5" y="487.875" type="curve" smooth="yes"/>
      <point x="794.25" y="487.875"/>
      <point x="705.75" y="519.75"/>
      <point x="705.75" y="633.75" type="curve" smooth="yes"/>
      <point x="705.75" y="744.375"/>
      <point x="793.0" y="807.25"/>
      <point x="882.375" y="807.25" type="curve" smooth="yes"/>
      <point x="951.625" y="807.25"/>
      <point x="1016.625" y="781.375"/>
      <point x="1037.75" y="753.25" type="curve"/>
      <point x="1069.625" y="782.375"/>
      <point x="1120.375" y="841.375"/>
      <point x="1164.125" y="903.25" type="curve"/>
      <point x="1112.5" y="962.25"/>
      <point x="1030.5" y="991.25"/>
      <point x="918.125" y="991.25" type="curve" smooth="yes"/>
      <point x="679.5" y="991.25"/>
      <point x="509.5" y="829.875"/>
      <point x="509.5" y="609.875" type="curve" smooth="yes"/>
      <point x="509.5" y="409.0"/>
      <point x="637.5" y="286.25"/>
    </contour>
  </outline>
</glyph>
<glyph name="ordfeminine" format="2">
  <advance width="750.0"/>
  <unicode hex="00AA"/>
  <outline>
    <contour>
      <point x="500.5" y="722.25" type="curve"/>
      <point x="526.5" y="717.75"/>
      <point x="583.125" y="715.75"/>
      <point x="622.125" y="715.75" type="curve" smooth="yes"/>
      <point x="637.0" y="715.75"/>
      <point x="669.0" y="716.125"/>
      <point x="674.5" y="717.125" type="curve"/>
      <point x="684.5" y="787.625"/>
      <point x="697.125" y="895.375"/>
      <point x="697.125" y="1006.0" type="curve" smooth="yes"/>
      <point x="697.125" y="1267.375"/>
      <point x="616.25" y="1426.625"/>
      <point x="351.0" y="1426.625" type="curve" smooth="yes"/>
      <point x="212.5" y="1426.625"/>
      <point x="106.5" y="1382.875"/>
      <point x="37.375" y="1321.25" type="curve"/>
      <point x="142.5" y="1194.375" type="line"/>
      <point x="176.5" y="1228.375"/>
      <point x="256.75" y="1259.875"/>
      <point x="338.875" y="1259.875" type="curve" smooth="yes"/>
      <point x="423.125" y="1259.875"/>
      <point x="471.0" y="1231.5"/>
      <point x="494.5" y="1189.5" type="curve" smooth="yes"/>
      <point x="506.5" y="1172.5"/>
      <point x="514.25" y="1149.0"/>
      <point x="515.75" y="1127.25" type="curve"/>
      <point x="500.0" y="1140.875"/>
      <point x="401.625" y="1155.875"/>
      <point x="347.875" y="1155.875" type="curve" smooth="yes"/>
      <point x="182.375" y="1155.875"/>
      <point x="32.0" y="1087.625"/>
      <point x="32.0" y="930.125" type="curve" smooth="yes"/>
      <point x="32.0" y="787.125"/>
      <point x="144.125" y="724.125"/>
      <point x="303.625" y="724.125" type="curve" smooth="yes"/>
      <point x="382.875" y="724.125"/>
      <point x="476.25" y="757.375"/>
      <point x="510.625" y="791.625" type="curve"/>
      <point x="508.5" y="771.125"/>
      <point x="502.5" y="731.75"/>
    </contour>
    <contour>
      <point x="365.125" y="874.375" type="curve" smooth="yes"/>
      <point x="284.375" y="874.375"/>
      <point x="234.125" y="892.875"/>
      <point x="234.125" y="951.25" type="curve" smooth="yes"/>
      <point x="234.125" y="1003.125"/>
      <point x="305.25" y="1028.875"/>
      <point x="376.0" y="1028.875" type="curve" smooth="yes"/>
      <point x="429.125" y="1028.875"/>
      <point x="497.875" y="1018.875"/>
      <point x="515.875" y="1012.5" type="curve"/>
      <point x="517.25" y="1001.5"/>
      <point x="517.625" y="983.75"/>
      <point x="517.625" y="973.375" type="curve" smooth="yes"/>
      <point x="517.625" y="961.625"/>
      <point x="516.875" y="947.0"/>
      <point x="515.75" y="929.0" type="curve"/>
      <point x="482.875" y="898.625"/>
      <point x="428.75" y="874.375"/>
    </contour>
  </outline>
</glyph>
<glyph name="guillemetleft" format="2">
  <advance width="1214.0"/>
  <unicode hex="00AB"/>
  <outline>
    <contour>
      <point x="1015.375" y="1135.0" type="curve"/>
      <point x="829.75" y="972.25"/>
      <point x="651.875" y="781.625"/>
      <point x="473.375" y="574.0" type="curve"/>
      <point x="1033.375" y="142.875" type="line"/>
      <point x="1055.75" y="221.0"/>
      <point x="1075.375" y="324.0"/>
      <point x="1075.75" y="380.25" type="curve"/>
      <point x="1022.375" y="425.25"/>
      <point x="853.5" y="532.0"/>
      <point x="740.875" y="600.5" type="curve"/>
      <point x="1139.5" y="967.625" type="line"/>
      <point x="1121.5" y="1017.75"/>
      <point x="1074.875" y="1097.625"/>
    </contour>
    <contour>
      <point x="524.375" y="1120.0" type="curve"/>
      <point x="341.375" y="928.0"/>
      <point x="175.375" y="733.5"/>
      <point x="18.375" y="536.125" type="curve"/>
      <point x="211.375" y="333.625"/>
      <point x="424.75" y="158.25"/>
      <point x="645.375" y="0.0" type="curve"/>
      <point x="670.0" y="58.375"/>
      <point x="706.25" y="150.75"/>
      <point x="715.75" y="191.5" type="curve"/>
      <point x="685.75" y="208.5"/>
      <point x="450.875" y="406.0"/>
      <point x="281.75" y="550.625" type="curve"/>
      <point x="671.0" y="987.5" type="line"/>
      <point x="635.75" y="1024.25"/>
      <point x="571.5" y="1085.5"/>
    </contour>
  </outline>
</glyph>
<glyph name="logicalnot" format="2">
  <advance width="1000.0"/>
  <unicode hex="00AC"/>
  <outline>
    <contour>
      <point x="929.25" y="842.625" type="curve"/>
      <point x="779.875" y="842.625"/>
      <point x="202.0" y="823.375"/>
      <point x="58.25" y="811.25" type="curve"/>
      <point x="56.75" y="751.375"/>
      <point x="57.875" y="647.875"/>
      <point x="59.0" y="591.5" type="curve"/>
      <point x="165.625" y="595.5"/>
      <point x="531.75" y="611.125"/>
      <point x="723.75" y="620.5" type="curve"/>
      <point x="720.0" y="556.5"/>
      <point x="711.0" y="354.375"/>
      <point x="708.0" y="270.0" type="curve"/>
      <point x="755.75" y="268.125"/>
      <point x="864.0" y="267.875"/>
      <point x="903.75" y="269.75" type="curve"/>
      <point x="909.0" y="410.375"/>
      <point x="920.5" y="735.5"/>
    </contour>
  </outline>
</glyph>
<glyph name="softhyphen" format="2">
  <advance width="759.875"/>
  <unicode hex="00AD"/>
  <outline>
    <contour>
      <point x="708.0" y="801.25" type="curve"/>
      <point x="637.0" y="810.75"/>
      <point x="541.0" y="813.875"/>
      <point x="421.5" y="813.875" type="curve" smooth="yes"/>
      <point x="295.625" y="813.875"/>
      <point x="157.875" y="801.875"/>
      <point x="50.625" y="787.25" type="curve"/>
      <point x="44.375" y="749.0"/>
      <point x="35.375" y="607.625"/>
      <point x="36.5" y="543.125" type="curve"/>
      <point x="188.375" y="554.75"/>
      <point x="599.625" y="568.625"/>
      <point x="718.25" y="568.625" type="curve"/>
      <point x="718.625" y="631.75"/>
      <point x="718.0" y="729.125"/>
    </contour>
  </outline>
</glyph>
<glyph name="registered" format="2">
  <advance width="1400.0"/>
  <unicode hex="00AE"/>
  <outline>
    <contour>
      <point x="728.125" y="266.5" type="curve" smooth="yes"/>
      <point x="1061.875" y="266.5"/>
      <point x="1324.125" y="435.75"/>
      <point x="1324.125" y="808.5" type="curve" smooth="yes"/>
      <point x="1324.125" y="1156.125"/>
      <point x="1079.125" y="1321.0"/>
      <point x="727.375" y="1321.0" type="curve" smooth="yes"/>
      <point x="382.875" y="1321.0"/>
      <point x="94.25" y="1124.125"/>
      <point x="94.25" y="767.625" type="curve" smooth="yes"/>
      <point x="94.25" y="404.75"/>
      <point x="374.375" y="266.5"/>
    </contour>
    <contour>
      <point x="718.5" y="429.75" type="curve" smooth="yes"/>
      <point x="522.75" y="429.75"/>
      <point x="313.5" y="489.75"/>
      <point x="313.5" y="781.5" type="curve" smooth="yes"/>
      <point x="313.5" y="1033.0"/>
      <point x="507.5" y="1161.875"/>
      <point x="722.125" y="1161.875" type="curve" smooth="yes"/>
      <point x="966.25" y="1161.875"/>
      <point x="1103.375" y="1035.75"/>
      <point x="1103.375" y="791.875" type="curve" smooth="yes"/>
      <point x="1103.375" y="524.625"/>
      <point x="918.125" y="429.75"/>
    </contour>
    <contour>
      <point x="689.125" y="536.125" type="curve"/>
      <point x="689.125" y="575.25"/>
      <point x="688.5" y="710.625"/>
      <point x="687.25" y="743.5" type="curve"/>
      <point x="693.875" y="744.125"/>
      <point x="705.125" y="745.5"/>
      <point x="710.625" y="746.625" type="curve"/>
      <point x="742.5" y="686.875"/>
      <point x="767.875" y="594.0"/>
      <point x="793.375" y="536.125" type="curve"/>
      <point x="855.625" y="536.125"/>
      <point x="913.75" y="544.125"/>
      <point x="946.375" y="562.0" type="curve"/>
      <point x="934.75" y="600.0"/>
      <point x="875.5" y="736.5"/>
      <point x="837.75" y="787.125" type="curve"/>
      <point x="899.0" y="805.625"/>
      <point x="938.375" y="858.125"/>
      <point x="938.375" y="925.0" type="curve" smooth="yes"/>
      <point x="938.375" y="1029.625"/>
      <point x="821.75" y="1058.75"/>
      <point x="710.5" y="1058.75" type="curve" smooth="yes"/>
      <point x="638.125" y="1058.75"/>
      <point x="577.125" y="1046.375"/>
      <point x="532.75" y="1020.625" type="curve"/>
      <point x="526.875" y="932.0"/>
      <point x="522.75" y="675.25"/>
      <point x="522.75" y="560.625" type="curve"/>
      <point x="564.875" y="546.875"/>
      <point x="632.125" y="536.125"/>
    </contour>
    <contour>
      <point x="678.375" y="854.625" type="curve"/>
      <point x="678.375" y="870.75"/>
      <point x="674.75" y="933.875"/>
      <point x="673.375" y="946.5" type="curve"/>
      <point x="687.375" y="948.875"/>
      <point x="707.25" y="950.625"/>
      <point x="725.875" y="950.625" type="curve" smooth="yes"/>
      <point x="758.0" y="950.625"/>
      <point x="787.375" y="944.375"/>
      <point x="787.375" y="914.125" type="curve" smooth="yes"/>
      <point x="787.375" y="869.25"/>
      <point x="735.375" y="854.625"/>
    </contour>
  </outline>
</glyph>
<glyph name="degree" format="2">
  <advance width="814.0"/>
  <unicode hex="00B0"/>
  <outline>
    <contour>
      <point x="372.625" y="880.625" type="curve" smooth="yes"/>
      <point x="566.5" y="880.625"/>
      <point x="729.875" y="1038.25"/>
      <point x="729.875" y="1226.75" type="curve" smooth="yes"/>
      <point x="729.875" y="1396.625"/>
      <point x="571.125" y="1519.375"/>
      <point x="374.25" y="1519.375" type="curve" smooth="yes"/>
      <point x="187.0" y="1519.375"/>
      <point x="27.75" y="1386.25"/>
      <point x="27.75" y="1199.25" type="curve" smooth="yes"/>
      <point x="27.75" y="1024.125"/>
      <point x="183.0" y="880.625"/>
    </contour>
    <contour>
      <point x="371.75" y="1074.875" type="curve" smooth="yes"/>
      <point x="293.375" y="1074.875"/>
      <point x="245.125" y="1128.25"/>
      <point x="245.125" y="1209.625" type="curve" smooth="yes"/>
      <point x="245.125" y="1276.75"/>
      <point x="307.875" y="1325.125"/>
      <point x="371.875" y="1325.125" type="curve" smooth="yes"/>
      <point x="468.25" y="1325.125"/>
      <point x="512.75" y="1268.375"/>
      <point x="512.75" y="1198.0" type="curve" smooth="yes"/>
      <point x="512.75" y="1130.125"/>
      <point x="446.625" y="1074.875"/>
    </contour>
  </outline>
</glyph>
<glyph name="twosuperior" format="2">
  <advance width="739.625"/>
  <unicode hex="00B2"/>
  <outline>
    <contour>
      <point x="632.25" y="712.0" type="curve"/>
      <point x="543.5" y="706.5"/>
      <point x="389.375" y="694.5"/>
      <point x="331.5" y="686.875" type="curve"/>
      <point x="356.125" y="700.25"/>
      <point x="445.875" y="783.0"/>
      <point x="504.125" y="851.875" type="curve" smooth="yes"/>
      <point x="584.875" y="946.5"/>
      <point x="620.375" y="1040.75"/>
      <point x="620.375" y="1115.75" type="curve" smooth="yes"/>
      <point x="620.375" y="1243.25"/>
      <point x="529.5" y="1322.875"/>
      <point x="386.0" y="1322.875" type="curve" smooth="yes"/>
      <point x="239.75" y="1322.875"/>
      <point x="99.0" y="1237.5"/>
      <point x="30.25" y="1120.875" type="curve"/>
      <point x="60.25" y="1091.0"/>
      <point x="138.125" y="1031.25"/>
      <point x="184.625" y="1009.0" type="curve"/>
      <point x="214.25" y="1057.5"/>
      <point x="281.0" y="1113.25"/>
      <point x="354.625" y="1113.25" type="curve" smooth="yes"/>
      <point x="400.375" y="1113.25"/>
      <point x="432.0" y="1092.875"/>
      <point x="432.0" y="1053.125" type="curve" smooth="yes"/>
      <point x="432.0" y="995.25"/>
      <point x="351.125" y="910.875"/>
      <point x="256.75" y="835.25" type="curve" smooth="yes"/>
      <point x="167.125" y="765.125"/>
      <point x="90.0" y="701.625"/>
      <point x="42.5" y="672.5" type="curve"/>
      <point x="45.125" y="612.875"/>
      <point x="72.625" y="503.875"/>
      <point x="76.25" y="490.0" type="curve"/>
      <point x="638.625" y="516.0" type="line"/>
      <point x="639.75" y="540.25"/>
      <point x="639.125" y="672.625"/>
    </contour>
  </outline>
</glyph>
<glyph name="threesuperior" format="2">
  <advance width="785.75"/>
  <unicode hex="00B3"/>
  <outline>
    <contour>
      <point x="352.375" y="498.0" type="curve" smooth="yes"/>
      <point x="529.875" y="498.0"/>
      <point x="681.375" y="585.5"/>
      <point x="681.375" y="736.75" type="curve" smooth="yes"/>
      <point x="681.375" y="856.0"/>
      <point x="576.75" y="917.75"/>
      <point x="468.25" y="924.375" type="curve"/>
      <point x="556.875" y="947.75"/>
      <point x="633.5" y="1009.125"/>
      <point x="633.5" y="1098.125" type="curve" smooth="yes"/>
      <point x="633.5" y="1221.75"/>
      <point x="506.75" y="1293.875"/>
      <point x="364.375" y="1293.875" type="curve" smooth="yes"/>
      <point x="183.5" y="1293.875"/>
      <point x="61.375" y="1207.625"/>
      <point x="26.0" y="1175.125" type="curve"/>
      <point x="41.5" y="1154.75"/>
      <point x="129.125" y="1082.25"/>
      <point x="164.0" y="1053.5" type="curve"/>
      <point x="195.375" y="1081.875"/>
      <point x="281.75" y="1120.75"/>
      <point x="350.75" y="1120.75" type="curve" smooth="yes"/>
      <point x="413.0" y="1120.75"/>
      <point x="441.25" y="1092.375"/>
      <point x="441.25" y="1054.0" type="curve" smooth="yes"/>
      <point x="441.25" y="992.5"/>
      <point x="315.25" y="959.625"/>
      <point x="196.0" y="959.625" type="curve"/>
      <point x="196.0" y="913.375"/>
      <point x="204.0" y="850.375"/>
      <point x="212.375" y="826.75" type="curve"/>
      <point x="399.625" y="826.75"/>
      <point x="480.375" y="806.875"/>
      <point x="480.375" y="739.625" type="curve" smooth="yes"/>
      <point x="480.375" y="685.75"/>
      <point x="428.375" y="654.75"/>
      <point x="354.875" y="654.75" type="curve" smooth="yes"/>
      <point x="275.0" y="654.75"/>
      <point x="216.375" y="690.875"/>
      <point x="199.0" y="730.5" type="curve"/>
      <point x="155.0" y="713.0"/>
      <point x="79.875" y="669.125"/>
      <point x="39.0" y="641.375" type="curve"/>
      <point x="75.5" y="557.375"/>
      <point x="194.25" y="498.0"/>
    </contour>
  </outline>
</glyph>
